<svg width="1424" height="1089" viewBox="0 0 1424 1089" fill="none" xmlns="http://www.w3.org/2000/svg">
<g clip-path="url(#clip0_53_197)">
<mask id="mask0_53_197" style="mask-type:luminance" maskUnits="userSpaceOnUse" x="15" y="16" width="1394" height="1057">
<path d="M712.022 1072.9C1096.62 1072.9 1408.4 836.339 1408.4 544.522C1408.4 252.706 1096.62 16.1418 712.022 16.1418C327.424 16.1418 15.6449 252.706 15.6449 544.522C15.6449 836.339 327.424 1072.9 712.022 1072.9Z" fill="white"/>
</mask>
<g mask="url(#mask0_53_197)">
<rect x="16" y="17" width="1424" height="1088" fill="url(#paint0_linear_53_197)"/>
</g>
<path d="M712.022 1088.5C319.424 1088.5 0 844.488 0 544.522C0 244.557 319.424 0.5 712.022 0.5C1104.62 0.5 1424 244.557 1424 544.522C1424 844.488 1104.62 1088.5 712.022 1088.5ZM712.022 31.7836C336.678 31.7836 31.2898 261.808 31.2898 544.522C31.2898 827.237 336.678 1057.22 712.022 1057.22C1087.37 1057.22 1392.71 827.282 1392.71 544.522C1392.71 261.763 1087.37 31.7836 712.022 31.7836Z" fill="#200A40"/>
<path d="M1408.35 544.522C1408.35 836.22 1096.62 1073.08 712.022 1073.08C327.426 1073.08 15.6449 836.22 15.6449 544.522L379.948 724.09C414.334 741.036 452.154 749.858 490.49 749.877H946.428C985.983 749.88 1024.97 740.49 1060.19 722.482L1408.35 544.522Z" fill="#200A40"/>
<path d="M968.956 461.129C965.986 461.113 963.143 459.924 961.045 457.822C960.535 457.312 960.072 456.759 959.659 456.169C959.246 455.552 958.902 454.893 958.631 454.202C958.349 453.541 958.139 452.852 958.005 452.146C957.939 451.418 957.939 450.685 958.005 449.956C957.941 449.228 957.941 448.495 958.005 447.767C958.279 446.328 958.842 444.96 959.659 443.744C960.071 443.14 960.535 442.571 961.045 442.046C962.348 440.748 963.953 439.795 965.717 439.272C967.481 438.75 969.347 438.674 971.147 439.052C971.869 439.156 972.575 439.351 973.248 439.633C973.92 439.913 974.563 440.258 975.17 440.661C975.766 441.084 976.333 441.547 976.868 442.046C977.378 442.571 977.842 443.14 978.254 443.744C979.071 444.96 979.633 446.328 979.908 447.767C980.046 448.489 980.121 449.221 980.131 449.956C980.13 452.907 978.956 455.736 976.868 457.822C976.346 458.348 975.777 458.827 975.17 459.252C974.553 459.638 973.911 459.982 973.248 460.28C972.569 460.556 971.865 460.765 971.147 460.906C970.425 461.046 969.692 461.121 968.956 461.129Z" fill="white"/>
<path d="M989.518 461.129C986.57 461.113 983.746 459.942 981.651 457.867C981.139 457.344 980.675 456.775 980.266 456.169C979.839 455.553 979.479 454.894 979.193 454.202C978.911 453.541 978.701 452.852 978.567 452.146C978.501 451.418 978.501 450.685 978.567 449.956C978.503 449.228 978.503 448.495 978.567 447.767C978.707 447.048 978.917 446.344 979.193 445.666C979.489 444.993 979.848 444.35 980.266 443.744C980.664 443.129 981.129 442.56 981.651 442.046C982.167 441.526 982.737 441.062 983.35 440.661C983.951 440.249 984.595 439.904 985.272 439.633C985.943 439.345 986.65 439.15 987.373 439.052C988.839 438.673 990.377 438.673 991.843 439.052C992.565 439.156 993.271 439.351 993.944 439.633C994.62 439.904 995.265 440.249 995.866 440.661C996.479 441.062 997.049 441.526 997.564 442.046C999.131 443.609 1000.2 445.601 1000.63 447.771C1001.06 449.941 1000.84 452.191 999.996 454.235C999.148 456.279 997.713 458.025 995.871 459.253C994.03 460.48 991.866 461.133 989.653 461.129H989.518Z" fill="white"/>
<path d="M1046.69 461.129H1010.93C1007.97 461.129 1005.12 459.952 1003.03 457.857C1000.93 455.761 999.755 452.92 999.755 449.956C999.755 446.993 1000.93 444.151 1003.03 442.056C1005.12 439.961 1007.97 438.784 1010.93 438.784H1046.69C1049.65 438.784 1052.5 439.961 1054.59 442.056C1056.69 444.151 1057.86 446.993 1057.86 449.956C1057.86 452.92 1056.69 455.761 1054.59 457.857C1052.5 459.952 1049.65 461.129 1046.69 461.129Z" fill="white"/>
<path d="M1208.73 461.129C1205.78 461.113 1202.95 459.942 1200.86 457.867C1199.82 456.829 1199 455.595 1198.44 454.238C1197.88 452.88 1197.59 451.425 1197.6 449.956C1197.53 449.228 1197.53 448.495 1197.6 447.767C1197.91 446.334 1198.49 444.971 1199.29 443.744C1199.69 443.129 1200.16 442.56 1200.68 442.046C1201.2 441.526 1201.77 441.062 1202.38 440.661C1202.98 440.249 1203.62 439.904 1204.3 439.633C1204.97 439.351 1205.68 439.156 1206.4 439.052C1208.75 438.571 1211.19 438.862 1213.36 439.881C1215.54 440.901 1217.32 442.594 1218.45 444.709C1219.58 446.824 1220 449.247 1219.64 451.618C1219.28 453.989 1218.16 456.181 1216.46 457.867C1215.94 458.387 1215.37 458.851 1214.76 459.252C1214.15 459.648 1213.51 459.991 1212.84 460.28C1212.16 460.556 1211.46 460.765 1210.74 460.906C1210.07 461.038 1209.4 461.113 1208.73 461.129Z" fill="white"/>
<path d="M1133.14 461.129H1097.38C1094.42 461.129 1091.57 459.952 1089.48 457.857C1087.38 455.761 1086.2 452.92 1086.2 449.956C1086.2 446.993 1087.38 444.151 1089.48 442.056C1091.57 439.961 1094.42 438.784 1097.38 438.784H1133.14C1136.1 438.784 1138.94 439.961 1141.04 442.056C1143.14 444.151 1144.31 446.993 1144.31 449.956C1144.31 452.92 1143.14 455.761 1141.04 457.857C1138.94 459.952 1136.1 461.129 1133.14 461.129Z" fill="white"/>
<path d="M1189.73 461.129H1153.97C1151.01 461.129 1148.16 459.952 1146.07 457.857C1143.97 455.761 1142.79 452.92 1142.79 449.956C1142.79 446.993 1143.97 444.151 1146.07 442.056C1148.16 439.961 1151.01 438.784 1153.97 438.784H1189.73C1192.69 438.784 1195.53 439.961 1197.63 442.056C1199.73 444.151 1200.9 446.993 1200.9 449.956C1200.9 452.92 1199.73 455.761 1197.63 457.857C1195.53 459.952 1192.69 461.129 1189.73 461.129Z" fill="white"/>
<path d="M1250.92 461.129C1247.96 461.11 1245.12 459.94 1243.01 457.867C1241.97 456.829 1241.15 455.595 1240.59 454.238C1240.03 452.88 1239.74 451.425 1239.75 449.956C1239.68 449.228 1239.68 448.495 1239.75 447.767C1240.06 446.334 1240.64 444.971 1241.45 443.744C1241.84 443.129 1242.31 442.56 1242.83 442.046C1243.34 441.513 1243.91 441.048 1244.53 440.661C1245.13 440.249 1245.78 439.904 1246.45 439.633C1247.13 439.351 1247.83 439.156 1248.55 439.052C1250.02 438.673 1251.56 438.673 1253.02 439.052C1253.75 439.156 1254.45 439.351 1255.12 439.633C1255.8 439.904 1256.45 440.249 1257.05 440.661C1257.67 441.048 1258.24 441.513 1258.75 442.046C1259.27 442.571 1259.75 443.139 1260.18 443.744C1260.56 444.352 1260.89 444.995 1261.16 445.666C1261.45 446.343 1261.67 447.047 1261.83 447.767C1261.89 448.495 1261.89 449.228 1261.83 449.956C1261.83 451.425 1261.55 452.88 1260.99 454.238C1260.43 455.595 1259.61 456.829 1258.57 457.867C1258.05 458.387 1257.48 458.851 1256.87 459.252C1256.26 459.648 1255.61 459.991 1254.95 460.28C1254.27 460.556 1253.56 460.765 1252.84 460.906C1252.21 461.033 1251.57 461.108 1250.92 461.129Z" fill="white"/>
<path d="M1272.47 461.129C1271.74 461.193 1271.01 461.193 1270.28 461.129C1269.57 460.989 1268.88 460.779 1268.22 460.503C1267.55 460.215 1266.91 459.871 1266.3 459.476C1265.69 459.075 1265.12 458.61 1264.6 458.09C1264.09 457.567 1263.62 456.999 1263.22 456.392C1262.81 455.77 1262.47 455.112 1262.19 454.425C1261.87 453.774 1261.64 453.082 1261.52 452.37C1261.38 451.648 1261.3 450.915 1261.29 450.18C1261.3 449.445 1261.38 448.712 1261.52 447.99C1261.65 447.265 1261.88 446.559 1262.19 445.89C1262.47 445.218 1262.81 444.574 1263.22 443.968C1263.61 443.353 1264.08 442.783 1264.6 442.27C1265.12 441.749 1265.69 441.285 1266.3 440.884C1266.9 440.472 1267.54 440.127 1268.22 439.856C1268.88 439.575 1269.57 439.38 1270.28 439.275C1271.74 438.897 1273.28 438.897 1274.75 439.275C1275.47 439.379 1276.18 439.575 1276.85 439.856C1277.52 440.127 1278.17 440.472 1278.77 440.884C1279.38 441.285 1279.95 441.749 1280.47 442.27C1280.99 442.783 1281.46 443.353 1281.85 443.968C1282.66 445.194 1283.24 446.557 1283.55 447.99C1283.69 448.712 1283.77 449.445 1283.78 450.18C1283.77 450.915 1283.69 451.648 1283.55 452.37C1283.4 453.077 1283.18 453.766 1282.88 454.425C1282.6 455.112 1282.26 455.77 1281.85 456.392C1281.44 456.999 1280.98 457.567 1280.47 458.09C1279.95 458.61 1279.38 459.075 1278.77 459.476C1278.16 459.871 1277.52 460.215 1276.85 460.503C1276.17 460.779 1275.47 460.989 1274.75 461.129C1273.99 461.203 1273.23 461.203 1272.47 461.129Z" fill="white"/>
<path d="M1293.07 461.129C1290.11 461.11 1287.28 459.94 1285.16 457.867C1284.12 456.829 1283.3 455.595 1282.74 454.238C1282.18 452.88 1281.89 451.425 1281.9 449.956C1281.9 446.993 1283.08 444.151 1285.16 442.046C1286.47 440.748 1288.07 439.795 1289.84 439.272C1291.6 438.75 1293.46 438.674 1295.26 439.052C1295.97 439.156 1296.66 439.352 1297.32 439.633C1298.01 439.904 1298.67 440.248 1299.29 440.661C1299.88 441.084 1300.45 441.547 1300.99 442.046C1303.05 444.164 1304.22 446.998 1304.25 449.956C1304.24 452.919 1303.07 455.759 1300.99 457.867C1300.45 458.366 1299.88 458.829 1299.29 459.252C1298.66 459.649 1298 459.992 1297.32 460.28C1296.66 460.556 1295.97 460.765 1295.26 460.906C1294.54 461.046 1293.81 461.121 1293.07 461.129Z" fill="white"/>
<path d="M1313.64 461.129C1312.91 461.195 1312.17 461.195 1311.45 461.129C1310.73 460.989 1310.02 460.779 1309.35 460.503C1308.68 460.205 1308.04 459.862 1307.42 459.476C1306.2 458.667 1305.15 457.618 1304.34 456.392C1303.94 455.77 1303.59 455.112 1303.31 454.425C1303.03 453.765 1302.82 453.075 1302.68 452.37C1302.54 451.648 1302.47 450.915 1302.46 450.18C1302.47 449.445 1302.55 448.712 1302.68 447.99C1302.96 446.551 1303.52 445.183 1304.34 443.968C1304.75 443.363 1305.21 442.795 1305.72 442.27C1306.26 441.77 1306.83 441.308 1307.42 440.884C1308.03 440.481 1308.67 440.137 1309.35 439.856C1310.02 439.575 1310.72 439.379 1311.45 439.275C1313.25 438.897 1315.11 438.973 1316.88 439.496C1318.64 440.018 1320.24 440.972 1321.55 442.27C1323.61 444.388 1324.78 447.221 1324.81 450.18C1324.82 451.649 1324.53 453.104 1323.97 454.462C1323.41 455.821 1322.59 457.055 1321.55 458.093C1320.51 459.132 1319.28 459.955 1317.92 460.514C1316.56 461.074 1315.11 461.358 1313.64 461.353V461.129Z" fill="white"/>
<path d="M250.721 447.409L223.901 484.368C221.188 488.161 219.57 492.627 219.224 497.277C218.879 501.927 219.819 506.583 221.941 510.735C224.064 514.887 227.287 518.375 231.259 520.819C235.232 523.263 239.799 524.567 244.463 524.59H298.103C302.773 524.583 307.351 523.288 311.333 520.848C315.315 518.408 318.546 514.916 320.672 510.759C322.797 506.601 323.734 501.937 323.38 497.281C323.026 492.625 321.394 488.157 318.665 484.368L291.845 447.409C289.479 444.177 286.384 441.548 282.811 439.735C279.239 437.923 275.289 436.978 271.283 436.978C267.277 436.978 263.327 437.923 259.754 439.735C256.182 441.548 253.087 444.177 250.721 447.409Z" fill="#200A40"/>
<path d="M250.721 501.038L197.707 573.795C194.977 577.584 193.345 582.052 192.991 586.708C192.637 591.364 193.574 596.027 195.7 600.185C197.826 604.343 201.057 607.834 205.039 610.274C209.021 612.715 213.599 614.01 218.269 614.017H324.341C329.012 614.01 333.59 612.715 337.571 610.274C341.553 607.834 344.785 604.343 346.91 600.185C349.036 596.027 349.973 591.364 349.619 586.708C349.265 582.052 347.633 577.584 344.903 573.795L291.889 501.038C289.525 497.797 286.428 495.16 282.851 493.342C279.274 491.524 275.318 490.577 271.305 490.577C267.293 490.577 263.337 491.524 259.76 493.342C256.183 495.16 253.086 497.797 250.721 501.038Z" fill="#200A40"/>
<path d="M250.721 573.571L178.799 672.74C176.086 676.533 174.468 680.999 174.122 685.649C173.777 690.299 174.717 694.954 176.839 699.107C178.962 703.259 182.185 706.747 186.157 709.191C190.129 711.634 194.697 712.939 199.361 712.962H343.384C348.047 712.939 352.615 711.634 356.587 709.191C360.559 706.747 363.783 703.259 365.905 699.107C368.028 694.954 368.968 690.299 368.622 685.649C368.276 680.999 366.659 676.533 363.945 672.74L291.889 573.571C289.531 570.322 286.436 567.677 282.858 565.853C279.28 564.029 275.321 563.079 271.305 563.079C267.289 563.079 263.33 564.029 259.753 565.853C256.175 567.677 253.08 570.322 250.721 573.571Z" fill="#200A40"/>
<path d="M932.66 674.215C931.957 674.376 931.236 674.451 930.515 674.439C929.046 674.444 927.591 674.158 926.233 673.598C924.875 673.038 923.641 672.215 922.603 671.176C922.08 670.663 921.616 670.093 921.217 669.478C920.4 668.263 919.838 666.894 919.563 665.456C919.399 664.738 919.324 664.002 919.34 663.266C919.336 661.804 919.622 660.356 920.182 659.006C920.742 657.656 921.565 656.43 922.603 655.4C923.107 654.855 923.678 654.375 924.301 653.97C924.912 653.575 925.555 653.231 926.224 652.943C926.902 652.667 927.606 652.457 928.324 652.317C929.801 652.038 931.318 652.038 932.794 652.317C933.499 652.457 934.188 652.667 934.851 652.943C935.529 653.24 936.186 653.584 936.817 653.97C937.419 654.385 937.974 654.865 938.471 655.4C938.995 655.909 939.474 656.463 939.902 657.054C940.298 657.68 940.642 658.338 940.93 659.02C940.93 659.512 941.243 660.004 941.377 660.495C962.56 624.417 974.516 583.672 976.186 541.87C977.856 500.068 969.188 458.5 950.951 420.847C932.714 383.194 905.47 350.62 871.633 326.009C837.795 301.399 798.409 285.512 756.964 279.756C715.518 274 673.293 278.553 634.027 293.011C594.762 307.469 559.669 331.386 531.858 362.643C504.047 393.901 484.375 431.534 474.587 472.208C464.798 512.882 465.194 555.343 475.739 595.828C476.032 595.358 476.377 594.923 476.768 594.531C477.272 593.999 477.843 593.533 478.466 593.146C479.067 592.734 479.712 592.389 480.388 592.118C481.067 591.842 481.77 591.633 482.489 591.493C484.286 591.132 486.145 591.221 487.899 591.751C489.654 592.281 491.25 593.236 492.547 594.531C493.069 595.029 493.533 595.584 493.932 596.185C494.329 595.595 494.778 595.042 495.273 594.531C496.575 593.228 498.177 592.265 499.939 591.727C501.701 591.189 503.568 591.093 505.375 591.448C506.809 591.765 508.172 592.34 509.398 593.146C510.014 593.544 510.583 594.009 511.097 594.531C511.445 594.889 511.759 595.278 512.036 595.693C512.312 595.278 512.627 594.889 512.974 594.531C513.479 593.999 514.05 593.533 514.673 593.146C515.274 592.734 515.919 592.389 516.595 592.118C517.272 591.828 517.976 591.603 518.696 591.448C520.173 591.168 521.689 591.168 523.166 591.448C523.87 591.61 524.558 591.835 525.222 592.118C525.899 592.389 526.543 592.734 527.144 593.146C528.397 593.937 529.465 594.988 530.273 596.23C530.671 596.832 531.001 597.476 531.257 598.151C531.566 598.821 531.791 599.527 531.927 600.252C532.07 600.973 532.145 601.706 532.151 602.442C532.146 604.651 531.486 606.808 530.255 608.643C529.024 610.477 527.277 611.905 525.234 612.747C523.192 613.589 520.945 613.806 518.779 613.372C516.613 612.938 514.624 611.871 513.064 610.307C512.706 609.95 512.438 609.548 512.125 609.19C511.812 609.548 511.544 609.95 511.186 610.307C510.673 610.83 510.103 611.294 509.488 611.693C508.261 612.499 506.898 613.074 505.465 613.391C504.743 613.534 504.01 613.609 503.274 613.615C500.304 613.598 497.461 612.41 495.363 610.307C494.868 609.797 494.419 609.244 494.022 608.654C493.623 609.255 493.158 609.809 492.636 610.307C492.132 610.84 491.561 611.306 490.937 611.693C490.336 612.105 489.692 612.45 489.015 612.721C487.614 613.356 486.082 613.647 484.545 613.57C483.817 613.638 483.084 613.638 482.355 613.57C481.754 613.444 481.169 613.249 480.612 612.989C495.127 656.12 520.935 694.576 555.35 724.359H888.273C905.194 709.719 920.117 692.92 932.66 674.394V674.215ZM643.9 613.615H613.325C611.347 613.605 609.406 613.07 607.702 612.065C605.998 611.06 604.591 609.621 603.625 607.894C602.663 609.624 601.258 611.066 599.553 612.071C597.848 613.077 595.905 613.61 593.926 613.615H563.217C560.253 613.615 557.411 612.437 555.315 610.342C553.219 608.247 552.042 605.405 552.042 602.442C552.042 599.479 553.219 596.637 555.315 594.541C557.411 592.446 560.253 591.269 563.217 591.269H593.747C595.726 591.274 597.669 591.807 599.374 592.812C601.079 593.818 602.485 595.26 603.447 596.989C604.412 595.263 605.819 593.823 607.523 592.818C609.227 591.813 611.168 591.279 613.146 591.269H643.721C645.455 591.272 647.165 591.678 648.716 592.453C650.267 593.229 651.618 594.353 652.661 595.738C653.7 594.348 655.049 593.22 656.601 592.444C658.153 591.668 659.866 591.266 661.601 591.269H692.131C695.095 591.269 697.937 592.446 700.033 594.541C702.129 596.637 703.306 599.479 703.306 602.442C703.306 605.405 702.129 608.247 700.033 610.342C697.937 612.437 695.095 613.615 692.131 613.615H661.601C659.864 613.625 658.15 613.226 656.596 612.449C655.043 611.673 653.695 610.541 652.661 609.145C651.638 610.509 650.317 611.621 648.799 612.395C647.28 613.17 645.604 613.587 643.9 613.615ZM769.998 665.456C769.858 666.175 769.648 666.878 769.372 667.556C769.074 668.22 768.73 668.862 768.344 669.478C767.93 670.094 767.45 670.664 766.914 671.176C766.409 671.709 765.838 672.175 765.215 672.562C764.614 672.974 763.969 673.319 763.293 673.59C762.63 673.865 761.941 674.075 761.237 674.215C759.763 674.525 758.241 674.525 756.767 674.215C755.328 673.941 753.96 673.379 752.744 672.562C752.12 672.175 751.55 671.709 751.045 671.176C750.548 670.668 750.099 670.114 749.704 669.523C749.28 670.105 748.817 670.657 748.319 671.176C746.216 673.266 743.372 674.439 740.407 674.439C739.67 674.455 738.934 674.38 738.216 674.215C737.512 674.075 736.823 673.865 736.16 673.59C735.469 673.319 734.81 672.974 734.193 672.562C732.982 671.768 731.948 670.734 731.154 669.523C730.13 671.045 728.745 672.29 727.122 673.148C725.5 674.006 723.691 674.449 721.856 674.439H691.326C689.494 674.434 687.691 673.984 686.071 673.127C684.452 672.271 683.064 671.034 682.029 669.523C681.634 670.114 681.185 670.668 680.688 671.176C680.174 671.699 679.604 672.164 678.989 672.562C678.373 672.974 677.713 673.319 677.022 673.59C676.359 673.865 675.671 674.075 674.966 674.215C673.492 674.525 671.97 674.525 670.496 674.215C669.057 673.941 667.689 673.379 666.473 672.562C665.867 672.152 665.298 671.688 664.775 671.176C664.265 670.651 663.801 670.083 663.389 669.478C662.572 668.263 662.01 666.894 661.735 665.456C661.595 664.734 661.52 664.001 661.512 663.266C661.523 660.317 662.695 657.492 664.775 655.4C665.299 654.876 665.868 654.398 666.473 653.97C667.09 653.584 667.732 653.241 668.395 652.943C669.074 652.667 669.777 652.457 670.496 652.317C671.973 652.038 673.489 652.038 674.966 652.317C675.685 652.457 676.389 652.667 677.067 652.943C677.731 653.241 678.373 653.584 678.989 653.97C679.595 654.398 680.163 654.876 680.688 655.4C681.183 655.911 681.632 656.464 682.029 657.054C683.051 655.526 684.434 654.274 686.056 653.409C687.678 652.544 689.488 652.092 691.326 652.093H721.856C723.695 652.092 725.505 652.544 727.127 653.409C728.749 654.274 730.132 655.526 731.154 657.054C731.551 656.464 732 655.911 732.495 655.4C733.017 654.874 733.586 654.396 734.193 653.97C734.81 653.584 735.452 653.241 736.115 652.943C736.794 652.667 737.498 652.457 738.216 652.317C740.024 651.95 741.894 652.04 743.658 652.578C745.422 653.117 747.024 654.087 748.319 655.4C748.814 655.911 749.262 656.464 749.66 657.054C750.059 656.453 750.523 655.898 751.045 655.4C751.55 654.855 752.12 654.375 752.744 653.97C753.355 653.575 753.998 653.231 754.666 652.943C755.344 652.667 756.048 652.457 756.767 652.317C758.239 651.991 759.765 651.991 761.237 652.317C761.941 652.457 762.63 652.667 763.293 652.943C763.976 653.23 764.634 653.574 765.26 653.97C765.867 654.396 766.436 654.874 766.958 655.4C767.468 655.91 767.931 656.463 768.344 657.054C768.757 657.671 769.101 658.33 769.372 659.02C769.648 659.683 769.858 660.372 769.998 661.076C770.138 661.798 770.213 662.531 770.221 663.266C770.216 664.001 770.141 664.735 769.998 665.456ZM889.614 674.394H859.04C857.208 674.392 855.406 673.938 853.792 673.073C852.178 672.208 850.802 670.958 849.787 669.433C849.389 670.048 848.924 670.618 848.401 671.132C847.897 671.665 847.326 672.13 846.703 672.517C846.102 672.929 845.457 673.274 844.781 673.545C844.102 673.821 843.399 674.03 842.68 674.171C841.976 674.331 841.256 674.406 840.534 674.394C839.065 674.404 837.608 674.121 836.249 673.561C834.891 673 833.658 672.175 832.622 671.132C832.285 670.764 831.972 670.376 831.684 669.97C831.395 670.376 831.082 670.764 830.745 671.132C828.643 673.222 825.798 674.396 822.833 674.396C819.868 674.396 817.023 673.222 814.921 671.132C814.437 670.612 813.989 670.059 813.58 669.478C813.17 670.07 812.706 670.624 812.194 671.132C810.1 673.219 807.263 674.392 804.305 674.392C801.347 674.392 798.51 673.219 796.415 671.132C795.891 670.607 795.413 670.039 794.985 669.433C794.596 668.826 794.266 668.183 794.002 667.512C793.692 666.842 793.467 666.136 793.331 665.411C793.021 663.938 793.021 662.416 793.331 660.942C793.466 660.231 793.691 659.54 794.002 658.886C794.266 658.201 794.595 657.543 794.985 656.92C795.413 656.329 795.892 655.775 796.415 655.266C797.593 654.128 799.002 653.258 800.548 652.716C802.093 652.173 803.737 651.972 805.368 652.125C806.998 652.277 808.577 652.781 809.994 653.601C811.412 654.421 812.635 655.538 813.58 656.875C813.982 656.339 814.429 655.758 814.921 655.222C815.456 654.723 816.023 654.26 816.62 653.836C817.246 653.44 817.904 653.096 818.587 652.808C819.25 652.533 819.938 652.323 820.643 652.183C822.115 651.856 823.641 651.856 825.113 652.183C825.832 652.323 826.535 652.533 827.214 652.808C827.877 653.107 828.519 653.45 829.136 653.836C829.741 654.248 830.309 654.712 830.834 655.222C831.171 655.589 831.485 655.977 831.773 656.384C832.061 655.991 832.375 655.618 832.712 655.266C833.999 653.956 835.593 652.988 837.349 652.45C839.106 651.912 840.968 651.82 842.769 652.183C843.488 652.323 844.192 652.533 844.87 652.808C845.538 653.097 846.181 653.441 846.792 653.836C847.407 654.252 847.976 654.732 848.491 655.266C849.013 655.764 849.477 656.319 849.876 656.92C850.891 655.396 852.267 654.146 853.881 653.28C855.495 652.415 857.298 651.961 859.129 651.959H889.525C892.489 651.959 895.331 653.136 897.427 655.232C899.523 657.327 900.7 660.169 900.7 663.132C900.7 666.095 899.523 668.937 897.427 671.032C895.331 673.128 892.489 674.305 889.525 674.305L889.614 674.394Z" fill="#FFEFBC"/>
<path d="M420.178 637.301L401.136 663.49C400.364 664.554 399.896 665.809 399.784 667.119C399.671 668.429 399.918 669.745 400.496 670.926C401.075 672.107 401.965 673.107 403.07 673.821C404.175 674.534 405.453 674.933 406.768 674.975H444.852C446.182 674.965 447.483 674.589 448.613 673.889C449.743 673.188 450.659 672.19 451.259 671.003C451.859 669.817 452.121 668.488 452.016 667.163C451.911 665.837 451.443 664.567 450.663 663.49L431.665 637.301C430.989 636.42 430.12 635.707 429.124 635.216C428.128 634.725 427.032 634.469 425.922 634.469C424.811 634.469 423.716 634.725 422.72 635.216C421.724 635.707 420.854 636.42 420.178 637.301Z" fill="#200A40"/>
<path d="M416.736 665.054L394.386 695.756C393.197 697.448 392.493 699.432 392.35 701.495C392.206 703.557 392.629 705.619 393.572 707.459C394.515 709.299 395.943 710.847 397.701 711.935C399.459 713.023 401.482 713.61 403.549 713.633H448.249C450.298 713.57 452.291 712.954 454.018 711.85C455.745 710.747 457.141 709.196 458.057 707.363C458.974 705.53 459.377 703.484 459.224 701.44C459.071 699.397 458.368 697.433 457.189 695.756L434.839 665.054C433.78 663.656 432.412 662.522 430.842 661.742C429.271 660.961 427.541 660.555 425.787 660.555C424.034 660.555 422.304 660.961 420.733 661.742C419.163 662.522 417.794 663.656 416.736 665.054Z" fill="#200A40"/>
<path d="M416.736 696.561L386.161 738.57C384.982 740.247 384.279 742.211 384.126 744.254C383.973 746.297 384.376 748.344 385.293 750.177C386.21 752.01 387.605 753.561 389.332 754.664C391.059 755.768 393.052 756.384 395.101 756.447H456.206C458.277 756.432 460.305 755.85 462.07 754.766C463.834 753.681 465.269 752.134 466.217 750.293C467.165 748.452 467.592 746.386 467.45 744.32C467.309 742.253 466.604 740.265 465.414 738.57L434.839 696.561C433.786 695.155 432.419 694.014 430.848 693.228C429.277 692.441 427.544 692.032 425.787 692.032C424.03 692.032 422.298 692.441 420.726 693.228C419.155 694.014 417.789 695.155 416.736 696.561Z" fill="#200A40"/>
<path d="M516.506 656.25L497.508 682.394C496.728 683.471 496.26 684.742 496.155 686.067C496.05 687.392 496.312 688.721 496.912 689.908C497.512 691.094 498.428 692.092 499.558 692.793C500.688 693.494 501.989 693.869 503.319 693.879H541.403C542.737 693.878 544.044 693.508 545.181 692.81C546.318 692.113 547.24 691.115 547.845 689.927C548.451 688.74 548.717 687.407 548.613 686.078C548.51 684.749 548.041 683.474 547.259 682.394L528.217 656.25C527.545 655.326 526.664 654.575 525.647 654.057C524.629 653.539 523.503 653.269 522.361 653.269C521.219 653.269 520.094 653.539 519.076 654.057C518.058 654.575 517.178 655.326 516.506 656.25Z" fill="#200A40"/>
<path d="M513.198 684.003L490.848 714.705C489.643 716.393 488.925 718.38 488.773 720.448C488.622 722.516 489.042 724.586 489.988 726.432C490.934 728.277 492.369 729.827 494.137 730.912C495.905 731.997 497.937 732.574 500.011 732.582H544.711C546.785 732.574 548.818 731.997 550.585 730.912C552.353 729.827 553.789 728.277 554.735 726.432C555.681 724.586 556.101 722.516 555.949 720.448C555.798 718.38 555.08 716.393 553.875 714.705L531.525 684.003C530.477 682.554 529.099 681.374 527.506 680.56C525.913 679.747 524.15 679.322 522.361 679.322C520.573 679.322 518.809 679.747 517.216 680.56C515.623 681.374 514.246 682.554 513.198 684.003Z" fill="#200A40"/>
<path d="M513.198 715.554L482.757 757.519C481.578 759.195 480.875 761.159 480.722 763.203C480.569 765.246 480.972 767.293 481.889 769.126C482.806 770.959 484.201 772.509 485.928 773.613C487.655 774.717 489.649 775.333 491.697 775.396H552.936C554.984 775.333 556.978 774.717 558.705 773.613C560.432 772.509 561.827 770.959 562.744 769.126C563.661 767.293 564.064 765.246 563.911 763.203C563.758 761.159 563.055 759.195 561.876 757.519L531.525 715.554C530.47 714.114 529.091 712.942 527.499 712.134C525.907 711.326 524.147 710.905 522.361 710.905C520.576 710.905 518.815 711.326 517.223 712.134C515.631 712.942 514.252 714.114 513.198 715.554Z" fill="#200A40"/>
<path d="M1181.91 459.431L1208.73 496.39C1211.44 500.183 1213.06 504.649 1213.4 509.299C1213.75 513.949 1212.81 518.604 1210.69 522.756C1208.56 526.908 1205.34 530.397 1201.37 532.841C1197.4 535.284 1192.83 536.589 1188.16 536.612H1134.52C1129.86 536.597 1125.28 535.298 1121.3 532.858C1117.33 530.418 1114.1 526.93 1111.97 522.776C1109.84 518.623 1108.9 513.964 1109.24 509.31C1109.58 504.656 1111.2 500.186 1113.92 496.39L1140.74 459.431C1143.1 456.181 1146.19 453.537 1149.77 451.713C1153.35 449.889 1157.31 448.938 1161.32 448.938C1165.34 448.938 1169.3 449.889 1172.87 451.713C1176.45 453.537 1179.55 456.181 1181.91 459.431Z" fill="#200A40"/>
<path d="M1181.91 513.015L1234.96 585.951C1237.68 589.744 1239.3 594.209 1239.64 598.859C1239.99 603.509 1239.05 608.165 1236.92 612.317C1234.8 616.469 1231.58 619.958 1227.61 622.401C1223.63 624.845 1219.07 626.15 1214.4 626.173H1108.29C1103.62 626.15 1099.05 624.845 1095.08 622.401C1091.11 619.958 1087.89 616.469 1085.76 612.317C1083.64 608.165 1082.7 603.509 1083.05 598.859C1083.39 594.209 1085.01 589.744 1087.72 585.951L1140.78 512.971C1143.15 509.732 1146.24 507.099 1149.82 505.284C1153.39 503.47 1157.35 502.527 1161.36 502.531C1165.36 502.535 1169.32 503.487 1172.89 505.309C1176.46 507.131 1179.55 509.772 1181.91 513.015Z" fill="#200A40"/>
<path d="M1181.91 585.951L1254.01 685.12C1256.72 688.913 1258.34 693.378 1258.68 698.028C1259.03 702.678 1258.09 707.334 1255.97 711.486C1253.84 715.638 1250.62 719.127 1246.65 721.57C1242.68 724.014 1238.11 725.319 1233.44 725.342H1089.29C1084.62 725.335 1080.04 724.04 1076.06 721.599C1072.08 719.159 1068.84 715.668 1066.72 711.51C1064.59 707.352 1063.66 702.689 1064.01 698.033C1064.36 693.377 1066 688.909 1068.73 685.12L1140.78 585.951C1143.14 582.702 1146.23 580.057 1149.8 578.233C1153.38 576.409 1157.33 575.458 1161.34 575.458C1165.36 575.458 1169.31 576.409 1172.89 578.233C1176.46 580.057 1179.55 582.702 1181.91 585.951Z" fill="#200A40"/>
<path d="M1014.24 628.899L1033.23 655.088C1034.02 656.168 1034.49 657.443 1034.59 658.772C1034.69 660.101 1034.43 661.433 1033.82 662.621C1033.22 663.809 1032.29 664.807 1031.16 665.504C1030.02 666.201 1028.71 666.571 1027.38 666.573H989.34C988.006 666.571 986.699 666.201 985.562 665.504C984.426 664.807 983.504 663.809 982.898 662.621C982.292 661.433 982.027 660.101 982.13 658.772C982.233 657.443 982.702 656.168 983.484 655.088L1002.53 628.899C1003.2 627.984 1004.09 627.24 1005.1 626.728C1006.12 626.216 1007.24 625.949 1008.38 625.949C1009.52 625.949 1010.64 626.216 1011.66 626.728C1012.68 627.24 1013.56 627.984 1014.24 628.899Z" fill="#200A40"/>
<path d="M1017.55 656.697L1039.89 687.355C1041.07 689.031 1041.78 690.995 1041.93 693.038C1042.08 695.082 1041.68 697.128 1040.76 698.961C1039.85 700.794 1038.45 702.345 1036.72 703.449C1035 704.552 1033 705.168 1030.96 705.231H986.255C984.184 705.216 982.156 704.635 980.391 703.55C978.626 702.465 977.192 700.918 976.244 699.077C975.295 697.236 974.869 695.17 975.01 693.104C975.152 691.037 975.856 689.049 977.047 687.355L999.397 656.697C1000.45 655.282 1001.82 654.133 1003.39 653.342C1004.97 652.55 1006.71 652.138 1008.47 652.138C1010.23 652.138 1011.97 652.55 1013.55 653.342C1015.12 654.133 1016.49 655.282 1017.55 656.697Z" fill="#200A40"/>
<path d="M1017.54 688.159L1048.07 730.213C1049.28 731.901 1050 733.888 1050.15 735.956C1050.3 738.024 1049.88 740.094 1048.93 741.94C1047.99 743.785 1046.55 745.335 1044.79 746.42C1043.02 747.504 1040.99 748.082 1038.91 748.089H977.807C975.733 748.082 973.701 747.504 971.933 746.42C970.165 745.335 968.729 743.785 967.783 741.94C966.837 740.094 966.417 738.024 966.569 735.956C966.721 733.888 967.438 731.901 968.643 730.213L999.218 688.159C1000.27 686.718 1001.65 685.546 1003.24 684.739C1004.84 683.931 1006.6 683.51 1008.38 683.51C1010.17 683.51 1011.93 683.931 1013.52 684.739C1015.11 685.546 1016.49 686.718 1017.54 688.159Z" fill="#200A40"/>
<path d="M434.124 265.338L401.001 255.73L379.233 216.268L388.888 183.152L447.802 150.706L480.925 160.27L495.407 186.593L458.664 206.838L451.333 193.431L444.763 191.419L425.184 202.19L423.217 208.894L430.637 222.301L437.387 224.267L476.544 202.682L509.577 212.424L530.944 251.305L521.378 284.377L462.464 316.822L429.341 307.258L415.261 281.561L452.004 261.316L458.977 274.008L465.637 275.796L485.216 264.981L487.093 258.545L480.031 245.674L473.46 243.663L434.124 265.338Z" fill="#200A40"/>
<path d="M533.581 116.696L598.977 101.412L628.21 119.646L651.723 220.871L633.485 250.099L567.955 265.338L538.722 247.104L515.209 145.88L533.581 116.696ZM585.075 139.891L563.217 144.941L559.507 150.84L576.269 223.15L582.17 226.681L603.938 221.631L607.514 215.91L590.841 143.511L585.075 139.891Z" fill="#200A40"/>
<path d="M712.916 209.475L740.407 209.788V200.849L774.87 201.296L774.334 244.915L661.556 243.306L661.958 208.849H670.898L671.927 124.964H662.763L663.21 90.6863L723.465 91.446L723.108 125.635H713.944L712.916 209.475Z" fill="#200A40"/>
<path d="M872.584 146.058L881.166 112.853L942.405 128.629L933.823 161.834L920.413 158.393L872.45 232.893L880.093 234.859L871.645 267.975L793.018 247.775L801.645 214.391L808.037 216.044L801.958 127.824L790.068 124.785L798.606 91.5801L858.235 106.954L849.698 140.114L844.557 139.042L848.357 192.671L877.411 147.578L872.584 146.058Z" fill="#200A40"/>
<path d="M974.454 280.444L977.449 275.215L1007.26 292.466L986.97 327.503L889.525 271.193L906.824 241.384L914.736 245.853L956.843 173.23L948.931 168.761L966.185 139.042L1063.41 195.352L1043.16 230.256L1013.34 212.961L1016.38 207.732L993.228 194.324L980.757 215.865L986.121 218.994L989.161 213.765L1018.8 230.971L995.553 271.193L965.917 254.031L968.956 248.758L963.548 245.674L951.166 267.036L974.454 280.444Z" fill="#200A40"/>
<path d="M549.315 914.921L541.94 946.204L550.433 948.215L542.923 980.125L487.227 967.075L494.692 935.21L503.185 937.177L521.423 859.459L512.974 857.493L520.395 825.762L566.391 836.533L590.081 910.317L597.814 877.38L589.322 875.414L596.786 843.683L652.616 856.778L645.152 888.508L636.659 886.497L618.421 964.215L626.914 966.226L619.449 998.135L572.604 987.141L549.315 914.921Z" fill="white"/>
<path d="M763.651 1002.34L699.685 1003.32L676.128 980.527L674.743 891.145H666.026L665.535 858.565L722.884 857.672L723.376 890.251H714.436L715.598 965.555L720.381 970.024L741.658 969.667L746.128 965.198L745.145 889.849H736.428L735.937 857.269L793.287 856.375L793.778 888.955H784.838L786.224 978.337L763.651 1002.34Z" fill="white"/>
<path d="M851.083 936.372L823.012 919.479L812.686 877.872L829.583 849.761L891.671 834.343L919.787 851.281L926.671 878.989L887.916 888.642L884.429 874.609L878.887 871.123L858.235 876.442L854.838 882.162L858.369 896.374L864.046 899.815L905.349 889.536L933.42 906.474L943.612 947.411L926.671 975.477L864.583 990.895L836.511 974.002L829.762 946.919L868.516 937.311L871.824 950.718L877.501 953.98L898.152 948.841L901.46 943.344L898.108 929.937L892.565 926.451L851.083 936.372Z" fill="white"/>
<path d="M220.996 361.915H186.04C183.077 361.915 180.234 360.738 178.139 358.643C176.043 356.548 174.865 353.706 174.865 350.743C174.865 347.779 176.043 344.938 178.139 342.842C180.234 340.747 183.077 339.57 186.04 339.57H220.996C223.959 339.57 226.802 340.747 228.898 342.842C230.993 344.938 232.171 347.779 232.171 350.743C232.171 353.706 230.993 356.548 228.898 358.643C226.802 360.738 223.959 361.915 220.996 361.915Z" fill="white"/>
<path d="M242.183 361.96C239.223 361.948 236.388 360.767 234.294 358.675C232.201 356.582 231.02 353.747 231.008 350.787C231.013 347.802 232.203 344.941 234.316 342.832C234.826 342.323 235.379 341.86 235.97 341.447C236.602 341.06 237.259 340.717 237.937 340.419C238.6 340.143 239.289 339.934 239.993 339.793C241.465 339.467 242.991 339.467 244.463 339.793C245.182 339.934 245.885 340.143 246.564 340.419C247.227 340.717 247.87 341.061 248.486 341.447C249.712 342.256 250.761 343.305 251.57 344.531C251.974 345.152 252.318 345.811 252.598 346.497C252.88 347.158 253.09 347.847 253.224 348.553C253.314 349.295 253.314 350.045 253.224 350.787C253.23 352.256 252.945 353.712 252.385 355.07C251.826 356.428 251.003 357.662 249.964 358.701C248.925 359.739 247.691 360.562 246.333 361.122C244.974 361.681 243.518 361.966 242.049 361.96H242.183Z" fill="white"/>
<path d="M164.853 361.96C164.116 361.937 163.383 361.847 162.662 361.692C161.944 361.552 161.24 361.342 160.561 361.066C159.898 360.768 159.256 360.425 158.639 360.038C158.058 359.636 157.477 359.144 156.941 358.698C154.882 356.574 153.715 353.744 153.678 350.787C153.68 347.81 154.852 344.954 156.941 342.832C157.464 342.32 158.033 341.857 158.639 341.447C159.256 341.061 159.898 340.717 160.561 340.419C161.24 340.143 161.944 339.934 162.662 339.793C164.134 339.467 165.66 339.467 167.132 339.793C167.851 339.934 168.555 340.143 169.233 340.419C169.897 340.717 170.539 341.061 171.155 341.447C171.762 341.857 172.331 342.32 172.854 342.832C174.943 344.954 176.115 347.81 176.117 350.787C176.08 353.744 174.912 356.574 172.854 358.698L171.155 360.038C170.539 360.425 169.897 360.768 169.233 361.066C168.555 361.342 167.851 361.552 167.132 361.692C166.383 361.853 165.619 361.942 164.853 361.96Z" fill="white"/>
<path d="M263.371 361.96C262.634 361.934 261.902 361.844 261.181 361.692C260.478 361.545 259.79 361.336 259.124 361.066C258.456 360.778 257.813 360.434 257.202 360.038C256.611 359.624 256.044 359.177 255.504 358.698C253.426 356.587 252.255 353.749 252.241 350.787C252.23 349.311 252.513 347.848 253.073 346.482C253.633 345.116 254.459 343.876 255.504 342.832C256.02 342.312 256.589 341.848 257.202 341.447C257.813 341.052 258.456 340.708 259.124 340.419C259.79 340.15 260.478 339.94 261.181 339.793C262.809 339.453 264.493 339.481 266.109 339.877C267.725 340.273 269.232 341.026 270.518 342.08C271.805 343.135 272.838 344.465 273.543 345.972C274.248 347.478 274.606 349.124 274.591 350.787C274.577 353.749 273.406 356.587 271.327 358.698C269.198 360.774 266.346 361.944 263.371 361.96Z" fill="white"/>
<path d="M317.994 361.96C317.257 361.937 316.524 361.847 315.804 361.692C315.085 361.552 314.381 361.342 313.703 361.066C313.039 360.768 312.397 360.425 311.781 360.038C311.175 359.611 310.607 359.132 310.082 358.608C309.048 357.585 308.227 356.367 307.667 355.025C307.107 353.682 306.818 352.242 306.819 350.787C306.726 350.045 306.726 349.295 306.819 348.553C306.953 347.847 307.163 347.158 307.445 346.497C307.725 345.811 308.069 345.152 308.473 344.531C309.282 343.305 310.331 342.256 311.557 341.447C312.174 341.061 312.816 340.717 313.479 340.419C314.158 340.143 314.861 339.934 315.58 339.793C317.052 339.467 318.578 339.467 320.05 339.793C320.768 339.94 321.471 340.149 322.151 340.419C322.815 340.717 323.457 341.061 324.073 341.447C324.68 341.857 325.249 342.32 325.772 342.832C326.282 343.358 326.745 343.926 327.158 344.531C327.561 345.152 327.905 345.811 328.186 346.497C328.467 347.158 328.677 347.847 328.811 348.553C328.882 349.296 328.882 350.044 328.811 350.787C328.793 353.722 327.621 356.531 325.548 358.608C325.014 359.122 324.447 359.599 323.85 360.038C323.233 360.425 322.591 360.768 321.928 361.066C321.247 361.336 320.544 361.545 319.827 361.692C319.224 361.828 318.611 361.917 317.994 361.96Z" fill="white"/>
<path d="M339.182 361.96C338.445 361.937 337.712 361.847 336.991 361.692C336.273 361.552 335.569 361.342 334.891 361.066C334.227 360.768 333.585 360.425 332.969 360.038C332.375 359.627 331.808 359.18 331.27 358.698C330.759 358.142 330.295 357.544 329.884 356.91C329.464 356.314 329.119 355.668 328.856 354.988C328.58 354.325 328.371 353.637 328.23 352.932C328.094 352.225 328.019 351.507 328.007 350.787C328.01 350.037 328.085 349.289 328.23 348.553C328.365 347.847 328.574 347.158 328.856 346.497C329.141 345.841 329.485 345.213 329.884 344.62C330.285 344.007 330.75 343.437 331.27 342.922C331.784 342.399 332.353 341.934 332.969 341.536C333.585 341.15 334.227 340.807 334.891 340.508C335.569 340.233 336.273 340.023 336.991 339.883C338.464 339.556 339.989 339.556 341.461 339.883C342.18 340.023 342.884 340.233 343.562 340.508C344.226 340.807 344.868 341.15 345.484 341.536C346.1 341.934 346.669 342.399 347.183 342.922C347.735 343.433 348.229 344.002 348.658 344.62C349.062 345.242 349.406 345.9 349.686 346.586C349.968 347.247 350.178 347.936 350.312 348.642C350.382 349.385 350.382 350.133 350.312 350.877C350.373 351.59 350.373 352.308 350.312 353.022C350.172 353.726 349.962 354.415 349.686 355.078C349.423 355.758 349.078 356.403 348.658 356.999C348.247 357.633 347.784 358.231 347.272 358.787C346.735 359.269 346.168 359.717 345.574 360.128C344.957 360.514 344.315 360.857 343.652 361.156C342.973 361.431 342.27 361.641 341.551 361.781C340.769 361.918 339.975 361.978 339.182 361.96Z" fill="white"/>
<path d="M260.287 413.846C257.338 413.83 254.514 412.659 252.419 410.584C251.897 410.07 251.432 409.501 251.034 408.885C250.63 408.279 250.286 407.636 250.006 406.964C249.689 406.297 249.463 405.59 249.335 404.863C249.195 404.142 249.12 403.409 249.112 402.673C249.128 399.704 250.317 396.861 252.419 394.763C254.557 392.758 257.378 391.643 260.309 391.643C263.24 391.643 266.061 392.758 268.198 394.763C270.312 396.872 271.502 399.733 271.506 402.718C271.498 403.453 271.423 404.186 271.283 404.908C271.134 405.63 270.909 406.334 270.612 407.008C270.332 407.68 269.988 408.324 269.584 408.93C269.186 409.545 268.721 410.115 268.198 410.628C266.078 412.686 263.241 413.839 260.287 413.846Z" fill="white"/>
<path d="M279.776 413.846C276.827 413.83 274.003 412.659 271.909 410.584C271.376 410.08 270.91 409.509 270.523 408.885C270.106 408.28 269.746 407.637 269.45 406.964C269.168 406.288 268.958 405.583 268.824 404.863C268.758 404.135 268.758 403.402 268.824 402.673C268.761 401.945 268.761 401.212 268.824 400.484C268.965 399.765 269.174 399.061 269.45 398.383C269.746 397.71 270.106 397.067 270.523 396.461C270.933 395.855 271.397 395.286 271.909 394.763C274.046 392.758 276.867 391.643 279.798 391.643C282.729 391.643 285.55 392.758 287.688 394.763C288.187 395.298 288.65 395.865 289.073 396.461C289.89 397.677 290.453 399.045 290.727 400.484C290.813 401.211 290.813 401.946 290.727 402.673C290.728 405.638 289.554 408.482 287.464 410.584C286.96 411.117 286.389 411.582 285.766 411.969C285.175 412.398 284.528 412.744 283.843 412.997C283.171 413.291 282.466 413.501 281.743 413.623C281.094 413.752 280.436 413.827 279.776 413.846Z" fill="white"/>
<path d="M298.147 413.846C295.938 413.841 293.78 413.182 291.945 411.951C290.111 410.72 288.682 408.973 287.84 406.931C286.998 404.889 286.781 402.643 287.215 400.477C287.649 398.312 288.716 396.323 290.28 394.763C291.588 393.484 293.185 392.54 294.936 392.011C296.687 391.481 298.54 391.383 300.338 391.724C301.051 391.885 301.753 392.094 302.439 392.35C303.121 392.627 303.767 392.987 304.361 393.422C304.975 393.805 305.545 394.255 306.059 394.763C308.15 396.865 309.324 399.709 309.324 402.673C309.324 405.638 308.15 408.482 306.059 410.584C305.545 411.106 304.976 411.571 304.361 411.969C303.764 412.389 303.119 412.734 302.439 412.997C301.767 413.291 301.061 413.501 300.338 413.623C299.616 413.766 298.883 413.84 298.147 413.846Z" fill="white"/>
<path d="M357.106 413.891H317.636C314.673 413.891 311.83 412.714 309.735 410.618C307.639 408.523 306.461 405.681 306.461 402.718C306.461 399.755 307.639 396.913 309.735 394.818C311.83 392.723 314.673 391.545 317.636 391.545H357.106C360.07 391.545 362.912 392.723 365.008 394.818C367.104 396.913 368.281 399.755 368.281 402.718C368.281 405.681 367.104 408.523 365.008 410.618C362.912 412.714 360.07 413.891 357.106 413.891Z" fill="white"/>
<path d="M413.607 413.846C410.644 413.837 407.803 412.665 405.695 410.584C405.162 410.08 404.696 409.509 404.309 408.885C403.503 407.659 402.928 406.296 402.611 404.863C402.443 404.159 402.338 403.441 402.298 402.718C402.314 399.748 403.503 396.905 405.606 394.808C406.918 393.52 408.521 392.568 410.28 392.031C412.038 391.494 413.9 391.389 415.708 391.724C416.407 391.885 417.094 392.094 417.764 392.35C418.45 392.619 419.097 392.98 419.686 393.422C420.308 393.793 420.879 394.244 421.385 394.763C422.425 395.809 423.249 397.051 423.809 398.416C424.369 399.781 424.654 401.243 424.648 402.718C424.714 403.447 424.714 404.18 424.648 404.908C424.499 405.63 424.274 406.334 423.977 407.008C423.697 407.68 423.352 408.324 422.949 408.93C422.562 409.553 422.096 410.124 421.563 410.628C419.44 412.709 416.58 413.865 413.607 413.846Z" fill="white"/>
<path d="M1112.4 403.254H1077.26C1074.3 403.254 1071.46 402.077 1069.36 399.982C1067.27 397.887 1066.09 395.045 1066.09 392.082C1066.09 389.118 1067.27 386.277 1069.36 384.181C1071.46 382.086 1074.3 380.909 1077.26 380.909H1112.49C1115.45 380.909 1118.29 382.086 1120.39 384.181C1122.49 386.277 1123.66 389.118 1123.66 392.082C1123.66 395.045 1122.49 397.887 1120.39 399.982C1118.29 402.077 1115.45 403.254 1112.49 403.254H1112.4Z" fill="white"/>
<path d="M1133.76 403.21C1133.04 403.299 1132.3 403.299 1131.57 403.21C1130.86 403.069 1130.15 402.86 1129.47 402.584C1128.8 402.313 1128.15 401.968 1127.55 401.556C1126.94 401.155 1126.37 400.691 1125.85 400.171C1124.81 399.133 1123.99 397.899 1123.43 396.542C1122.87 395.184 1122.58 393.729 1122.59 392.26C1122.52 391.547 1122.52 390.829 1122.59 390.115C1122.73 389.406 1122.96 388.716 1123.26 388.059C1123.52 387.351 1123.87 386.675 1124.29 386.048C1124.7 385.442 1125.16 384.873 1125.67 384.35C1126.2 383.843 1126.77 383.379 1127.37 382.965C1127.97 382.553 1128.62 382.208 1129.29 381.937C1129.97 381.655 1130.67 381.46 1131.4 381.356C1132.86 380.977 1134.4 380.977 1135.87 381.356C1136.59 381.46 1137.29 381.655 1137.97 381.937C1138.64 382.208 1139.29 382.553 1139.89 382.965C1140.49 383.379 1141.06 383.843 1141.59 384.35C1142.1 384.873 1142.56 385.442 1142.97 386.048C1143.39 386.675 1143.74 387.351 1144 388.059C1144.3 388.716 1144.53 389.406 1144.67 390.115C1144.74 390.829 1144.74 391.547 1144.67 392.26C1144.74 392.989 1144.74 393.722 1144.67 394.45C1144.35 395.883 1143.78 397.246 1142.97 398.472C1142.59 399.096 1142.12 399.667 1141.59 400.171C1141.07 400.691 1140.5 401.155 1139.89 401.556C1139.29 401.968 1138.64 402.313 1137.97 402.584C1137.29 402.86 1136.58 403.069 1135.87 403.21C1135.17 403.292 1134.46 403.292 1133.76 403.21Z" fill="white"/>
<path d="M1055.85 403.21C1055.12 403.278 1054.39 403.278 1053.66 403.21C1052.94 403.069 1052.24 402.86 1051.56 402.584C1050.89 402.313 1050.24 401.968 1049.64 401.556C1049.03 401.144 1048.47 400.68 1047.94 400.171C1047.41 399.666 1046.94 399.096 1046.56 398.472C1045.74 397.257 1045.18 395.889 1044.9 394.45C1044.81 393.723 1044.81 392.988 1044.9 392.26C1044.9 389.296 1046.07 386.452 1048.16 384.35C1048.7 383.853 1049.27 383.391 1049.86 382.965C1050.48 382.586 1051.13 382.243 1051.79 381.937C1052.46 381.655 1053.16 381.46 1053.89 381.356C1055.36 381.03 1056.88 381.03 1058.36 381.356C1059.06 381.467 1059.75 381.662 1060.41 381.937C1061.07 382.243 1061.71 382.586 1062.33 382.965C1062.94 383.379 1063.51 383.843 1064.03 384.35C1066.14 386.448 1067.32 389.291 1067.34 392.26C1067.33 392.996 1067.26 393.729 1067.12 394.45C1066.98 395.169 1066.77 395.872 1066.49 396.551C1066.2 397.224 1065.84 397.867 1065.42 398.472C1065.03 399.096 1064.57 399.666 1064.03 400.171C1063.52 400.691 1062.95 401.155 1062.33 401.556C1061.73 401.968 1061.09 402.313 1060.41 402.584C1059.75 402.854 1059.06 403.063 1058.36 403.21C1057.52 403.293 1056.69 403.293 1055.85 403.21Z" fill="white"/>
<path d="M1155.09 403.21C1152.13 403.182 1149.29 402.013 1147.17 399.947C1145.08 397.845 1143.91 395.001 1143.91 392.037C1143.91 389.073 1145.08 386.229 1147.17 384.127C1147.71 383.635 1148.29 383.188 1148.87 382.741C1149.45 382.294 1150.17 382.071 1150.84 381.713C1151.5 381.432 1152.19 381.237 1152.9 381.132C1154.37 380.806 1155.89 380.806 1157.37 381.132C1158.09 381.237 1158.79 381.432 1159.47 381.713C1160.14 382.071 1160.76 382.339 1161.39 382.741C1161.98 383.167 1162.55 383.63 1163.09 384.127C1163.59 384.661 1164.05 385.229 1164.47 385.825C1164.89 386.452 1165.24 387.127 1165.5 387.836C1165.79 388.495 1166 389.185 1166.13 389.892C1166.29 390.595 1166.37 391.315 1166.35 392.037C1166.34 394.999 1165.17 397.84 1163.09 399.947C1162.56 400.457 1161.99 400.921 1161.39 401.333C1160.17 402.149 1158.8 402.712 1157.37 402.986C1156.61 403.132 1155.85 403.207 1155.09 403.21Z" fill="white"/>
<path d="M1266.88 403.254H1231.66C1228.69 403.254 1225.85 402.077 1223.76 399.982C1221.66 397.887 1220.48 395.045 1220.48 392.082C1220.48 389.118 1221.66 386.277 1223.76 384.181C1225.85 382.086 1228.69 380.909 1231.66 380.909H1266.88C1269.84 380.909 1272.69 382.086 1274.78 384.181C1276.88 386.277 1278.06 389.118 1278.06 392.082C1278.06 395.045 1276.88 397.887 1274.78 399.982C1272.69 402.077 1269.84 403.254 1266.88 403.254Z" fill="white"/>
<path d="M1210.34 403.21C1209.61 403.276 1208.87 403.276 1208.14 403.21C1206.71 402.935 1205.34 402.373 1204.12 401.556C1203.52 401.144 1202.95 400.68 1202.42 400.171C1201.12 398.879 1200.16 397.283 1199.63 395.528C1199.1 393.772 1199.02 391.912 1199.38 390.115C1199.52 389.381 1199.73 388.662 1200.01 387.97C1200.29 387.298 1200.63 386.655 1201.04 386.048C1201.46 385.452 1201.92 384.885 1202.42 384.35C1202.96 383.853 1203.53 383.391 1204.12 382.965C1204.75 382.563 1205.37 382.294 1206.04 381.937C1206.72 381.655 1207.42 381.46 1208.14 381.356C1209.61 380.977 1211.15 380.977 1212.61 381.356C1213.34 381.46 1214.04 381.655 1214.72 381.937C1215.39 382.294 1216.01 382.563 1216.64 382.965C1217.26 383.367 1217.8 383.859 1218.34 384.35C1220.43 386.452 1221.6 389.296 1221.6 392.26C1221.6 395.225 1220.43 398.069 1218.34 400.171C1217.8 400.67 1217.23 401.133 1216.64 401.556C1215.42 402.373 1214.05 402.935 1212.61 403.21C1211.86 403.281 1211.09 403.281 1210.34 403.21Z" fill="white"/>
<path d="M916.881 668.718L935.923 694.907C936.705 695.987 937.174 697.262 937.277 698.592C937.381 699.921 937.115 701.253 936.509 702.441C935.904 703.629 934.982 704.626 933.845 705.324C932.709 706.021 931.401 706.391 930.068 706.393H891.984C890.654 706.383 889.352 706.007 888.222 705.306C887.092 704.606 886.177 703.607 885.576 702.421C884.976 701.235 884.714 699.906 884.819 698.58C884.925 697.255 885.393 695.984 886.173 694.907L905.17 668.718C905.848 667.803 906.73 667.06 907.747 666.548C908.764 666.035 909.887 665.769 911.026 665.769C912.164 665.769 913.287 666.035 914.304 666.548C915.321 667.06 916.204 667.803 916.881 668.718Z" fill="#200A40"/>
<path d="M920.189 696.516L942.539 727.174C943.73 728.869 944.434 730.857 944.576 732.923C944.717 734.99 944.291 737.055 943.342 738.897C942.394 740.738 940.96 742.285 939.195 743.369C937.43 744.454 935.402 745.035 933.331 745.05H888.631C886.582 744.988 884.589 744.372 882.862 743.268C881.135 742.164 879.74 740.614 878.823 738.781C877.906 736.948 877.503 734.901 877.656 732.858C877.809 730.814 878.512 728.85 879.691 727.174L902.041 696.516C903.093 695.102 904.462 693.953 906.037 693.161C907.613 692.37 909.352 691.958 911.115 691.958C912.878 691.958 914.617 692.37 916.193 693.161C917.768 693.953 919.137 695.102 920.189 696.516Z" fill="#200A40"/>
<path d="M920.189 727.979L950.764 770.033C951.959 771.705 952.675 773.671 952.836 775.72C952.997 777.769 952.596 779.824 951.677 781.662C950.757 783.5 949.354 785.053 947.618 786.154C945.882 787.255 943.879 787.861 941.824 787.909H880.585C878.53 787.861 876.527 787.255 874.791 786.154C873.055 785.053 871.651 783.5 870.732 781.662C869.813 779.824 869.412 777.769 869.573 775.72C869.734 773.671 870.45 771.705 871.645 770.033L902.175 727.979C903.235 726.597 904.599 725.479 906.161 724.709C907.723 723.939 909.441 723.538 911.182 723.538C912.923 723.538 914.641 723.939 916.203 724.709C917.765 725.479 919.129 726.597 920.189 727.979Z" fill="#200A40"/>
<path d="M200.255 649.412L137.675 553.863H151.979C157.188 553.868 162.302 552.464 166.778 549.8C171.254 547.136 174.926 543.311 177.405 538.73C179.884 534.149 181.077 528.983 180.858 523.78C180.639 518.576 179.016 513.528 176.162 509.172L122.075 426.628C126.935 426.021 131.562 424.188 135.518 421.301C139.475 418.415 142.632 414.569 144.693 410.127C146.754 405.684 147.651 400.79 147.299 395.906C146.947 391.021 145.358 386.307 142.682 382.205L101.066 318.521C56.4111 386.764 31.2898 463.453 31.2898 544.522C31.3689 595.814 41.419 646.601 60.881 694.058H176.072C181.274 694.058 186.38 692.653 190.849 689.991C195.319 687.329 198.986 683.509 201.463 678.936C203.94 674.362 205.136 669.204 204.923 664.008C204.71 658.811 203.098 653.768 200.255 649.412Z" fill="#200A40"/>
<path d="M1335.9 339.525L1307.91 387.97C1305.4 392.328 1304.06 397.268 1304.04 402.301C1304.03 407.333 1305.32 412.283 1307.81 416.659C1310.29 421.036 1313.88 424.687 1318.21 427.251C1322.54 429.815 1327.47 431.202 1332.5 431.276L1274.39 531.607C1271.86 535.994 1270.52 540.971 1270.52 546.037C1270.52 551.103 1271.85 556.08 1274.38 560.468C1276.92 564.856 1280.56 568.501 1284.95 571.037C1289.33 573.572 1294.31 574.909 1299.38 574.912H1316.68L1250.16 690.17C1247.63 694.557 1246.29 699.534 1246.29 704.6C1246.29 709.666 1247.63 714.643 1250.16 719.032C1252.69 723.42 1256.33 727.065 1260.72 729.6C1265.11 732.135 1270.08 733.472 1275.15 733.475H1344.61C1377.5 672.699 1393.98 604.399 1392.41 535.315C1390.84 466.23 1371.29 398.748 1335.67 339.525H1335.9Z" fill="#200A40"/>
<path d="M249.291 773.072C253.319 769.685 258.526 768.032 263.771 768.476C269.016 768.92 273.871 771.424 277.273 775.44C280.512 779.291 282.107 784.261 281.714 789.278C281.321 794.294 278.971 798.955 275.172 802.255L274.859 802.523C274.676 802.672 274.482 802.807 274.278 802.925C273.426 803.408 272.424 803.551 271.471 803.328C270.518 803.104 269.685 802.529 269.137 801.719L252.867 781.965C251.577 783.539 250.757 785.444 250.497 787.462C250.226 790.378 250.968 793.297 252.598 795.73C254.26 798.168 256.679 799.99 259.482 800.914C260.589 801.025 261.614 801.545 262.358 802.371C263.102 803.198 263.511 804.271 263.505 805.383C263.404 806.361 262.918 807.258 262.156 807.878C261.393 808.498 260.415 808.79 259.437 808.69C254.129 807.963 249.316 805.188 246.027 800.959C242.793 796.816 241.322 791.565 241.932 786.345C242.543 781.125 245.187 776.356 249.291 773.072ZM257.918 777.317L272.356 794.925C273.661 792.667 274.265 790.071 274.09 787.469C273.914 784.866 272.969 782.375 271.372 780.312C269.782 778.387 267.596 777.047 265.159 776.505C262.722 775.963 260.174 776.249 257.918 777.317Z" fill="white"/>
<path d="M270.836 812.087C271.927 812.077 272.984 812.468 273.808 813.184C274.631 813.9 275.164 814.893 275.306 815.975C275.461 819.287 276.756 822.445 278.971 824.913C280.321 826.293 282.021 827.282 283.888 827.773C284.364 827.871 284.856 827.862 285.327 827.746C285.799 827.63 286.239 827.41 286.615 827.103C286.729 827.02 286.825 826.913 286.894 826.789C286.964 826.666 287.005 826.529 287.017 826.388C287.177 825.925 287.177 825.421 287.017 824.958C286.467 822.73 285.48 820.633 284.112 818.79C282.729 816.787 281.589 814.627 280.714 812.355C279.881 809.971 279.726 807.403 280.267 804.936C280.743 803.232 281.67 801.688 282.949 800.467C284.232 799.285 285.772 798.416 287.447 797.927C289.122 797.439 290.887 797.344 292.605 797.652C296.016 798.367 299.133 800.096 301.544 802.612C304.506 805.858 306.368 809.956 306.864 814.321C307.054 815.437 306.814 816.584 306.192 817.529C305.57 818.475 304.612 819.149 303.511 819.416C302.397 819.579 301.262 819.315 300.333 818.676C299.405 818.038 298.752 817.074 298.505 815.975C298.244 813.27 297.187 810.704 295.465 808.601C294.271 807.34 292.705 806.494 290.995 806.187C290.629 806.06 290.237 806.026 289.855 806.088C289.472 806.15 289.111 806.308 288.805 806.545C288.537 806.545 288.492 806.813 288.447 807.126C288.311 807.517 288.311 807.942 288.447 808.333C289.009 810.331 289.933 812.21 291.174 813.874C292.68 816.024 293.883 818.369 294.75 820.846C295.698 823.2 295.917 825.785 295.376 828.265C294.92 830.09 293.978 831.758 292.649 833.091C291.297 834.34 289.67 835.253 287.899 835.757C286.129 836.262 284.265 836.344 282.458 835.996C278.783 835.273 275.416 833.449 272.803 830.767C269.255 826.893 267.127 821.93 266.768 816.69C266.729 815.548 267.129 814.435 267.886 813.579C268.642 812.723 269.698 812.189 270.836 812.087Z" fill="white"/>
<path d="M325.146 830.634C324.344 831.503 323.231 832.019 322.05 832.069C320.869 832.119 319.716 831.699 318.843 830.902L317.368 829.561L302.349 846.275C303.225 847.071 303.749 848.18 303.808 849.361C303.866 850.543 303.454 851.699 302.662 852.577C301.874 853.445 300.777 853.969 299.606 854.036C298.436 854.103 297.286 853.707 296.404 852.934C294.647 851.35 293.59 849.134 293.464 846.771C293.338 844.409 294.154 842.093 295.734 840.331L310.708 823.617L308.965 822.053C308.103 821.259 307.587 820.159 307.528 818.989C307.47 817.818 307.873 816.672 308.652 815.796C309.444 814.947 310.535 814.44 311.695 814.382C312.855 814.323 313.992 814.718 314.865 815.483L316.608 817.048L324.431 808.109C324.843 807.688 325.335 807.352 325.879 807.121C326.422 806.89 327.005 806.769 327.595 806.765C328.185 806.761 328.77 806.874 329.317 807.097C329.863 807.32 330.36 807.649 330.778 808.065C331.64 808.858 332.156 809.959 332.215 811.129C332.273 812.299 331.87 813.446 331.091 814.321L323.269 822.813L324.788 824.153C325.252 824.546 325.63 825.029 325.901 825.573C326.171 826.117 326.328 826.71 326.362 827.317C326.395 827.923 326.304 828.53 326.095 829.1C325.886 829.671 325.563 830.192 325.146 830.634Z" fill="white"/>
<path d="M319.871 847.214L339.36 822.008C340.141 821.334 341.131 820.951 342.162 820.923C343.193 820.896 344.202 821.226 345.018 821.857C345.834 822.489 346.406 823.383 346.638 824.388C346.869 825.393 346.746 826.447 346.289 827.371L337.036 839.348C340.884 839.522 344.584 840.88 347.63 843.237C351.694 846.549 354.304 851.317 354.903 856.525C355.503 861.733 354.045 866.97 350.839 871.119C347.634 875.267 342.934 878.001 337.743 878.736C332.551 879.472 327.277 878.151 323.045 875.056C319.973 872.639 317.699 869.353 316.519 865.627C315.68 866.138 314.696 866.359 313.718 866.255C312.741 866.151 311.825 865.728 311.113 865.051C310.4 864.374 309.931 863.482 309.777 862.511C309.623 861.541 309.793 860.547 310.261 859.683L319.871 847.214ZM326.8 852.577C324.985 854.929 324.152 857.892 324.475 860.845C324.615 862.258 325.039 863.628 325.723 864.872C326.407 866.117 327.336 867.209 328.454 868.085C329.586 868.936 330.877 869.552 332.251 869.897C333.625 870.243 335.055 870.31 336.455 870.096C339.416 869.641 342.089 868.065 343.92 865.694C345.751 863.323 346.599 860.338 346.289 857.359C346.161 855.944 345.742 854.571 345.058 853.326C344.375 852.08 343.442 850.989 342.317 850.121C341.193 849.253 339.901 848.626 338.523 848.279C337.145 847.933 335.711 847.874 334.309 848.108C332.825 848.322 331.398 848.827 330.109 849.594C328.821 850.361 327.696 851.375 326.8 852.577Z" fill="white"/>
<path d="M403.907 894.631C405.402 892.095 407.82 890.237 410.655 889.444C413.491 888.651 416.523 888.985 419.117 890.377C421.71 891.769 423.665 894.111 424.571 896.911C425.477 899.712 425.264 902.754 423.977 905.401C422.549 908.056 420.124 910.035 417.236 910.903C414.348 911.77 411.234 911.455 408.578 910.027C405.922 908.599 403.943 906.174 403.076 903.287C402.208 900.399 402.523 897.286 403.952 894.631H403.907Z" fill="white"/>
<path d="M1011.87 912.507C1011.2 911.169 1010.81 909.714 1010.71 908.224C1010.61 906.734 1010.8 905.238 1011.28 903.823C1011.76 902.408 1012.51 901.101 1013.49 899.976C1014.48 898.851 1015.67 897.931 1017.01 897.268C1018.35 896.605 1019.8 896.211 1021.29 896.111C1022.78 896.01 1024.28 896.204 1025.69 896.681C1027.11 897.158 1028.42 897.91 1029.54 898.892C1030.67 899.875 1031.59 901.069 1032.25 902.407C1033.59 905.11 1033.8 908.233 1032.84 911.091C1031.87 913.949 1029.81 916.307 1027.11 917.647C1024.41 918.986 1021.28 919.197 1018.42 918.233C1015.57 917.269 1013.21 915.21 1011.87 912.507Z" fill="white"/>
<path d="M1121.07 874.52C1121.74 875.478 1122.01 876.661 1121.81 877.813C1121.62 878.966 1120.99 879.998 1120.04 880.687L1096.75 897.089C1096.26 897.465 1095.68 897.725 1095.07 897.849C1094.46 897.973 1093.83 897.957 1093.22 897.804C1092.07 897.557 1091.06 896.864 1090.41 895.876C1089.77 894.888 1089.54 893.686 1089.78 892.531L1096.84 861.247C1097.16 859.827 1097.17 858.356 1096.88 856.931C1096.59 855.505 1096 854.159 1095.14 852.979C1093.66 850.873 1091.44 849.392 1088.93 848.823C1087.51 848.495 1086.04 848.474 1084.62 848.759C1083.19 849.044 1081.84 849.629 1080.66 850.476C1078.57 851.985 1077.08 854.186 1076.46 856.688L1075.74 859.996C1075.48 861.142 1074.77 862.137 1073.77 862.765C1072.78 863.392 1071.57 863.602 1070.43 863.347C1069.28 863.081 1068.28 862.373 1067.66 861.377C1067.03 860.381 1066.82 859.178 1067.07 858.029L1067.83 854.722C1068.84 850.042 1071.59 845.92 1075.52 843.192C1077.73 841.646 1080.24 840.578 1082.89 840.055C1085.54 839.531 1088.26 839.565 1090.9 840.153C1095.58 841.159 1099.7 843.907 1102.43 847.84C1103.98 850.048 1105.06 852.555 1105.59 855.202C1106.12 857.849 1106.1 860.577 1105.51 863.213L1101.04 883.235L1115.04 873.358C1116 872.744 1117.16 872.522 1118.28 872.738C1119.41 872.954 1120.4 873.592 1121.07 874.52Z" fill="white"/>
<path d="M1110.43 853.113C1105.92 848.026 1103.02 841.709 1102.12 834.969C1101.46 831.975 1101.63 828.86 1102.61 825.955C1103.59 823.05 1105.33 820.465 1107.66 818.474C1109.99 816.484 1112.82 815.163 1115.84 814.652C1118.87 814.141 1121.97 814.459 1124.82 815.573C1131.26 817.707 1136.99 821.564 1141.39 826.725C1145.78 831.886 1148.68 838.153 1149.77 844.845C1150.41 847.836 1150.22 850.944 1149.24 853.841C1148.26 856.737 1146.51 859.315 1144.19 861.302C1141.86 863.288 1139.04 864.61 1136.03 865.128C1133.01 865.645 1129.91 865.339 1127.06 864.241C1120.54 862.248 1114.76 858.377 1110.43 853.113ZM1134.61 832.511C1131.39 828.625 1127.15 825.716 1122.37 824.109C1120.9 823.534 1119.32 823.336 1117.75 823.531C1116.19 823.726 1114.7 824.309 1113.43 825.226C1112.27 826.372 1111.42 827.793 1110.96 829.356C1110.5 830.919 1110.44 832.573 1110.79 834.164C1111.6 839.141 1113.8 843.788 1117.14 847.571C1120.32 851.433 1124.54 854.315 1129.29 855.884C1130.77 856.424 1132.35 856.601 1133.91 856.399C1135.46 856.196 1136.95 855.621 1138.23 854.722C1139.32 853.597 1140.11 852.221 1140.54 850.717C1140.97 849.212 1141.02 847.626 1140.69 846.097C1139.99 841.085 1137.88 836.375 1134.61 832.511Z" fill="white"/>
<path d="M1190.31 810.88C1191.13 811.716 1191.59 812.839 1191.59 814.008C1191.59 815.178 1191.13 816.301 1190.31 817.137L1170.55 837.65C1169.93 838.293 1169.13 838.736 1168.26 838.921C1167.39 839.106 1166.48 839.025 1165.65 838.688C1164.82 838.351 1164.11 837.774 1163.62 837.032C1163.12 836.289 1162.86 835.415 1162.86 834.522L1163.8 802.389C1163.85 800.934 1163.58 799.487 1163.02 798.146C1162.45 796.804 1161.61 795.599 1160.54 794.613C1158.69 792.81 1156.24 791.759 1153.66 791.663C1152.2 791.623 1150.76 791.894 1149.42 792.456C1148.07 793.019 1146.87 793.86 1145.88 794.925C1144.09 796.782 1143.04 799.23 1142.93 801.808V805.16C1142.93 806.345 1142.46 807.482 1141.62 808.32C1140.78 809.158 1139.64 809.629 1138.46 809.629C1137.27 809.629 1136.14 809.158 1135.3 808.32C1134.46 807.482 1133.99 806.345 1133.99 805.16V801.808C1134.09 797.007 1136 792.423 1139.35 788.982C1141.22 787.045 1143.48 785.52 1145.97 784.504C1148.46 783.489 1151.14 783.004 1153.83 783.082C1158.64 783.18 1163.22 785.097 1166.66 788.445C1168.6 790.316 1170.13 792.57 1171.14 795.063C1172.16 797.556 1172.64 800.234 1172.56 802.925L1171.98 823.438L1183.83 811.059C1184.23 810.608 1184.73 810.244 1185.28 809.989C1185.83 809.734 1186.42 809.594 1187.03 809.578C1187.64 809.561 1188.24 809.668 1188.8 809.892C1189.37 810.116 1189.88 810.452 1190.31 810.88Z" fill="white"/>
<path d="M1212.61 765.921C1213.54 766.659 1214.13 767.73 1214.26 768.902C1214.4 770.074 1214.06 771.252 1213.33 772.178L1212.84 772.804L1217.67 776.558C1218.43 777.326 1218.88 778.346 1218.95 779.426C1219.02 780.506 1218.69 781.573 1218.03 782.43C1217.37 783.288 1216.42 783.876 1215.36 784.086C1214.3 784.297 1213.19 784.115 1212.26 783.574L1207.43 779.82L1191.96 799.663C1191.38 800.483 1190.5 801.044 1189.5 801.227C1188.37 801.486 1187.19 801.295 1186.19 800.694C1185.2 800.094 1184.48 799.131 1184.19 798.009L1173.23 751.799C1173.25 751.68 1173.25 751.56 1173.23 751.441C1173.3 751.283 1173.3 751.108 1173.23 750.95C1173.23 750.95 1173.23 750.682 1173.23 750.547C1173.18 750.388 1173.18 750.215 1173.23 750.056C1173.23 750.056 1173.23 749.788 1173.23 749.654C1173.23 749.52 1173.23 749.43 1173.23 749.207C1173.23 748.983 1173.23 749.207 1173.23 748.894L1173.59 748.447L1173.86 748.089C1173.99 748.038 1174.1 747.943 1174.17 747.821C1174.17 747.821 1174.44 747.821 1174.58 747.508H1174.84H1175.38H1175.78C1175.78 747.508 1176.01 747.508 1176.05 747.508H1176.5C1176.63 747.486 1176.77 747.486 1176.9 747.508C1177.08 747.484 1177.26 747.484 1177.44 747.508C1177.48 747.532 1177.54 747.545 1177.59 747.545C1177.65 747.545 1177.7 747.532 1177.75 747.508H1178.24H1178.55L1179 747.732H1179.36L1205.02 767.664L1205.51 767.038C1205.83 766.418 1206.29 765.881 1206.86 765.472C1207.43 765.064 1208.09 764.794 1208.78 764.686C1209.47 764.577 1210.18 764.632 1210.84 764.847C1211.51 765.061 1212.12 765.429 1212.61 765.921ZM1184.77 762.167L1190.62 787.015L1200.46 774.368L1184.77 762.167Z" fill="white"/>
</g>
<defs>
<linearGradient id="paint0_linear_53_197" x1="728" y1="17" x2="728" y2="1105" gradientUnits="userSpaceOnUse">
<stop stop-color="#F66D5E"/>
<stop offset="1" stop-color="#F6903F"/>
</linearGradient>
<clipPath id="clip0_53_197">
<rect width="1424" height="1088" fill="white" transform="translate(0 0.5)"/>
</clipPath>
</defs>
</svg>
