<?xml version="1.0" standalone="no"?>
<!DOCTYPE svg PUBLIC "-//W3C//DTD SVG 20010904//EN"
 "http://www.w3.org/TR/2001/REC-SVG-20010904/DTD/svg10.dtd">
<svg version="1.0" xmlns="http://www.w3.org/2000/svg"
 width="300.000000pt" height="300.000000pt" viewBox="0 0 300.000000 300.000000"
 preserveAspectRatio="xMidYMid meet">
<metadata>
Created by potrace 1.10, written by Peter Selinger 2001-2011
</metadata>
<g transform="translate(0.000000,300.000000) scale(0.100000,-0.100000)"
fill="#000000" stroke="none">
<path d="M327 2968 c11 -61 44 -108 75 -108 33 0 77 29 84 55 7 30 -15 93 -26
74 -5 -6 -2 -27 6 -45 11 -27 11 -34 2 -32 -7 2 -12 -3 -10 -10 3 -15 -44 -35
-67 -27 -20 6 -57 65 -42 65 6 0 11 5 11 11 0 5 -4 7 -10 4 -5 -3 -10 -4 -10
-1 0 3 17 14 38 25 20 11 33 20 29 21 -5 0 -17 -5 -27 -10 -13 -7 -21 -7 -25
0 -3 5 -13 10 -20 10 -11 0 -13 -8 -8 -32z"/>
<path d="M553 2988 c6 -4 23 -8 37 -8 14 0 31 4 37 8 8 5 -9 8 -37 8 -28 0
-45 -3 -37 -8z"/>
<path d="M694 2976 c-3 -14 -3 -30 1 -35 8 -14 42 -14 50 -1 9 14 17 12 44
-10 19 -17 21 -23 11 -35 -15 -18 -5 -31 24 -37 10 -2 24 6 33 19 14 21 12 23
-36 55 -37 24 -49 38 -45 51 8 26 -11 21 -30 -8 -20 -30 -42 -24 -26 6 8 15 7
19 -4 19 -9 0 -18 -11 -22 -24z"/>
<path d="M912 2988 c-7 -7 -12 -30 -12 -51 0 -30 7 -45 29 -66 28 -26 29 -30
20 -77 -10 -55 -7 -74 15 -74 20 0 23 6 31 63 6 41 5 47 -10 47 -11 0 -15 5
-11 15 3 9 0 15 -9 15 -20 0 -55 49 -55 77 0 13 5 33 10 44 12 22 9 24 -8 7z"/>
<path d="M941 2974 c-27 -34 -26 -50 4 -79 28 -29 51 -31 85 -8 23 15 24 16
12 0 -8 -9 -22 -19 -33 -22 -10 -4 -19 -10 -19 -15 0 -15 60 11 75 33 19 27
19 78 0 103 -8 10 -15 14 -15 7 0 -6 5 -15 10 -18 14 -8 13 -65 -1 -65 -6 0
-8 7 -5 16 6 16 -9 54 -28 66 -24 17 -65 8 -85 -18z m94 -8 c32 -48 -22 -104
-74 -76 -20 10 -26 27 -21 60 6 45 69 56 95 16z"/>
<path d="M993 2973 c-7 -3 -13 -12 -13 -22 0 -9 -5 -22 -11 -28 -6 -6 -8 -16
-4 -22 4 -8 15 -4 31 11 33 32 31 73 -3 61z"/>
<path d="M1258 2995 c-12 -19 4 -63 34 -92 23 -22 38 -28 74 -28 39 0 50 5 75
33 21 23 29 42 28 65 l-2 32 -4 -30 c-7 -46 -23 -54 -18 -9 4 37 4 38 -4 7 -5
-18 -15 -41 -22 -50 -13 -16 -12 -17 4 -4 12 9 17 10 17 2 0 -7 -16 -19 -36
-27 -28 -12 -43 -13 -69 -4 -42 14 -57 32 -64 78 -4 20 -9 32 -13 27z"/>
<path d="M1281 2980 c-1 -14 6 -35 14 -47 17 -24 72 -47 80 -32 4 5 -4 9 -17
9 -34 0 -55 19 -66 60 -9 30 -10 31 -11 10z"/>
<path d="M1300 2984 c0 -28 36 -64 64 -64 21 0 56 27 56 44 0 4 -7 14 -15 22
-13 14 -15 14 -15 1 0 -9 6 -17 13 -20 23 -7 -14 -38 -42 -35 -18 2 -31 14
-43 38 -14 26 -18 30 -18 14z"/>
<path d="M1827 2968 c11 -61 44 -108 75 -108 33 0 77 29 84 55 7 30 -15 93
-26 74 -5 -6 -2 -27 6 -45 11 -27 11 -34 2 -32 -7 2 -12 -3 -10 -10 3 -15 -44
-35 -67 -27 -17 5 -51 55 -51 74 0 6 17 19 38 30 20 11 33 20 29 21 -5 0 -17
-5 -27 -10 -13 -7 -21 -7 -25 0 -3 5 -13 10 -20 10 -11 0 -13 -8 -8 -32z"/>
<path d="M2053 2988 c6 -4 23 -8 37 -8 14 0 31 4 37 8 8 5 -9 8 -37 8 -28 0
-45 -3 -37 -8z"/>
<path d="M2194 2976 c-3 -14 -3 -30 1 -35 8 -14 42 -14 50 -1 9 14 17 12 44
-10 19 -17 21 -23 11 -35 -15 -18 -5 -31 24 -37 10 -2 24 6 33 19 14 21 12 23
-36 55 -37 24 -49 38 -45 51 8 26 -11 21 -30 -8 -20 -30 -42 -24 -26 6 8 15 7
19 -4 19 -9 0 -18 -11 -22 -24z"/>
<path d="M2412 2988 c-7 -7 -12 -30 -12 -51 0 -30 7 -45 29 -66 28 -26 29 -30
20 -77 -10 -55 -7 -74 15 -74 20 0 23 6 31 63 6 41 5 47 -10 47 -11 0 -15 5
-11 15 3 9 0 15 -9 15 -20 0 -55 49 -55 77 0 13 5 33 10 44 12 22 9 24 -8 7z"/>
<path d="M2441 2974 c-27 -34 -26 -50 4 -79 28 -29 51 -31 85 -8 23 15 24 16
12 0 -8 -9 -22 -19 -33 -22 -10 -4 -19 -10 -19 -15 0 -15 60 11 75 33 20 28
19 78 -1 103 -15 19 -16 19 -8 -1 14 -41 16 -75 4 -75 -7 0 -10 7 -6 16 6 16
-9 54 -28 66 -24 17 -65 8 -85 -18z m94 -8 c32 -48 -22 -104 -74 -76 -20 10
-26 27 -21 60 6 45 69 56 95 16z"/>
<path d="M2493 2973 c-7 -3 -13 -12 -13 -22 0 -9 -5 -22 -11 -28 -6 -6 -8 -16
-4 -22 4 -8 15 -4 31 11 33 32 31 73 -3 61z"/>
<path d="M2758 2995 c-12 -19 4 -63 34 -92 23 -22 38 -28 74 -28 39 0 50 5 75
33 21 23 29 42 28 65 l-2 32 -4 -30 c-7 -46 -23 -54 -18 -9 4 37 4 38 -4 7 -5
-18 -15 -41 -22 -50 -13 -16 -12 -17 4 -4 12 9 17 10 17 2 0 -7 -16 -19 -36
-27 -28 -12 -43 -13 -69 -4 -42 14 -57 32 -64 78 -4 20 -9 32 -13 27z"/>
<path d="M2781 2980 c-1 -34 22 -66 59 -78 41 -15 38 -6 -4 12 -26 11 -36 23
-44 52 -8 31 -10 34 -11 14z"/>
<path d="M2800 2984 c0 -28 36 -64 64 -64 21 0 56 27 56 44 0 4 -7 14 -15 22
-13 14 -15 14 -15 1 0 -9 6 -17 13 -20 23 -7 -14 -38 -42 -35 -18 2 -31 14
-43 38 -14 26 -18 30 -18 14z"/>
<path d="M181 2976 c-7 -8 -10 -20 -6 -26 4 -7 -2 -7 -19 0 -21 8 -27 6 -36
-10 -17 -32 -13 -53 10 -47 23 6 37 -10 22 -25 -6 -6 -12 -6 -16 1 -14 23 -36
11 -36 -19 0 -21 5 -30 16 -30 11 0 14 -5 10 -16 -4 -9 -1 -23 5 -30 17 -21
50 -17 56 6 3 12 12 19 22 18 10 -2 17 5 19 19 3 19 8 21 31 17 21 -4 30 -1
35 11 8 22 -12 48 -32 40 -11 -4 -13 0 -9 15 4 14 0 24 -11 28 -10 4 -17 18
-17 32 0 29 -26 38 -44 16z m29 -31 c-11 -14 -10 -17 8 -22 15 -3 22 -13 22
-29 0 -17 6 -24 20 -24 11 0 20 -7 20 -15 0 -17 -26 -21 -32 -4 -6 17 -40 -2
-35 -21 3 -11 -2 -16 -17 -16 -15 1 -21 -5 -21 -19 0 -11 -7 -20 -15 -20 -10
0 -14 8 -12 23 1 17 -4 25 -18 29 -12 3 -20 14 -20 25 0 17 2 18 16 8 12 -11
18 -10 31 3 21 21 9 51 -17 44 -21 -6 -25 0 -11 21 5 9 17 11 34 6 22 -5 27
-3 27 13 0 25 11 36 23 24 7 -7 6 -16 -3 -26z"/>
<path d="M1681 2976 c-7 -8 -10 -20 -6 -26 4 -7 -2 -7 -19 0 -21 8 -27 6 -36
-10 -17 -32 -13 -53 10 -47 23 6 37 -10 22 -25 -6 -6 -12 -6 -16 1 -14 23 -36
11 -36 -19 0 -21 5 -30 16 -30 11 0 14 -5 10 -16 -4 -9 -1 -23 5 -30 17 -21
50 -17 56 6 3 12 12 19 22 18 10 -2 17 5 19 19 3 19 8 21 31 17 21 -4 30 -1
35 11 8 22 -12 48 -32 40 -11 -4 -13 0 -9 15 4 14 0 24 -11 28 -10 4 -17 18
-17 32 0 29 -26 38 -44 16z m34 -6 c4 -6 1 -18 -6 -26 -10 -12 -9 -16 9 -21
15 -3 22 -13 22 -29 0 -17 6 -24 20 -24 11 0 20 -7 20 -15 0 -17 -26 -21 -32
-4 -6 17 -40 -2 -35 -21 3 -11 -2 -16 -17 -16 -15 1 -21 -5 -21 -19 0 -11 -7
-20 -15 -20 -10 0 -14 8 -12 23 1 17 -4 25 -18 29 -12 3 -20 14 -20 25 0 17 2
18 16 8 12 -11 18 -10 31 3 21 21 9 51 -17 44 -21 -6 -25 0 -11 21 5 9 17 11
34 6 24 -5 27 -3 27 20 0 26 13 35 25 16z"/>
<path d="M390 2958 c1 -18 25 -48 39 -48 13 0 15 13 4 24 -5 4 -8 13 -8 19 0
7 -8 13 -17 15 -10 2 -18 -2 -18 -10z"/>
<path d="M1134 2943 c-7 -28 4 -54 27 -62 9 -3 8 1 -4 13 -22 22 -22 45 1 62
16 13 16 13 0 14 -11 0 -20 -10 -24 -27z"/>
<path d="M1193 2959 c9 -5 17 -19 17 -31 0 -11 -8 -27 -17 -34 -17 -12 -17
-13 -1 -14 10 0 22 10 29 21 14 27 -3 69 -28 69 -17 -1 -17 -1 0 -11z"/>
<path d="M1890 2958 c1 -18 25 -48 39 -48 13 0 15 13 4 24 -5 4 -8 13 -8 19 0
7 -8 13 -17 15 -10 2 -18 -2 -18 -10z"/>
<path d="M2634 2943 c-7 -28 4 -54 27 -62 9 -3 8 1 -4 13 -22 22 -22 45 1 62
16 13 16 13 0 14 -11 0 -20 -10 -24 -27z"/>
<path d="M2693 2959 c9 -5 17 -19 17 -31 0 -11 -8 -27 -17 -34 -17 -12 -17
-13 -1 -14 10 0 22 10 29 21 14 27 -3 69 -28 69 -17 -1 -17 -1 0 -11z"/>
<path d="M20 2935 c-6 -15 -13 -32 -17 -38 -3 -5 0 -8 8 -5 13 4 32 58 24 66
-2 3 -9 -8 -15 -23z"/>
<path d="M1516 2928 c-16 -31 -14 -51 3 -32 10 10 24 64 17 64 -3 0 -12 -14
-20 -32z"/>
<path d="M600 2911 c0 -17 31 -74 37 -68 2 3 0 14 -6 25 -6 11 -8 22 -5 24 2
3 -2 11 -11 18 -11 9 -15 9 -15 1z"/>
<path d="M2100 2911 c0 -17 31 -74 37 -68 2 3 0 14 -6 25 -6 11 -8 22 -5 24 2
3 -2 11 -11 18 -11 9 -15 9 -15 1z"/>
<path d="M1442 2823 c-11 -19 3 -57 31 -85 12 -13 17 -34 17 -70 0 -76 9 -87
57 -64 91 42 100 68 39 104 -18 11 -43 34 -56 53 -13 18 -19 29 -12 25 7 -4
12 -2 12 3 0 6 -4 11 -9 11 -5 0 -11 9 -14 20 -6 25 -52 27 -65 3z m49 -5 c0
-7 2 -20 4 -29 2 -12 -3 -15 -21 -11 -34 6 -32 52 3 52 7 0 13 -6 14 -12z m51
-125 c-25 -21 -36 -15 -48 22 -9 30 -9 37 4 44 11 6 21 0 37 -23 20 -28 21
-32 7 -43z m61 -22 c4 9 6 10 6 2 1 -14 -69 -53 -94 -53 -22 0 -20 50 3 50 9
0 26 7 37 15 17 14 20 13 31 -6 8 -17 13 -19 17 -8z"/>
<path d="M2942 2823 c-11 -19 4 -61 28 -80 9 -7 17 -36 21 -75 l6 -63 1 55 c1
30 -2 62 -7 70 -6 8 -7 19 -3 25 14 22 9 32 -15 27 -21 -4 -24 -1 -21 19 4 29
34 38 41 12 4 -14 5 -13 6 5 1 17 -4 22 -24 22 -13 0 -28 -8 -33 -17z"/>
<path d="M1 2797 c0 -21 2 -36 6 -34 5 3 18 -11 31 -30 l22 -35 -30 -11 c-16
-6 -30 -15 -30 -19 0 -9 27 0 57 19 19 13 22 12 28 -8 6 -17 9 -19 16 -8 6 10
9 10 9 2 0 -14 -70 -53 -95 -53 -15 0 -20 -12 -9 -23 7 -7 66 16 101 38 29 19
20 49 -21 73 -18 11 -43 34 -56 53 -13 18 -19 29 -12 25 7 -4 12 -2 12 3 0 6
-4 11 -9 11 -5 0 -12 8 -14 18 -3 9 -5 0 -6 -21z"/>
<path d="M425 2800 c-64 -26 -90 -50 -67 -64 12 -7 161 50 192 74 l25 20 -40
-1 c-22 -1 -71 -14 -110 -29z"/>
<path d="M1137 2806 c-61 -36 -64 -42 -37 -71 13 -13 32 -27 43 -31 14 -4 18
-12 14 -32 -6 -29 10 -82 24 -82 17 0 109 50 109 59 0 16 -51 71 -66 71 -9 0
-14 11 -14 33 0 45 -10 77 -24 76 -6 0 -28 -11 -49 -23z m63 -14 c0 -5 -12
-15 -27 -22 -16 -8 -35 -20 -45 -28 -11 -10 -18 -10 -23 -2 -4 6 -5 12 -4 14
55 38 99 55 99 38z m-10 -47 c0 -20 -5 -25 -24 -25 -47 0 -36 25 22 49 1 1 2
-10 2 -24z m48 -45 c33 -20 40 -34 22 -45 -5 -3 -10 -1 -10 4 0 6 -11 11 -25
11 -29 0 -45 -28 -24 -41 8 -5 11 -9 7 -9 -3 0 -13 -3 -22 -6 -13 -5 -16 2
-16 44 0 45 6 58 30 61 3 1 20 -8 38 -19z"/>
<path d="M1925 2800 c-64 -26 -90 -50 -67 -64 12 -7 161 50 192 74 l25 20 -40
-1 c-22 -1 -71 -14 -110 -29z"/>
<path d="M2637 2806 c-61 -36 -64 -42 -37 -71 13 -13 32 -27 42 -31 15 -4 18
-12 14 -29 -7 -26 11 -85 25 -85 17 0 109 50 109 59 0 16 -51 71 -66 71 -9 0
-14 11 -14 33 0 45 -10 77 -24 76 -6 0 -28 -11 -49 -23z m63 -14 c0 -5 -12
-15 -27 -22 -16 -8 -35 -20 -45 -28 -11 -10 -18 -10 -23 -2 -4 6 -5 12 -4 14
55 38 99 55 99 38z m-10 -47 c0 -20 -5 -25 -24 -25 -47 0 -36 25 22 49 1 1 2
-10 2 -24z m48 -45 c33 -20 40 -34 22 -45 -5 -3 -10 -1 -10 4 0 14 -47 14 -55
1 -4 -6 -1 -17 5 -25 7 -8 10 -15 7 -15 -3 0 -12 -3 -21 -6 -13 -5 -16 2 -16
44 0 45 6 58 30 61 3 1 20 -8 38 -19z"/>
<path d="M693 2807 c-41 -21 -60 -90 -37 -135 14 -27 52 -57 61 -48 3 3 11 2
18 -4 17 -14 87 10 93 32 2 10 8 18 12 18 9 0 23 40 20 55 -1 6 -3 15 -4 22
-4 24 -38 51 -69 56 -18 3 -41 7 -52 10 -11 3 -30 0 -42 -6z m60 -55 c-2 -26
-9 -51 -14 -56 -5 -6 -9 -20 -9 -32 0 -12 -6 -24 -14 -27 -32 -13 -78 91 -50
114 8 6 14 17 14 23 0 15 40 33 62 28 13 -3 15 -13 11 -50z m73 23 c23 -22 25
-66 4 -100 -16 -27 -62 -55 -88 -55 -5 0 2 46 19 118 11 44 16 52 34 50 11 -2
25 -8 31 -13z"/>
<path d="M700 2763 c-13 -15 -12 -16 2 -11 18 7 32 -16 22 -35 -5 -9 -4 -9 5
-1 10 9 10 17 2 32 -8 15 -8 22 2 25 8 4 7 6 -3 6 -8 0 -22 -7 -30 -16z"/>
<path d="M788 2703 c-10 -2 -18 -8 -19 -11 -6 -49 -5 -51 8 -41 7 6 10 16 7
21 -4 6 0 14 7 19 8 5 17 3 21 -4 5 -8 8 -6 8 6 0 17 -2 18 -32 10z"/>
<path d="M2193 2807 c-41 -21 -60 -90 -37 -135 14 -27 52 -57 61 -48 3 3 11 2
18 -4 17 -14 87 10 93 32 2 10 8 18 12 18 9 0 23 40 20 55 -1 6 -3 15 -4 22
-4 24 -38 51 -69 56 -18 3 -41 7 -52 10 -11 3 -30 0 -42 -6z m60 -55 c-2 -26
-9 -51 -14 -56 -5 -6 -9 -20 -9 -32 0 -12 -6 -24 -14 -27 -32 -13 -78 91 -50
114 8 6 14 17 14 23 0 15 40 33 62 28 13 -3 15 -13 11 -50z m73 23 c23 -22 25
-66 4 -100 -16 -27 -62 -55 -88 -55 -5 0 2 46 19 118 11 44 16 52 34 50 11 -2
25 -8 31 -13z"/>
<path d="M2200 2763 c-13 -15 -12 -16 2 -11 18 7 32 -16 22 -35 -5 -9 -4 -9 5
-1 10 9 10 17 2 32 -8 15 -8 22 2 25 8 4 7 6 -3 6 -8 0 -22 -7 -30 -16z"/>
<path d="M2288 2703 c-10 -2 -18 -8 -19 -11 0 -4 -2 -18 -5 -31 -4 -20 -2 -22
11 -11 8 7 12 17 9 22 -4 6 0 14 7 19 8 5 17 3 21 -4 5 -8 8 -6 8 6 0 17 -2
18 -32 10z"/>
<path d="M1308 2773 c-16 -4 -17 -7 -3 -34 16 -31 51 -45 84 -34 27 8 26 20
-4 50 -23 24 -40 28 -77 18z m74 -34 c11 -11 14 -20 8 -24 -6 -3 -10 -1 -10 6
0 9 -4 9 -15 -1 -18 -15 -35 -5 -35 23 0 18 -2 19 -10 7 -5 -8 -10 -10 -10 -4
0 28 43 24 72 -7z"/>
<path d="M2808 2773 c-16 -4 -17 -7 -3 -34 16 -31 51 -45 84 -34 27 8 26 20
-4 50 -23 24 -40 28 -77 18z m74 -34 c11 -11 14 -20 8 -24 -6 -3 -10 -1 -10 6
0 9 -4 9 -15 -1 -18 -15 -35 -5 -35 23 0 18 -2 19 -10 7 -5 -8 -10 -10 -10 -4
0 28 43 24 72 -7z"/>
<path d="M229 2703 c-13 -15 -12 -15 8 -4 19 10 25 8 40 -9 20 -23 33 -26 33
-7 0 13 -39 37 -59 37 -5 0 -15 -7 -22 -17z"/>
<path d="M1729 2703 c-13 -15 -12 -15 10 -3 22 11 27 11 39 -9 16 -23 32 -28
32 -10 0 15 -31 38 -51 39 -9 0 -23 -7 -30 -17z"/>
<path d="M902 2654 c-18 -13 -21 -19 -11 -30 9 -11 15 -12 26 -3 7 7 17 9 21
5 4 -4 -3 -16 -15 -26 -26 -21 -31 -50 -8 -50 23 0 65 49 65 75 0 14 -8 29
-19 35 -26 13 -33 13 -59 -6z"/>
<path d="M2402 2654 c-18 -13 -21 -19 -11 -30 9 -11 15 -12 26 -3 7 7 17 9 21
5 4 -4 -3 -16 -15 -26 -25 -20 -31 -50 -10 -51 6 0 1 -5 -12 -10 -22 -9 -23
-11 -9 -26 19 -18 38 -10 38 18 0 11 11 31 25 45 30 30 33 69 6 84 -26 13 -33
13 -59 -6z"/>
<path d="M199 2643 c-1 -5 -1 -11 0 -15 0 -4 -10 -15 -24 -24 -28 -18 -33 -49
-10 -58 8 -3 15 -17 15 -31 0 -27 31 -48 38 -27 5 16 20 15 38 -2 9 -10 11
-17 4 -21 -8 -5 -8 -11 0 -20 6 -8 10 -22 8 -32 -2 -11 3 -18 12 -18 8 0 20
-6 26 -14 11 -14 39 -6 29 8 -2 5 7 13 20 19 25 12 34 32 14 32 -6 0 -9 9 -6
20 5 20 -15 45 -27 33 -4 -4 -10 -3 -14 3 -4 7 -15 8 -27 3 -11 -4 -14 -8 -7
-8 7 -1 10 -6 7 -12 -5 -7 -16 -3 -31 12 -20 19 -30 20 -61 7 -3 -2 -7 4 -9
12 -1 8 -5 23 -9 33 -5 12 -2 17 10 17 12 0 15 -5 10 -20 -7 -22 10 -28 19 -7
5 10 7 10 12 0 8 -18 27 -16 20 2 -4 10 1 15 15 15 17 0 18 -3 8 -21 -11 -21
-11 -21 15 -3 28 21 36 64 11 64 -9 0 -14 8 -12 23 2 18 -2 22 -25 20 -16 -1
-28 2 -28 8 0 11 -39 12 -41 2z m36 -13 c4 -6 15 -8 25 -5 15 5 19 0 22 -22 2
-16 8 -27 16 -25 6 1 12 -5 12 -13 0 -8 -4 -15 -10 -15 -5 0 -10 5 -10 10 0 6
-7 10 -16 10 -11 0 -14 6 -9 20 7 22 -10 28 -19 8 -5 -10 -7 -10 -12 0 -9 18
-25 15 -22 -5 2 -12 -3 -17 -14 -15 -10 2 -18 -2 -18 -8 0 -5 -4 -10 -10 -10
-5 0 -10 7 -10 15 0 8 7 15 15 15 9 0 21 11 27 25 12 27 23 31 33 15z m103
-187 c5 -17 -26 -29 -40 -15 -6 6 -7 15 -3 22 9 14 37 9 43 -7z"/>
<path d="M470 2630 c-39 -39 -20 -102 36 -116 13 -4 29 -15 35 -25 13 -26 55
-25 62 1 3 11 -1 27 -9 34 -8 8 -14 32 -14 54 0 66 -65 97 -110 52z m84 -6
c17 -17 21 -80 7 -103 -9 -15 -41 -9 -78 15 -31 19 -31 67 -1 88 29 20 52 20
72 0z"/>
<path d="M502 2594 c-30 -21 -28 -29 16 -53 l37 -22 -35 31 c-20 17 -27 27
-16 23 13 -4 17 -3 12 5 -5 8 -2 10 8 6 8 -3 18 -15 22 -26 9 -30 15 -15 8 20
-7 36 -19 39 -52 16z"/>
<path d="M1699 2643 c-1 -5 -1 -11 0 -15 0 -4 -10 -15 -24 -24 -28 -18 -33
-49 -10 -58 8 -3 15 -17 15 -31 0 -27 31 -48 38 -27 5 16 20 15 38 -2 9 -10
11 -17 4 -21 -8 -5 -8 -11 0 -20 6 -8 10 -22 8 -32 -2 -11 3 -18 12 -18 8 0
20 -6 26 -14 11 -14 39 -6 29 8 -2 5 7 13 20 19 25 12 34 32 14 32 -6 0 -9 9
-6 20 5 20 -15 45 -27 33 -4 -4 -10 -3 -14 3 -4 7 -15 8 -27 3 -11 -4 -14 -8
-7 -8 7 -1 10 -6 7 -12 -5 -7 -16 -3 -31 12 -20 19 -30 20 -61 7 -3 -2 -7 4
-9 12 -1 8 -5 23 -9 33 -5 12 -2 17 10 17 12 0 15 -5 10 -20 -7 -22 10 -28 19
-7 5 10 7 10 12 0 8 -18 27 -16 20 2 -4 10 1 15 15 15 17 0 18 -3 8 -21 -11
-21 -11 -21 15 -3 29 21 35 64 10 64 -11 0 -14 5 -10 16 4 9 1 23 -5 30 -9 12
-15 12 -27 2 -12 -10 -16 -10 -19 0 -5 13 -42 17 -44 5z m36 -13 c4 -6 15 -8
25 -5 15 5 19 0 22 -22 2 -16 8 -27 16 -25 6 1 12 -5 12 -13 0 -8 -4 -15 -10
-15 -5 0 -10 5 -10 10 0 6 -7 10 -16 10 -11 0 -14 6 -9 20 7 22 -10 28 -19 8
-5 -10 -7 -10 -12 0 -9 18 -25 15 -22 -5 2 -12 -3 -17 -14 -15 -10 2 -18 -2
-18 -8 0 -5 -4 -10 -10 -10 -5 0 -10 7 -10 15 0 8 7 15 15 15 9 0 21 11 27 25
12 27 23 31 33 15z m103 -187 c5 -17 -26 -29 -40 -15 -6 6 -7 15 -3 22 9 14
37 9 43 -7z"/>
<path d="M1970 2630 c-39 -39 -20 -102 36 -116 13 -4 29 -15 35 -25 13 -26 55
-25 62 1 3 11 -1 27 -9 34 -8 8 -14 32 -14 54 0 66 -65 97 -110 52z m84 -6
c17 -17 21 -80 7 -103 -9 -15 -41 -9 -78 15 -31 19 -31 67 -1 88 29 20 52 20
72 0z"/>
<path d="M2002 2594 c-30 -21 -28 -29 16 -53 l37 -22 -35 31 c-20 17 -27 27
-16 23 13 -4 17 -3 12 5 -5 8 -2 10 8 6 8 -3 18 -15 22 -26 9 -30 15 -15 8 20
-7 36 -19 39 -52 16z"/>
<path d="M1361 2586 c-21 -25 -9 -51 24 -52 47 -1 84 -14 79 -29 -7 -16 23
-46 40 -39 20 8 38 -42 24 -66 -17 -27 13 -60 40 -44 25 16 28 54 4 61 -22 5
-45 46 -46 83 -1 19 -7 25 -26 26 -40 2 -70 18 -83 44 -15 30 -39 36 -56 16z
m39 -11 c13 -16 6 -35 -15 -35 -18 0 -28 17 -21 35 7 19 20 19 36 0z m120 -75
c0 -11 -4 -20 -10 -20 -5 0 -7 7 -4 15 5 11 2 13 -10 9 -9 -3 -13 -11 -9 -18
4 -8 2 -8 -7 1 -16 14 -5 33 21 33 12 0 19 -7 19 -20z m58 -111 c2 -9 -5 -20
-15 -23 -14 -6 -16 -5 -5 5 19 20 14 31 -8 19 -11 -6 -20 -7 -20 -2 0 27 43
27 48 1z"/>
<path d="M2861 2586 c-21 -25 -9 -51 24 -52 41 -1 86 -14 80 -24 -8 -12 5 -38
21 -44 9 -3 14 1 14 14 0 11 -5 20 -11 20 -5 0 -7 -6 -3 -12 5 -9 3 -9 -7 0
-12 11 -11 16 6 29 11 8 13 13 5 11 -21 -6 -61 17 -74 44 -14 28 -38 34 -55
14z m39 -11 c13 -16 6 -35 -15 -35 -18 0 -28 17 -21 35 7 19 20 19 36 0z"/>
<path d="M1072 2583 c-7 -3 -29 -30 -48 -60 -28 -44 -33 -58 -22 -64 7 -5 19
-7 25 -4 7 2 12 1 11 -3 -2 -4 9 -20 24 -35 20 -21 38 -29 71 -32 25 -2 55 -9
67 -15 12 -6 23 -10 23 -8 30 54 54 119 47 123 -5 3 -7 12 -4 19 7 17 -36 29
-79 21 -28 -5 -35 -2 -55 30 -21 34 -33 39 -60 28z m68 -75 c0 -21 -2 -20 -32
8 l-33 29 28 -31 c36 -40 35 -55 -3 -19 -25 24 -32 26 -45 15 -14 -12 -13 -16
11 -41 25 -26 28 -27 40 -11 19 25 17 5 -3 -28 l-16 -28 -19 24 c-11 13 -17
28 -14 33 8 13 -20 21 -32 9 -6 -6 -12 -6 -16 1 -4 6 0 11 8 11 14 0 20 12 17
33 0 4 4 7 9 7 6 0 9 6 8 13 -2 6 2 11 9 10 7 -2 18 7 24 19 l12 22 23 -28
c13 -15 24 -37 24 -48z m96 6 c16 -4 20 -13 19 -35 -1 -16 -5 -32 -10 -37 -4
-4 -5 4 -1 18 3 14 -2 9 -12 -12 -9 -21 -24 -38 -32 -38 -9 0 -22 -6 -30 -12
-12 -11 -12 -10 -1 5 12 15 10 17 -20 16 -28 0 -31 -2 -14 -9 16 -7 17 -9 3
-9 -28 -1 -30 15 -6 63 16 33 28 46 47 49 14 2 28 5 31 5 3 1 14 -1 26 -4z"/>
<path d="M1185 2471 l30 -8 -35 -5 -35 -6 35 2 c41 1 43 20 3 23 -28 2 -28 2
2 -6z"/>
<path d="M2572 2583 c-7 -3 -29 -30 -48 -60 -28 -44 -33 -58 -22 -64 7 -5 19
-7 25 -4 7 2 12 1 11 -3 -2 -4 9 -20 24 -35 20 -21 38 -29 71 -32 25 -2 55 -9
67 -15 12 -6 23 -10 23 -8 30 54 54 119 47 123 -5 3 -7 12 -4 19 7 17 -36 29
-79 21 -28 -5 -35 -2 -55 30 -21 34 -33 39 -60 28z m68 -75 c0 -21 -2 -20 -32
8 l-33 29 28 -31 c36 -40 35 -55 -3 -19 -25 24 -32 26 -45 15 -14 -12 -13 -16
11 -41 25 -26 28 -27 40 -11 19 25 17 5 -3 -28 l-16 -28 -17 21 c-9 12 -20 30
-23 41 -6 14 -10 16 -21 7 -10 -8 -16 -9 -21 -1 -3 5 1 10 10 10 11 0 15 5 11
15 -3 9 1 18 9 21 8 4 13 9 11 13 -2 3 2 15 10 26 8 10 14 14 14 9 0 -6 -3
-14 -7 -20 -5 -5 1 1 12 14 l20 23 22 -26 c13 -14 23 -36 23 -47z m96 6 c16
-4 20 -13 19 -35 -1 -16 -5 -32 -10 -37 -4 -4 -5 4 -1 18 3 14 -2 9 -12 -12
-9 -21 -24 -38 -32 -38 -9 0 -22 -6 -30 -12 -12 -11 -12 -10 -1 5 12 15 10 17
-20 16 -28 0 -31 -2 -14 -9 16 -7 17 -9 3 -9 -28 -1 -30 15 -6 63 16 33 28 46
47 49 14 2 28 5 31 5 3 1 14 -1 26 -4z"/>
<path d="M2685 2471 l30 -8 -35 -5 -35 -6 35 2 c41 1 43 20 3 23 -28 2 -28 2
2 -6z"/>
<path d="M705 2552 c-17 -12 -14 -43 4 -40 28 5 40 21 25 35 -15 15 -16 15
-29 5z"/>
<path d="M2205 2552 c-17 -12 -14 -43 4 -40 28 5 40 21 25 35 -15 15 -16 15
-29 5z"/>
<path d="M886 2531 c-9 -15 23 -36 36 -23 5 5 7 15 4 21 -9 13 -33 14 -40 2z"/>
<path d="M10 2523 c14 -7 12 -43 -2 -43 -9 0 -10 -3 -2 -8 24 -16 35 -51 22
-72 -11 -16 -10 -23 5 -37 13 -14 21 -15 35 -7 25 16 28 54 4 61 -22 5 -44 46
-46 82 -1 13 -7 25 -14 27 -7 1 -8 0 -2 -3z m68 -134 c2 -9 -5 -20 -15 -23
-14 -6 -16 -5 -5 5 19 20 14 31 -8 19 -11 -6 -20 -7 -20 -2 0 27 43 27 48 1z"/>
<path d="M1354 2455 c8 -22 -11 -65 -29 -65 -26 0 -65 -46 -65 -77 0 -31 24
-73 42 -73 6 0 2 10 -10 23 -12 13 -22 33 -22 46 0 25 42 71 65 71 9 0 21 14
26 30 6 17 15 30 19 30 16 0 20 -18 11 -42 -6 -17 -5 -29 5 -43 19 -25 18 -70
-2 -89 -23 -23 -30 -20 -9 4 21 24 22 23 -34 39 -23 7 -49 15 -57 18 -21 8
-18 -40 4 -60 27 -24 91 -26 108 -2 17 22 19 81 3 91 -14 8 -4 65 14 76 9 6 7
12 -7 23 -27 20 -70 20 -62 0z"/>
<path d="M2854 2455 c8 -22 -11 -65 -29 -65 -26 0 -65 -46 -64 -77 0 -27 1
-27 12 7 8 24 23 40 49 53 22 11 38 27 42 42 6 25 20 32 30 16 4 -5 2 -20 -3
-33 -6 -17 -5 -29 5 -43 21 -28 17 -71 -8 -95 -12 -11 -17 -20 -10 -20 31 0
58 99 31 116 -14 8 -4 65 14 76 9 6 7 12 -7 23 -27 20 -70 20 -62 0z"/>
<path d="M787 2454 c-4 -4 -7 -16 -7 -26 0 -13 -7 -18 -25 -18 -20 0 -25 -5
-25 -24 0 -16 7 -27 20 -31 16 -5 20 -15 20 -50 0 -34 4 -44 19 -48 23 -6 41
10 41 35 0 15 6 17 44 12 42 -6 43 -6 50 26 3 18 6 52 6 76 l0 44 -47 0 c-27
0 -57 3 -68 6 -11 3 -24 2 -28 -2z m41 -27 c2 -12 -3 -17 -17 -17 -12 0 -21 6
-21 13 0 31 32 34 38 4z m92 -7 c0 -13 -7 -20 -20 -20 -13 0 -20 7 -20 20 0
13 7 20 20 20 13 0 20 -7 20 -20z m-140 -35 c0 -8 -9 -15 -20 -15 -11 0 -20 7
-20 15 0 8 9 15 20 15 11 0 20 -7 20 -15z m40 -5 c0 -11 -7 -20 -15 -20 -8 0
-15 9 -15 20 0 11 7 20 15 20 8 0 15 -9 15 -20z m50 0 c0 -13 -7 -20 -20 -20
-13 0 -20 7 -20 20 0 13 7 20 20 20 13 0 20 -7 20 -20z m50 -5 c0 -8 -9 -15
-20 -15 -11 0 -20 7 -20 15 0 8 9 15 20 15 11 0 20 -7 20 -15z m-100 -46 c0
-15 -4 -19 -16 -15 -9 3 -18 6 -20 6 -2 0 -4 7 -4 15 0 8 9 15 20 15 14 0 20
-7 20 -21z m90 1 c0 -11 -6 -20 -13 -20 -19 0 -27 10 -20 26 8 21 33 17 33 -6z
m-101 -29 c16 -10 6 -31 -15 -31 -8 0 -14 9 -14 20 0 22 7 25 29 11z"/>
<path d="M2287 2454 c-4 -4 -7 -16 -7 -26 0 -13 -7 -18 -25 -18 -20 0 -25 -5
-25 -24 0 -16 7 -27 20 -31 16 -5 20 -15 20 -50 0 -34 4 -44 19 -48 23 -6 41
10 41 35 0 15 6 17 44 12 42 -6 43 -6 50 26 3 18 6 52 6 76 l0 44 -47 0 c-27
0 -57 3 -68 6 -11 3 -24 2 -28 -2z m41 -27 c2 -12 -3 -17 -17 -17 -12 0 -21 6
-21 13 0 31 32 34 38 4z m92 -7 c0 -13 -7 -20 -20 -20 -13 0 -20 7 -20 20 0
13 7 20 20 20 13 0 20 -7 20 -20z m-140 -35 c0 -8 -9 -15 -20 -15 -11 0 -20 7
-20 15 0 8 9 15 20 15 11 0 20 -7 20 -15z m40 -5 c0 -11 -7 -20 -15 -20 -8 0
-15 9 -15 20 0 11 7 20 15 20 8 0 15 -9 15 -20z m50 0 c0 -13 -7 -20 -20 -20
-13 0 -20 7 -20 20 0 13 7 20 20 20 13 0 20 -7 20 -20z m50 -5 c0 -8 -9 -15
-20 -15 -11 0 -20 7 -20 15 0 8 9 15 20 15 11 0 20 -7 20 -15z m-100 -46 c0
-15 -4 -19 -16 -15 -9 3 -18 6 -20 6 -2 0 -4 7 -4 15 0 8 9 15 20 15 14 0 20
-7 20 -21z m90 1 c0 -11 -7 -20 -15 -20 -8 0 -15 9 -15 20 0 11 7 20 15 20 8
0 15 -9 15 -20z m-106 -26 c18 -7 10 -34 -10 -34 -8 0 -14 9 -14 20 0 22 1 23
24 14z"/>
<path d="M570 2404 l-35 -14 40 6 c22 3 44 10 50 15 13 13 -14 10 -55 -7z"/>
<path d="M2070 2404 l-35 -14 40 6 c22 3 44 10 50 15 13 13 -14 10 -55 -7z"/>
<path d="M171 2368 c-1 -10 -5 -18 -11 -18 -5 0 -7 -6 -4 -14 3 -8 14 -14 24
-13 21 1 35 37 15 37 -7 0 -16 6 -18 13 -3 7 -6 5 -6 -5z"/>
<path d="M1671 2368 c-1 -10 -5 -18 -11 -18 -5 0 -7 -6 -4 -14 3 -8 14 -14 24
-13 21 1 35 37 15 37 -7 0 -16 6 -18 13 -3 7 -6 5 -6 -5z"/>
<path d="M424 2346 c-18 -20 -12 -43 11 -43 23 0 29 24 11 43 -9 8 -14 8 -22
0z"/>
<path d="M1924 2346 c-18 -20 -12 -43 11 -43 23 0 29 24 11 43 -9 8 -14 8 -22
0z"/>
<path d="M553 2320 c-89 -54 -43 -195 64 -195 60 0 103 44 103 106 0 51 -13
75 -50 94 -39 20 -79 19 -117 -5z m128 -19 c76 -77 -5 -199 -104 -157 -41 17
-57 41 -57 88 0 87 100 130 161 69z"/>
<path d="M570 2304 c-17 -10 -18 -13 -5 -9 45 16 55 17 55 7 0 -6 -10 -12 -22
-14 -12 -2 -29 -15 -37 -30 -38 -67 61 -122 102 -56 13 20 -32 72 -59 66 -20
-3 -32 -44 -17 -59 5 -5 9 3 8 18 0 33 31 45 42 16 4 -10 11 -21 17 -25 16
-10 -13 -38 -40 -38 -29 0 -58 41 -49 69 7 23 45 37 71 27 14 -5 15 -4 4 9
-22 27 -2 28 24 2 30 -30 34 -71 10 -107 l-16 -25 21 24 c32 36 28 84 -10 115
-35 29 -63 32 -99 10z"/>
<path d="M531 2239 c-1 -23 7 -46 19 -61 20 -26 66 -42 76 -26 3 4 2 8 -3 7
-44 -8 -75 19 -83 72 -7 43 -8 44 -9 8z"/>
<path d="M2053 2320 c-89 -54 -43 -195 64 -195 38 0 49 5 74 33 22 25 29 42
29 75 -1 89 -89 135 -167 87z m128 -19 c76 -77 -5 -199 -104 -157 -41 17 -57
41 -57 88 0 87 100 130 161 69z"/>
<path d="M2070 2304 c-17 -10 -18 -13 -5 -9 45 16 55 17 55 7 0 -6 -10 -12
-22 -14 -12 -2 -29 -15 -37 -30 -38 -67 61 -122 102 -56 13 20 -32 72 -59 66
-20 -3 -32 -44 -17 -59 5 -5 9 3 8 18 0 33 31 45 42 16 4 -10 11 -21 17 -25
16 -10 -13 -38 -40 -38 -29 0 -58 41 -49 69 7 23 45 37 71 27 14 -5 15 -4 4 9
-22 27 -2 28 24 2 30 -30 34 -71 10 -107 l-16 -25 21 24 c37 41 24 103 -26
129 -29 16 -53 15 -83 -4z"/>
<path d="M2031 2239 c-1 -22 7 -46 19 -61 21 -27 66 -42 77 -25 3 5 2 8 -3 4
-5 -3 -24 1 -41 8 -26 11 -33 21 -38 52 -10 56 -13 62 -14 22z"/>
<path d="M1090 2312 c-21 -17 -22 -24 -16 -75 8 -64 41 -120 73 -125 32 -5 82
25 89 53 9 36 -12 80 -60 126 -47 44 -55 46 -86 21z m57 -35 c10 -13 24 -22
32 -19 9 3 11 0 6 -8 -6 -10 -4 -12 8 -7 9 3 18 0 21 -9 3 -8 1 -12 -4 -9 -6
3 -7 -1 -4 -9 3 -9 9 -14 13 -12 4 3 6 -7 6 -20 -2 -30 -21 -51 -56 -59 -21
-5 -31 0 -54 26 -18 22 -23 35 -15 37 10 4 9 6 0 12 -9 6 -3 13 19 24 17 9 31
19 31 22 0 2 -8 0 -19 -5 -22 -12 -31 -5 -31 24 0 41 20 46 47 12z"/>
<path d="M1140 2211 c0 -22 27 -59 38 -52 9 5 9 13 -1 34 -11 25 -37 38 -37
18z"/>
<path d="M2590 2312 c-21 -17 -22 -24 -16 -75 8 -64 41 -120 73 -125 32 -5 82
25 89 53 9 36 -12 80 -60 126 -47 44 -55 46 -86 21z m57 -35 c10 -12 26 -21
35 -19 9 2 22 -6 28 -19 8 -14 8 -19 1 -15 -7 5 -9 1 -5 -8 3 -9 9 -14 13 -12
4 3 6 -7 6 -20 -2 -30 -21 -51 -56 -59 -21 -5 -31 0 -54 26 -18 22 -23 35 -15
37 10 4 9 6 0 12 -9 6 -3 13 19 24 17 9 31 19 31 22 0 2 -8 0 -19 -5 -22 -12
-31 -5 -31 24 0 41 20 46 47 12z"/>
<path d="M2640 2208 c1 -18 25 -48 39 -48 7 0 10 6 7 13 -3 6 -9 20 -12 30 -7
19 -34 23 -34 5z"/>
<path d="M2777 2298 c-5 -33 6 -58 26 -58 5 0 2 10 -9 23 -19 22 -19 22 2 5
27 -24 67 -23 89 2 21 24 22 23 -34 39 -23 7 -49 15 -56 17 -8 3 -14 -7 -18
-28z"/>
<path d="M3 2240 c0 -27 5 -44 16 -50 44 -25 45 -28 31 -45 -15 -18 -6 -31 24
-37 10 -2 24 6 33 19 14 21 12 23 -35 55 -42 27 -49 37 -48 62 0 16 -4 31 -10
33 -7 2 -11 -11 -11 -37z"/>
<path d="M181 2254 c-43 -36 -44 -94 -2 -133 28 -26 29 -30 20 -77 -10 -55 -7
-74 15 -74 20 0 23 6 31 63 6 39 5 47 -9 47 -9 0 -16 5 -16 10 0 6 6 10 13 9
31 -4 50 3 72 26 36 35 34 88 -4 126 -37 37 -79 38 -120 3z m92 4 c12 -6 27
-18 34 -27 15 -20 17 -71 2 -71 -6 0 -9 7 -5 15 9 23 -15 65 -40 71 -35 9 -55
1 -77 -28 -17 -23 -19 -31 -9 -53 7 -14 27 -32 45 -40 32 -14 32 -14 5 -15
-32 0 -68 41 -68 77 0 63 59 100 113 71z m10 -40 c16 -25 16 -73 1 -88 -16
-16 -84 8 -93 33 -23 62 58 110 92 55z"/>
<path d="M243 2223 c-7 -3 -13 -12 -13 -22 0 -9 -5 -22 -11 -28 -6 -6 -8 -16
-4 -22 4 -8 15 -4 31 11 33 32 31 73 -3 61z"/>
<path d="M1461 2254 c-11 -15 -21 -35 -21 -46 0 -24 27 -34 52 -19 17 10 24 9
41 -6 12 -10 24 -19 26 -20 2 -1 -2 -10 -9 -18 -15 -18 -6 -31 24 -37 10 -2
24 6 33 19 14 21 12 23 -35 55 -42 27 -49 37 -48 63 1 41 -33 47 -63 9z m39
-24 c-6 -10 -14 -21 -19 -25 -17 -10 -20 11 -5 34 18 26 39 19 24 -9z"/>
<path d="M1681 2254 c-43 -36 -44 -94 -2 -133 28 -26 29 -30 20 -77 -10 -55
-7 -74 15 -74 20 0 23 6 31 63 6 39 5 47 -9 47 -9 0 -16 5 -16 10 0 6 6 10 13
9 31 -4 50 3 72 26 36 35 34 88 -4 126 -37 37 -79 38 -120 3z m92 4 c12 -6 27
-18 34 -27 15 -20 17 -71 2 -71 -6 0 -9 7 -5 15 9 23 -15 65 -40 71 -35 9 -55
1 -77 -28 -17 -23 -19 -31 -9 -53 7 -14 27 -32 45 -40 32 -14 32 -14 5 -15
-51 0 -88 81 -55 122 28 35 65 45 100 26z m10 -40 c16 -25 16 -73 1 -88 -16
-16 -84 8 -93 33 -23 62 58 110 92 55z"/>
<path d="M1743 2223 c-7 -3 -13 -12 -13 -22 0 -9 -5 -22 -11 -28 -6 -6 -8 -16
-4 -22 4 -8 15 -4 31 11 33 32 31 73 -3 61z"/>
<path d="M2961 2256 c-30 -32 -25 -71 9 -71 17 0 26 6 29 20 3 16 1 17 -12 7
-24 -20 -29 3 -7 31 34 43 19 53 -19 13z"/>
<path d="M931 2226 c-7 -8 -10 -20 -6 -26 4 -7 -2 -7 -19 0 -21 8 -27 6 -37
-11 -13 -25 -4 -53 16 -45 18 6 31 -12 17 -26 -6 -6 -12 -6 -16 1 -14 23 -36
11 -36 -19 0 -21 5 -30 16 -30 10 0 13 -6 9 -19 -7 -22 17 -44 42 -39 10 2 17
12 17 21 -2 13 4 17 20 15 15 -2 22 3 24 20 4 24 12 28 29 11 7 -7 15 -5 27 6
9 9 16 20 16 24 0 15 -29 33 -41 25 -9 -5 -10 -1 -6 15 4 15 0 24 -11 29 -10
4 -17 18 -17 32 0 29 -26 38 -44 16z m34 -6 c4 -6 1 -18 -6 -26 -10 -12 -9
-16 9 -21 15 -3 22 -13 22 -29 0 -17 6 -24 20 -24 11 0 20 -7 20 -15 0 -17
-26 -21 -32 -4 -6 17 -40 -2 -35 -21 3 -11 -2 -16 -17 -16 -14 1 -21 -5 -21
-19 0 -11 -8 -21 -19 -23 -16 -3 -18 0 -12 23 6 22 3 28 -14 32 -12 3 -20 14
-20 25 0 17 2 18 16 8 12 -11 18 -10 31 3 21 21 9 51 -17 44 -21 -6 -25 0 -11
21 5 9 17 11 34 6 24 -5 27 -3 27 20 0 26 13 35 25 16z"/>
<path d="M2431 2226 c-7 -8 -10 -20 -6 -26 4 -7 -2 -7 -19 0 -21 8 -27 6 -37
-11 -13 -25 -4 -53 16 -45 18 6 31 -12 17 -26 -6 -6 -12 -6 -16 1 -14 23 -36
11 -36 -19 0 -21 5 -30 16 -30 11 0 14 -5 10 -16 -4 -9 -1 -23 5 -30 17 -21
50 -17 56 6 3 12 12 19 22 18 10 -2 17 5 19 20 4 24 12 28 29 11 7 -7 15 -5
27 6 9 9 16 20 16 24 0 15 -29 33 -41 25 -9 -5 -10 -1 -6 15 4 15 0 24 -11 29
-10 4 -17 18 -17 32 0 29 -26 38 -44 16z m34 -6 c4 -6 1 -18 -6 -26 -10 -12
-9 -16 9 -21 15 -3 22 -13 22 -29 0 -17 6 -24 20 -24 11 0 20 -7 20 -15 0 -17
-26 -21 -32 -4 -6 17 -40 -2 -35 -21 3 -11 -2 -16 -17 -16 -15 1 -21 -5 -21
-19 0 -11 -7 -20 -15 -20 -10 0 -14 8 -12 23 1 17 -4 25 -18 29 -12 3 -20 14
-20 25 0 17 2 18 16 8 12 -11 18 -10 31 3 21 21 9 51 -17 44 -21 -6 -25 0 -11
21 5 9 17 11 34 6 24 -5 27 -3 27 20 0 26 13 35 25 16z"/>
<path d="M384 2193 c-7 -28 4 -54 27 -62 9 -3 8 1 -4 13 -22 22 -22 45 1 62
16 13 16 13 0 14 -11 0 -20 -10 -24 -27z"/>
<path d="M443 2209 c9 -5 17 -19 17 -31 0 -11 -8 -27 -17 -34 -17 -12 -17 -13
-1 -14 10 0 22 10 29 21 14 27 -3 69 -28 69 -17 -1 -17 -1 0 -11z"/>
<path d="M1884 2193 c-7 -28 4 -54 27 -62 9 -3 8 1 -4 13 -22 22 -22 45 1 62
16 13 16 13 0 14 -11 0 -20 -10 -24 -27z"/>
<path d="M1943 2209 c9 -5 17 -19 17 -31 0 -11 -8 -27 -17 -34 -17 -12 -17
-13 -1 -14 10 0 22 10 29 21 14 27 -3 69 -28 69 -17 -1 -17 -1 0 -11z"/>
<path d="M766 2178 c-16 -31 -14 -51 3 -32 10 10 24 64 17 64 -3 0 -12 -14
-20 -32z"/>
<path d="M2266 2178 c-16 -31 -14 -51 3 -32 10 10 24 64 17 64 -3 0 -12 -14
-20 -32z"/>
<path d="M1350 2161 c0 -14 28 -71 35 -71 2 0 0 11 -5 24 -5 13 -7 26 -4 29 2
2 -2 10 -11 17 -11 9 -15 9 -15 1z"/>
<path d="M2850 2161 c0 -14 28 -71 35 -71 2 0 0 11 -5 24 -5 13 -7 26 -4 29 2
2 -2 10 -11 17 -11 9 -15 9 -15 1z"/>
<path d="M692 2073 c-11 -19 3 -57 31 -86 13 -13 18 -32 17 -60 -3 -81 4 -92
51 -76 89 31 106 71 45 107 -18 11 -43 34 -56 53 -13 18 -19 29 -12 25 7 -4
12 -2 12 3 0 6 -4 11 -9 11 -5 0 -11 9 -14 20 -6 25 -52 27 -65 3z m49 -5 c0
-7 2 -20 4 -29 2 -12 -3 -15 -21 -11 -34 6 -32 52 3 52 7 0 13 -6 14 -12z m51
-125 c-25 -21 -36 -15 -48 22 -9 30 -9 37 4 44 11 6 21 0 37 -23 20 -28 21
-32 7 -43z m61 -22 c4 9 6 10 6 2 1 -14 -69 -53 -94 -53 -30 0 -16 38 23 58
37 19 37 19 48 -1 9 -15 13 -17 17 -6z"/>
<path d="M2192 2073 c-11 -19 3 -57 31 -86 13 -13 18 -32 17 -60 -3 -81 4 -92
51 -76 89 31 106 71 45 107 -18 11 -43 34 -56 53 -13 18 -19 29 -12 25 7 -4
12 -2 12 3 0 6 -4 11 -9 11 -5 0 -11 9 -14 20 -6 25 -52 27 -65 3z m49 -5 c0
-7 2 -20 4 -29 2 -12 -3 -15 -21 -11 -34 6 -32 52 3 52 7 0 13 -6 14 -12z m51
-125 c-25 -21 -36 -15 -48 22 -9 30 -9 37 4 44 11 6 21 0 37 -23 20 -28 21
-32 7 -43z m61 -22 c4 9 6 10 6 2 1 -14 -69 -53 -94 -53 -30 0 -16 38 23 58
37 19 37 19 48 -1 9 -15 13 -17 17 -6z"/>
<path d="M387 2056 c-61 -36 -64 -42 -37 -71 13 -13 32 -27 42 -31 15 -4 18
-12 14 -29 -7 -26 11 -85 25 -85 12 0 109 49 109 55 0 20 -28 57 -52 67 -22
10 -28 20 -28 43 0 43 -11 75 -24 74 -6 0 -28 -11 -49 -23z m63 -14 c0 -5 -11
-15 -25 -22 -14 -7 -23 -15 -20 -18 2 -3 11 1 20 8 13 11 15 9 15 -14 0 -24
-4 -27 -27 -24 -18 2 -27 8 -25 17 3 12 0 12 -12 2 -10 -9 -16 -9 -21 -1 -4 6
-5 12 -4 14 55 38 99 55 99 38z m38 -92 c33 -20 40 -34 22 -45 -5 -3 -10 -1
-10 5 0 6 -12 10 -27 8 -19 -2 -28 -9 -30 -23 -1 -16 -1 -16 3 -2 3 9 15 17
27 17 21 0 20 -2 -7 -25 -16 -14 -33 -25 -38 -25 -13 0 -10 98 5 103 19 8 20
8 55 -13z"/>
<path d="M1175 2050 c-64 -26 -90 -50 -67 -64 11 -6 162 50 177 66 7 8 5 9 -7
5 -10 -4 -18 -2 -18 4 0 7 10 9 24 5 14 -3 28 -2 31 4 12 20 -70 8 -140 -20z"/>
<path d="M1887 2056 c-61 -36 -64 -42 -37 -71 13 -13 32 -27 42 -31 15 -4 18
-12 14 -29 -7 -26 11 -85 25 -85 12 0 109 49 109 55 0 20 -28 57 -52 67 -22
10 -28 20 -28 43 0 43 -11 75 -24 74 -6 0 -28 -11 -49 -23z m63 -14 c0 -5 -11
-15 -25 -22 -14 -7 -23 -15 -20 -18 2 -3 11 1 20 8 13 11 15 9 15 -14 0 -24
-4 -27 -27 -24 -18 2 -27 8 -25 17 3 12 0 12 -12 2 -10 -9 -16 -9 -21 -1 -4 6
-5 12 -4 14 55 38 99 55 99 38z m38 -92 c33 -20 40 -34 22 -45 -5 -3 -10 -1
-10 4 0 6 -11 11 -25 11 -29 0 -45 -28 -24 -41 8 -5 11 -9 7 -9 -3 0 -13 -3
-22 -6 -13 -5 -16 2 -16 44 0 45 6 58 30 61 3 1 20 -8 38 -19z"/>
<path d="M2675 2050 c-64 -26 -90 -50 -67 -64 11 -6 162 50 177 66 7 8 5 9 -7
5 -10 -4 -18 -2 -18 4 0 7 10 9 24 5 14 -3 28 -2 31 4 12 20 -70 8 -140 -20z"/>
<path d="M1443 2057 c-40 -21 -60 -90 -38 -133 17 -33 44 -56 59 -51 7 3 18 1
23 -4 13 -13 85 12 91 33 2 10 8 18 12 18 9 0 23 40 20 55 -1 6 -3 15 -4 22
-4 24 -38 51 -69 56 -18 3 -41 7 -52 10 -11 3 -30 0 -42 -6z m60 -55 c-2 -26
-9 -51 -14 -56 -5 -6 -9 -20 -9 -32 0 -12 -6 -24 -14 -27 -32 -13 -78 91 -50
114 8 6 14 17 14 23 0 15 40 33 62 28 13 -3 15 -13 11 -50z m73 23 c23 -22 25
-66 4 -100 -16 -27 -62 -55 -88 -55 -5 0 2 46 19 118 11 44 16 52 34 50 11 -2
25 -8 31 -13z"/>
<path d="M1449 2013 c-12 -15 -12 -16 3 -11 18 7 32 -16 22 -35 -5 -9 -4 -9 5
-1 10 9 10 17 2 32 -8 15 -8 22 2 25 7 4 6 6 -4 6 -9 1 -23 -7 -30 -16z"/>
<path d="M1540 1953 c-22 -9 -31 -26 -17 -35 9 -6 9 -8 0 -8 -7 0 -13 -5 -13
-11 0 -8 5 -8 15 1 8 7 12 17 9 22 -4 6 0 14 7 19 8 5 17 3 21 -4 5 -8 8 -6 8
6 0 18 -5 19 -30 10z"/>
<path d="M2943 2057 c-40 -20 -60 -90 -38 -133 17 -33 44 -56 59 -51 7 3 17 2
22 -3 5 -5 9 10 9 35 0 24 -3 41 -7 39 -5 -3 -8 -16 -8 -29 0 -12 -6 -25 -14
-28 -32 -13 -78 91 -50 114 8 6 14 17 14 24 0 13 35 28 59 25 7 -1 10 3 6 9
-7 13 -22 12 -52 -2z"/>
<path d="M4 2000 l-1 -55 10 48 c9 40 14 47 31 45 28 -4 41 -18 50 -51 9 -37
-24 -92 -64 -106 -43 -14 -37 -21 6 -8 21 6 39 19 42 29 2 10 8 18 12 18 9 0
23 40 20 55 -1 6 -3 15 -4 22 -4 24 -38 51 -69 55 l-32 3 -1 -55z"/>
<path d="M558 2023 c-19 -5 -24 -18 -9 -27 5 -3 11 0 14 8 4 9 14 12 29 9 29
-7 61 -40 48 -48 -6 -3 -10 -1 -10 6 0 9 -4 9 -15 -1 -18 -15 -35 -5 -35 23
-1 21 -1 21 -12 3 -9 -15 -7 -22 8 -33 20 -15 53 -17 73 -4 10 7 11 13 2 29
-19 35 -49 47 -93 35z"/>
<path d="M2058 2023 c-19 -5 -24 -18 -9 -27 5 -3 11 0 14 8 4 9 14 12 29 9 29
-7 61 -40 48 -48 -6 -3 -10 -1 -10 6 0 9 -4 9 -15 -1 -18 -15 -35 -5 -35 23
-1 21 -1 21 -12 3 -9 -15 -7 -22 8 -33 20 -15 53 -17 73 -4 10 7 11 13 2 29
-19 35 -49 47 -93 35z"/>
<path d="M2949 2013 c-12 -15 -12 -16 3 -11 18 7 32 -16 22 -35 -5 -9 -4 -9 5
-1 10 9 10 17 2 32 -8 15 -8 22 2 25 7 4 6 6 -4 6 -9 1 -23 -7 -30 -16z"/>
<path d="M982 1957 c-9 -10 -4 -12 24 -9 24 3 34 0 32 -8 -2 -7 3 -15 10 -17
18 -7 15 18 -5 33 -23 17 -48 18 -61 1z"/>
<path d="M2482 1957 c-9 -10 -4 -12 24 -9 24 3 34 0 32 -8 -2 -7 3 -15 10 -17
24 -9 12 24 -13 35 -33 15 -40 15 -53 -1z"/>
<path d="M40 1953 c-22 -9 -31 -26 -17 -35 9 -6 9 -8 0 -8 -7 0 -13 -5 -13
-11 0 -8 5 -8 15 1 8 7 12 17 9 22 -4 6 0 14 7 19 8 5 17 3 21 -4 5 -8 8 -6 8
6 0 18 -5 19 -30 10z"/>
<path d="M152 1904 c-18 -13 -21 -19 -11 -30 9 -11 15 -12 26 -3 7 7 17 9 21
5 4 -4 -3 -16 -15 -26 -28 -22 -30 -50 -4 -50 16 0 32 19 35 42 1 3 5 10 10
15 5 5 6 3 2 -4 -4 -7 -2 -13 3 -13 20 0 12 59 -8 70 -26 13 -33 13 -59 -6z"/>
<path d="M1652 1904 c-18 -13 -21 -19 -11 -30 9 -11 15 -12 26 -3 7 7 17 9 21
5 4 -4 -3 -16 -15 -26 -28 -22 -30 -50 -4 -50 16 0 32 19 35 42 1 3 5 10 10
15 5 5 6 3 2 -4 -4 -7 -2 -13 3 -13 20 0 12 59 -8 70 -26 13 -33 13 -59 -6z"/>
<path d="M949 1895 c-1 -3 -2 -11 -3 -17 0 -7 -11 -17 -23 -23 -26 -11 -31
-50 -8 -59 8 -3 15 -17 15 -31 0 -27 31 -48 38 -27 5 16 20 15 38 -2 9 -10 11
-17 4 -21 -8 -5 -8 -11 0 -20 6 -8 10 -22 8 -32 -2 -11 3 -18 12 -18 8 0 20
-6 26 -14 11 -14 39 -6 29 8 -2 5 7 13 20 19 25 12 34 32 14 32 -6 0 -9 9 -6
20 5 20 -15 45 -27 33 -4 -4 -10 -3 -14 3 -4 7 -15 8 -27 3 -11 -4 -14 -8 -7
-8 7 -1 10 -6 7 -12 -5 -7 -16 -3 -31 12 -20 19 -30 20 -61 7 -3 -2 -7 4 -9
12 -1 8 -5 23 -9 33 -5 12 -2 17 8 17 20 0 31 -17 15 -23 -7 -2 -9 -8 -5 -13
4 -5 13 -2 18 6 8 11 12 12 16 3 7 -18 26 -16 19 2 -4 10 1 15 15 15 17 0 18
-3 8 -21 -11 -21 -11 -21 15 -3 29 21 35 64 10 64 -11 0 -14 5 -10 16 4 9 1
23 -5 30 -9 12 -15 12 -27 2 -12 -10 -16 -10 -19 0 -4 11 -42 18 -44 7z m36
-15 c4 -6 15 -8 25 -5 15 5 19 0 22 -22 2 -16 8 -27 16 -25 6 1 12 -5 12 -13
0 -8 -4 -15 -10 -15 -5 0 -10 5 -10 10 0 6 -7 10 -16 10 -11 0 -14 6 -9 20 7
22 -10 28 -19 8 -5 -10 -7 -10 -12 0 -9 18 -25 15 -22 -5 2 -12 -3 -17 -14
-15 -10 2 -18 -2 -18 -8 0 -5 -4 -10 -10 -10 -5 0 -10 7 -10 15 0 8 6 15 13
15 8 0 20 11 27 25 14 27 25 31 35 15z m103 -187 c5 -17 -26 -29 -40 -15 -6 6
-7 15 -3 22 9 14 37 9 43 -7z"/>
<path d="M1220 1880 c-39 -39 -20 -102 36 -116 13 -4 29 -15 35 -25 13 -26 55
-25 62 1 3 11 -1 27 -9 34 -8 8 -14 32 -14 54 0 66 -65 97 -110 52z m84 -6
c18 -18 22 -94 5 -111 -7 -7 -22 -4 -52 11 -34 18 -43 29 -45 53 -5 51 57 82
92 47z"/>
<path d="M1252 1844 c-30 -21 -28 -29 16 -53 l37 -21 -30 25 c-16 14 -24 25
-17 25 7 0 10 4 7 10 -3 6 1 7 9 4 8 -3 18 -15 22 -26 9 -30 15 -15 8 20 -7
36 -19 39 -52 16z"/>
<path d="M2449 1895 c-1 -3 -2 -11 -3 -17 0 -7 -11 -17 -23 -23 -26 -11 -31
-50 -8 -59 8 -3 15 -17 15 -31 0 -27 31 -48 38 -27 5 16 20 15 38 -2 9 -10 11
-17 4 -21 -8 -5 -8 -11 0 -20 6 -8 10 -22 8 -32 -2 -11 3 -18 12 -18 8 0 20
-6 26 -14 11 -14 39 -6 29 8 -2 5 7 13 20 19 25 12 34 32 14 32 -6 0 -9 9 -6
20 5 20 -15 45 -27 33 -4 -4 -10 -3 -14 3 -4 7 -15 8 -27 3 -11 -4 -14 -8 -7
-8 7 -1 10 -6 7 -12 -5 -7 -16 -3 -31 12 -20 19 -30 20 -61 7 -3 -2 -7 4 -9
12 -1 8 -5 23 -9 33 -5 12 -2 17 8 17 20 0 31 -17 15 -23 -7 -2 -9 -8 -5 -13
4 -5 13 -2 18 6 8 11 12 12 16 3 7 -18 26 -16 19 2 -4 10 1 15 15 15 17 0 18
-3 8 -21 -11 -21 -11 -21 15 -3 28 21 35 64 10 64 -10 0 -13 6 -9 19 8 25 -22
51 -37 30 -7 -11 -11 -11 -15 -1 -4 11 -42 18 -44 7z m36 -15 c4 -6 15 -8 25
-5 15 5 19 0 22 -22 2 -16 8 -27 16 -25 6 1 12 -5 12 -13 0 -8 -4 -15 -10 -15
-5 0 -10 5 -10 10 0 6 -7 10 -16 10 -11 0 -14 6 -9 20 4 11 2 20 -4 20 -6 0
-11 -4 -11 -10 0 -5 -4 -10 -10 -10 -5 0 -10 7 -10 16 0 8 -5 12 -10 9 -6 -4
-9 -14 -8 -23 2 -11 -3 -16 -14 -14 -10 2 -18 -2 -18 -8 0 -5 -4 -10 -10 -10
-5 0 -10 7 -10 15 0 8 6 15 13 15 8 0 20 11 27 25 14 27 25 31 35 15z m103
-187 c5 -17 -26 -29 -40 -15 -6 6 -7 15 -3 22 9 14 37 9 43 -7z"/>
<path d="M2720 1880 c-39 -39 -20 -102 36 -116 13 -4 29 -15 35 -25 13 -26 55
-25 62 1 3 11 -1 27 -9 34 -8 8 -14 32 -14 54 0 66 -65 97 -110 52z m84 -6
c20 -20 22 -102 2 -110 -7 -3 -31 3 -52 13 -32 15 -40 24 -42 50 -5 51 57 83
92 47z"/>
<path d="M2752 1844 c-30 -21 -28 -29 16 -53 l37 -21 -30 25 c-16 14 -24 25
-17 25 7 0 10 4 7 10 -3 6 1 7 9 4 8 -3 18 -15 22 -26 9 -30 15 -15 8 20 -7
36 -19 39 -52 16z"/>
<path d="M611 1836 c-21 -25 -9 -51 24 -52 47 -1 84 -14 79 -29 -7 -17 23 -46
40 -39 19 7 37 -46 22 -68 -15 -25 17 -57 42 -42 25 16 28 54 4 61 -22 5 -45
46 -46 83 -1 19 -7 25 -26 26 -40 2 -70 18 -83 44 -15 30 -39 36 -56 16z m45
-35 c-10 -16 -36 -13 -43 5 -8 22 18 37 36 20 7 -8 10 -19 7 -25z m114 -51 c0
-11 -4 -20 -10 -20 -5 0 -7 7 -4 15 5 11 2 13 -10 9 -9 -3 -13 -11 -9 -17 3
-6 1 -7 -5 -3 -16 10 -3 36 19 36 12 0 19 -7 19 -20z m58 -111 c2 -9 -5 -20
-15 -23 -14 -6 -16 -5 -5 5 19 20 14 31 -8 19 -11 -6 -20 -7 -20 -2 0 27 43
27 48 1z"/>
<path d="M2111 1836 c-21 -25 -9 -51 24 -52 47 -1 84 -14 79 -29 -7 -17 23
-46 40 -39 19 7 37 -46 22 -68 -15 -25 17 -57 42 -42 25 16 28 54 4 61 -22 5
-45 46 -46 83 -1 19 -7 25 -26 26 -40 2 -70 18 -83 44 -15 30 -39 36 -56 16z
m45 -35 c-10 -16 -36 -13 -43 5 -8 22 18 37 36 20 7 -8 10 -19 7 -25z m114
-51 c0 -11 -4 -20 -10 -20 -5 0 -7 7 -4 15 5 11 2 13 -10 9 -9 -3 -13 -11 -9
-17 3 -6 1 -7 -5 -3 -16 10 -3 36 19 36 12 0 19 -7 19 -20z m58 -111 c2 -9 -5
-20 -15 -23 -14 -6 -16 -5 -5 5 19 20 14 31 -8 19 -11 -6 -20 -7 -20 -2 0 27
43 27 48 1z"/>
<path d="M322 1833 c-7 -3 -29 -30 -48 -60 -28 -44 -33 -58 -22 -64 7 -5 19
-7 25 -4 7 2 12 1 10 -3 -5 -16 62 -70 80 -66 10 3 38 -2 62 -11 24 -8 45 -14
45 -13 1 2 13 29 28 60 15 32 23 60 18 63 -5 3 -7 12 -4 20 7 18 -34 29 -79
21 -28 -5 -34 -2 -55 29 -21 34 -33 39 -60 28z m68 -75 c0 -21 -2 -20 -32 8
l-33 29 28 -31 c36 -40 35 -55 -3 -19 -25 24 -32 26 -45 15 -14 -12 -13 -16
11 -41 25 -26 28 -27 40 -11 19 25 17 5 -3 -28 l-16 -28 -17 21 c-9 12 -20 30
-23 41 -6 14 -10 16 -21 7 -10 -8 -16 -9 -21 -1 -3 5 1 10 10 10 11 0 15 5 11
15 -3 9 1 18 9 21 8 4 13 9 11 13 -2 3 2 15 10 26 8 10 14 14 14 9 0 -6 -3
-14 -7 -20 -5 -5 1 1 12 14 l20 23 22 -26 c13 -14 23 -36 23 -47z m96 6 c16
-4 20 -13 19 -35 -1 -16 -5 -32 -10 -37 -4 -4 -5 4 -1 18 4 17 0 13 -11 -10
-10 -19 -17 -35 -18 -36 0 -1 -13 -4 -30 -8 -22 -5 -26 -4 -15 4 11 7 7 10
-20 9 -29 0 -31 -2 -15 -9 16 -7 17 -9 3 -9 -28 -1 -30 15 -6 63 16 33 28 46
47 49 14 2 28 5 31 5 3 1 14 -1 26 -4z"/>
<path d="M435 1721 l30 -8 -35 -5 -35 -6 35 2 c41 1 43 20 3 23 -28 2 -28 2 2
-6z"/>
<path d="M1822 1833 c-7 -3 -29 -30 -48 -60 -28 -44 -33 -58 -22 -64 7 -5 19
-7 25 -4 7 2 12 1 10 -3 -5 -16 65 -73 82 -67 10 3 37 -2 61 -10 24 -8 44 -14
44 -13 1 2 13 29 28 60 15 32 23 60 18 63 -5 3 -7 12 -4 20 7 18 -34 29 -79
21 -28 -5 -34 -2 -55 29 -21 34 -33 39 -60 28z m68 -75 c0 -21 -2 -20 -32 8
l-33 29 28 -31 c36 -40 35 -55 -3 -19 -25 24 -32 26 -45 15 -14 -12 -13 -16
11 -41 25 -26 28 -27 40 -11 20 26 16 1 -4 -30 l-18 -27 -14 22 c-43 66 -51
87 -35 93 8 3 13 9 11 13 -2 3 2 15 10 26 8 10 14 14 14 9 0 -6 -3 -14 -7 -20
-5 -5 1 1 12 14 l20 23 22 -26 c13 -14 23 -36 23 -47z m96 6 c16 -4 20 -13 19
-35 -1 -16 -5 -32 -10 -37 -4 -4 -5 4 -1 18 4 17 0 13 -11 -10 -10 -19 -17
-35 -18 -36 0 -1 -13 -4 -30 -8 -22 -5 -26 -4 -15 4 11 7 7 10 -20 9 -29 0
-31 -2 -15 -9 16 -7 17 -9 3 -9 -28 -1 -30 15 -6 63 16 33 28 46 47 49 14 2
28 5 31 5 3 1 14 -1 26 -4z"/>
<path d="M1935 1721 l30 -8 -35 -5 -35 -6 35 2 c41 1 43 20 3 23 -28 2 -28 2
2 -6z"/>
<path d="M1455 1802 c-17 -12 -14 -43 4 -40 28 5 40 21 25 35 -15 15 -16 15
-29 5z"/>
<path d="M2955 1802 c-17 -12 -14 -43 4 -40 28 5 40 21 25 35 -15 15 -16 15
-29 5z"/>
<path d="M136 1782 c-9 -14 12 -35 28 -29 23 9 20 37 -3 37 -11 0 -22 -4 -25
-8z"/>
<path d="M1637 1783 c-3 -5 -2 -15 3 -22 10 -17 43 -6 38 12 -6 15 -34 22 -41
10z"/>
<path d="M604 1705 c8 -22 -11 -65 -29 -65 -26 0 -65 -46 -64 -77 0 -27 1 -27
12 7 8 24 23 40 49 53 22 11 38 27 42 43 8 32 32 25 28 -7 -2 -13 2 -40 9 -61
14 -43 6 -83 -18 -92 -15 -6 -15 -4 2 14 21 24 22 23 -34 39 -23 7 -49 15 -56
17 -8 3 -14 -7 -18 -28 -5 -34 6 -58 27 -58 6 0 3 7 -6 14 -10 7 -18 17 -18
21 0 5 8 1 18 -8 10 -9 35 -17 56 -19 49 -3 70 22 61 72 -11 61 -9 101 6 111
12 8 11 12 -5 24 -27 20 -70 20 -62 0z"/>
<path d="M2104 1705 c8 -22 -11 -65 -29 -65 -26 0 -65 -46 -64 -77 0 -27 1
-27 12 7 8 24 23 40 49 53 22 11 38 27 42 43 8 32 32 25 28 -7 -2 -13 2 -40 9
-61 14 -43 6 -83 -18 -92 -15 -6 -15 -4 2 14 21 24 22 23 -34 39 -23 7 -49 15
-56 17 -8 3 -14 -7 -18 -28 -5 -34 6 -58 27 -58 6 0 3 7 -6 14 -10 7 -18 17
-18 21 0 5 8 1 18 -8 27 -24 91 -26 108 -2 17 22 19 81 3 91 -14 8 -4 65 14
76 9 6 7 12 -7 23 -27 20 -70 20 -62 0z"/>
<path d="M37 1704 c-4 -4 -7 -15 -7 -25 0 -10 -8 -20 -17 -22 -17 -4 -17 -5 0
-6 22 -1 23 -31 0 -31 -13 0 -14 -3 -5 -12 7 -7 12 -31 12 -54 0 -29 5 -44 16
-48 21 -8 44 11 44 35 0 16 6 18 44 13 l43 -6 6 38 c4 22 7 56 7 77 l0 37 -47
0 c-27 0 -57 3 -68 6 -11 3 -24 2 -28 -2z m41 -27 c2 -12 -3 -17 -17 -17 -15
0 -21 6 -21 21 0 25 33 22 38 -4z m92 -7 c0 -13 -7 -20 -20 -20 -13 0 -20 7
-20 20 0 13 7 20 20 20 13 0 20 -7 20 -20z m-100 -40 c0 -11 -7 -20 -15 -20
-8 0 -15 9 -15 20 0 11 7 20 15 20 8 0 15 -9 15 -20z m50 0 c0 -13 -7 -20 -20
-20 -13 0 -20 7 -20 20 0 13 7 20 20 20 13 0 20 -7 20 -20z m48 -2 c-7 -19
-38 -22 -38 -4 0 10 9 16 21 16 12 0 19 -5 17 -12z m-98 -48 c0 -11 -6 -20
-12 -20 -10 0 -9 -3 1 -9 16 -10 6 -31 -14 -31 -9 0 -14 12 -13 40 0 32 4 40
19 40 12 0 19 -7 19 -20z m90 0 c0 -11 -7 -20 -15 -20 -8 0 -15 9 -15 20 0 11
7 20 15 20 8 0 15 -9 15 -20z"/>
<path d="M1537 1704 c-4 -4 -7 -16 -7 -26 0 -13 -7 -18 -25 -18 -20 0 -25 -5
-25 -24 0 -15 7 -26 20 -29 16 -4 20 -14 20 -50 0 -32 5 -47 16 -51 21 -8 44
11 44 35 0 16 6 18 44 13 l43 -6 6 38 c4 22 7 56 7 77 l0 37 -47 0 c-27 0 -57
3 -68 6 -11 3 -24 2 -28 -2z m41 -27 c2 -12 -3 -17 -17 -17 -15 0 -21 6 -21
21 0 25 33 22 38 -4z m92 -7 c0 -13 -7 -20 -20 -20 -13 0 -20 7 -20 20 0 13 7
20 20 20 13 0 20 -7 20 -20z m-140 -35 c0 -8 -9 -15 -20 -15 -11 0 -20 7 -20
15 0 8 9 15 20 15 11 0 20 -7 20 -15z m40 -5 c0 -11 -7 -20 -15 -20 -8 0 -15
9 -15 20 0 11 7 20 15 20 8 0 15 -9 15 -20z m50 0 c0 -13 -7 -20 -20 -20 -13
0 -20 7 -20 20 0 13 7 20 20 20 13 0 20 -7 20 -20z m48 -2 c-7 -19 -38 -22
-38 -4 0 10 9 16 21 16 12 0 19 -5 17 -12z m-101 -65 c-1 -26 -8 -39 -19 -41
-14 -3 -17 5 -16 37 0 33 4 41 19 41 16 0 19 -6 16 -37z m93 17 c0 -11 -7 -20
-15 -20 -8 0 -15 9 -15 20 0 11 7 20 15 20 8 0 15 -9 15 -20z"/>
<path d="M1323 1658 c-18 -6 -33 -14 -33 -18 0 -9 75 11 86 23 10 10 -14 7
-53 -5z"/>
<path d="M2823 1658 c-18 -6 -33 -14 -33 -18 0 -9 75 11 86 23 10 10 -14 7
-53 -5z"/>
<path d="M921 1618 c-1 -10 -5 -18 -11 -18 -5 0 -7 -6 -4 -14 3 -8 14 -14 24
-13 21 1 35 37 15 37 -7 0 -16 6 -18 13 -3 7 -6 5 -6 -5z"/>
<path d="M2421 1618 c-1 -10 -5 -18 -11 -18 -5 0 -7 -6 -4 -14 3 -8 14 -14 24
-13 21 1 35 37 15 37 -7 0 -16 6 -18 13 -3 7 -6 5 -6 -5z"/>
<path d="M1174 1596 c-18 -20 -12 -43 11 -43 23 0 29 24 11 43 -9 8 -14 8 -22
0z"/>
<path d="M2672 1597 c-17 -21 -10 -44 13 -44 24 0 29 24 9 44 -9 10 -14 10
-22 0z"/>
<path d="M1303 1570 c-58 -35 -64 -116 -11 -167 23 -22 38 -28 74 -28 39 0 50
5 75 33 22 24 29 42 29 73 0 51 -13 75 -50 94 -39 20 -79 19 -117 -5z m128
-19 c76 -77 -5 -199 -104 -157 -41 17 -57 41 -57 88 0 87 100 130 161 69z"/>
<path d="M1320 1554 c-17 -10 -18 -13 -5 -9 45 16 55 17 55 6 0 -6 -9 -11 -19
-11 -22 0 -51 -35 -51 -60 0 -25 38 -60 64 -60 31 0 56 30 55 66 -1 18 -3 22
-6 11 -4 -18 -6 -17 -20 3 -20 28 -57 23 -61 -9 -2 -13 0 -27 5 -32 5 -5 9 3
8 18 0 33 31 45 42 16 4 -10 11 -21 17 -25 16 -10 -13 -38 -40 -38 -29 0 -58
41 -49 69 7 23 45 37 71 27 14 -5 15 -4 4 9 -22 27 -2 28 24 2 30 -30 34 -71
10 -107 l-16 -25 21 24 c32 36 28 84 -10 115 -35 29 -63 32 -99 10z"/>
<path d="M1281 1490 c-1 -20 6 -45 14 -57 18 -26 72 -47 81 -31 4 6 3 9 -2 5
-5 -3 -24 1 -41 8 -26 11 -33 21 -38 52 -10 56 -13 62 -14 23z"/>
<path d="M2803 1570 c-58 -35 -64 -116 -11 -167 23 -22 38 -28 74 -28 39 0 50
5 75 33 22 25 29 42 29 75 -1 89 -89 135 -167 87z m128 -19 c76 -77 -5 -199
-104 -157 -41 17 -57 41 -57 88 0 87 100 130 161 69z"/>
<path d="M2820 1554 c-17 -10 -18 -13 -5 -9 45 16 55 17 55 6 0 -6 -9 -11 -19
-11 -22 0 -51 -35 -51 -60 0 -25 38 -60 64 -60 31 0 56 30 55 66 -1 18 -3 22
-6 11 -4 -18 -6 -17 -20 3 -20 28 -57 23 -61 -9 -2 -13 0 -27 5 -32 5 -5 9 3
8 18 0 33 31 45 42 16 4 -10 11 -21 17 -25 16 -10 -13 -38 -40 -38 -29 0 -58
41 -49 69 7 23 45 37 71 27 14 -5 15 -4 4 9 -22 27 -2 28 24 2 30 -30 34 -71
10 -107 l-16 -25 21 24 c32 36 28 84 -10 115 -35 29 -63 32 -99 10z"/>
<path d="M2781 1489 c-1 -22 7 -46 19 -61 21 -27 66 -42 77 -25 3 5 2 8 -3 4
-5 -3 -24 1 -41 8 -26 11 -33 21 -38 52 -10 56 -13 62 -14 22z"/>
<path d="M335 1560 c-37 -41 9 -190 62 -198 32 -5 82 25 89 53 9 36 -12 80
-60 126 -46 44 -65 48 -91 19z m62 -33 c10 -12 26 -21 35 -19 9 2 22 -6 28
-19 8 -14 8 -19 1 -15 -7 5 -9 1 -5 -8 3 -9 9 -14 13 -12 3 2 6 -6 6 -19 0
-13 -4 -23 -10 -22 -5 1 -9 -4 -7 -11 3 -16 -39 -32 -65 -26 -21 6 -61 64 -44
64 6 0 11 5 11 11 0 5 -6 7 -12 4 -14 -7 8 12 39 33 16 11 16 11 -3 3 -25 -12
-34 -6 -34 24 0 41 20 46 47 12z"/>
<path d="M390 1458 c1 -18 25 -48 39 -48 13 0 15 13 4 24 -5 4 -8 13 -8 19 0
7 -8 13 -17 15 -10 2 -18 -2 -18 -10z"/>
<path d="M1835 1560 c-37 -41 9 -190 62 -198 32 -5 82 25 89 53 9 36 -12 80
-60 126 -46 44 -65 48 -91 19z m62 -33 c10 -13 24 -22 32 -19 9 3 11 0 6 -8
-6 -10 -4 -12 9 -7 10 4 16 2 15 -6 -3 -23 1 -38 9 -34 4 3 7 -5 7 -18 0 -13
-4 -23 -10 -22 -5 1 -9 -4 -7 -11 3 -15 -44 -34 -68 -27 -9 3 -26 21 -36 41
-21 39 -23 33 33 72 16 11 16 11 -3 3 -25 -12 -34 -6 -34 24 0 41 20 46 47 12z"/>
<path d="M1890 1458 c1 -18 25 -48 39 -48 13 0 15 13 4 24 -5 4 -8 13 -8 19 0
7 -8 13 -17 15 -10 2 -18 -2 -18 -10z"/>
<path d="M712 1507 c-41 -43 -17 -97 30 -68 17 10 24 9 41 -6 12 -10 24 -19
26 -20 2 -1 -2 -10 -9 -18 -15 -18 -6 -31 24 -37 10 -2 24 6 33 19 14 21 12
23 -35 55 -42 27 -49 37 -48 63 1 39 -31 46 -62 12z m38 -27 c-6 -10 -14 -21
-19 -25 -17 -10 -20 11 -5 34 18 26 39 19 24 -9z"/>
<path d="M931 1504 c-43 -36 -44 -94 -2 -133 28 -26 29 -30 20 -77 -10 -55 -7
-74 15 -74 20 0 23 6 31 63 6 41 5 47 -10 47 -11 0 -15 5 -11 15 3 9 0 15 -9
15 -20 0 -55 49 -55 77 0 36 16 59 50 73 54 22 110 -19 110 -80 0 -11 -5 -20
-11 -20 -6 0 -9 7 -5 15 9 23 -15 65 -40 71 -35 9 -55 1 -77 -28 -17 -23 -19
-31 -9 -53 7 -14 25 -31 40 -38 16 -7 27 -18 25 -24 -4 -10 3 -10 26 -2 66 23
82 99 32 150 -37 37 -79 38 -120 3z m102 -36 c16 -25 16 -73 1 -88 -16 -16
-84 8 -93 33 -23 62 58 110 92 55z"/>
<path d="M993 1473 c-7 -3 -13 -12 -13 -22 0 -9 -5 -22 -11 -28 -6 -6 -8 -16
-4 -22 4 -8 15 -4 31 11 33 32 31 73 -3 61z"/>
<path d="M2212 1507 c-41 -43 -17 -97 30 -68 17 10 24 9 41 -6 12 -10 24 -19
26 -20 2 -1 -2 -10 -9 -18 -15 -18 -6 -31 24 -37 10 -2 24 6 33 19 14 21 12
23 -35 55 -42 27 -49 37 -48 63 1 39 -31 46 -62 12z m38 -27 c-6 -10 -14 -21
-19 -25 -17 -10 -20 11 -5 34 18 26 39 19 24 -9z"/>
<path d="M2431 1504 c-43 -36 -44 -94 -2 -133 28 -26 29 -30 20 -77 -10 -55
-7 -74 15 -74 20 0 23 6 31 63 6 41 5 47 -10 47 -11 0 -15 5 -11 15 3 9 0 15
-9 15 -20 0 -55 49 -55 77 0 36 16 59 50 73 54 22 110 -19 110 -80 0 -11 -5
-20 -11 -20 -6 0 -9 7 -5 15 9 23 -15 65 -40 71 -35 9 -55 1 -77 -28 -17 -23
-19 -31 -9 -53 7 -14 25 -31 40 -38 16 -7 27 -18 25 -24 -4 -10 3 -10 26 -2
66 23 82 99 32 150 -37 37 -79 38 -120 3z m102 -36 c16 -25 16 -73 1 -88 -16
-16 -84 8 -93 33 -23 62 58 110 92 55z"/>
<path d="M2493 1473 c-7 -3 -13 -12 -13 -22 0 -9 -5 -22 -11 -28 -6 -6 -8 -16
-4 -22 4 -8 15 -4 31 11 33 32 31 73 -3 61z"/>
<path d="M181 1476 c-7 -8 -10 -20 -6 -26 4 -7 -2 -7 -19 0 -21 8 -27 6 -37
-11 -13 -25 -4 -53 16 -45 18 6 31 -12 17 -26 -6 -6 -12 -6 -16 1 -14 23 -36
11 -36 -19 0 -21 5 -30 16 -30 11 0 14 -5 10 -16 -4 -9 -1 -23 5 -30 17 -21
50 -17 56 6 3 12 12 19 22 18 10 -2 17 5 19 19 3 19 8 21 31 17 21 -4 30 -1
35 11 8 22 -12 48 -32 40 -11 -4 -13 0 -9 15 4 14 0 24 -11 28 -10 4 -17 18
-17 32 0 29 -26 38 -44 16z m29 -31 c-11 -14 -10 -17 8 -22 15 -3 22 -13 22
-29 0 -17 6 -24 20 -24 11 0 20 -7 20 -15 0 -17 -26 -21 -32 -4 -6 17 -40 -2
-35 -21 3 -11 -2 -16 -17 -16 -14 1 -21 -5 -21 -19 0 -11 -8 -21 -19 -23 -16
-3 -18 0 -12 23 6 22 3 28 -14 32 -12 3 -20 14 -20 25 0 17 2 18 16 8 12 -11
18 -10 31 3 21 21 9 51 -17 44 -21 -6 -25 0 -11 21 5 9 17 11 34 6 22 -5 27
-3 27 13 0 25 11 36 23 24 7 -7 6 -16 -3 -26z"/>
<path d="M1681 1476 c-7 -8 -10 -20 -6 -26 4 -7 -2 -7 -19 0 -21 8 -27 6 -36
-10 -17 -32 -13 -53 10 -47 23 6 37 -10 22 -25 -6 -6 -12 -6 -16 1 -14 23 -36
11 -36 -19 0 -21 5 -30 16 -30 10 0 13 -6 9 -19 -7 -22 17 -44 42 -39 10 2 17
12 17 21 -2 13 4 17 20 15 15 -2 22 3 24 19 3 19 8 21 31 17 21 -4 30 -1 35
11 8 22 -12 48 -32 40 -11 -4 -13 0 -9 15 4 14 0 24 -11 28 -10 4 -17 18 -17
32 0 29 -26 38 -44 16z m29 -31 c-11 -14 -10 -17 8 -22 15 -3 22 -13 22 -29 0
-17 6 -24 20 -24 11 0 20 -7 20 -15 0 -17 -26 -21 -32 -4 -6 17 -40 -2 -35
-21 3 -11 -2 -16 -17 -16 -14 1 -21 -5 -21 -19 0 -11 -8 -21 -19 -23 -16 -3
-18 0 -12 23 6 22 3 28 -14 32 -12 3 -20 14 -20 25 0 17 2 18 16 8 12 -11 18
-10 31 3 21 21 9 51 -17 44 -21 -6 -25 0 -11 21 5 9 17 11 34 6 22 -5 27 -3
27 13 0 25 11 36 23 24 7 -7 6 -16 -3 -26z"/>
<path d="M1134 1443 c-7 -28 4 -54 27 -62 9 -3 8 1 -4 13 -22 22 -22 45 1 62
16 13 16 13 0 14 -11 0 -20 -10 -24 -27z"/>
<path d="M1193 1459 c9 -5 17 -19 17 -31 0 -11 -8 -27 -17 -34 -17 -12 -17
-13 -1 -14 10 0 22 10 29 21 14 27 -3 69 -28 69 -17 -1 -17 -1 0 -11z"/>
<path d="M2634 1443 c-7 -28 4 -54 27 -62 9 -3 8 1 -4 13 -22 22 -22 45 1 62
16 13 16 13 0 14 -11 0 -20 -10 -24 -27z"/>
<path d="M2693 1459 c9 -5 17 -19 17 -31 0 -11 -8 -27 -17 -34 -17 -12 -17
-13 -1 -14 10 0 22 10 29 21 14 27 -3 69 -28 69 -17 -1 -17 -1 0 -11z"/>
<path d="M20 1435 c-6 -15 -13 -32 -17 -38 -3 -5 0 -8 8 -5 13 4 32 58 24 66
-2 3 -9 -8 -15 -23z"/>
<path d="M1516 1428 c-16 -31 -14 -51 3 -32 10 10 24 64 17 64 -3 0 -12 -14
-20 -32z"/>
<path d="M600 1411 c0 -17 31 -74 37 -68 2 3 0 14 -6 25 -6 11 -8 22 -5 24 2
3 -2 11 -11 18 -11 9 -15 9 -15 1z"/>
<path d="M2100 1411 c0 -17 31 -74 37 -68 2 3 0 14 -6 25 -6 11 -8 22 -5 24 2
3 -2 11 -11 18 -11 9 -15 9 -15 1z"/>
<path d="M1442 1323 c-11 -19 3 -57 31 -85 12 -13 17 -34 17 -70 0 -76 9 -87
57 -64 91 42 100 68 39 104 -18 11 -43 34 -56 53 -13 18 -19 29 -12 25 7 -4
12 -2 12 3 0 6 -4 11 -9 11 -5 0 -11 9 -14 20 -6 25 -52 27 -65 3z m49 -5 c0
-7 2 -20 4 -29 2 -12 -3 -15 -21 -11 -34 6 -32 52 3 52 7 0 13 -6 14 -12z m51
-125 c-25 -21 -36 -15 -48 22 -9 30 -9 37 4 44 11 6 21 0 37 -23 20 -28 21
-32 7 -43z m61 -22 c4 9 6 10 6 2 1 -14 -69 -53 -94 -53 -22 0 -20 50 3 50 9
0 26 7 37 15 17 14 20 13 31 -6 8 -17 13 -19 17 -8z"/>
<path d="M2942 1323 c-11 -19 4 -61 28 -80 9 -7 17 -36 21 -75 l6 -63 1 55 c1
30 -2 62 -7 70 -6 8 -7 19 -3 25 14 22 9 32 -15 27 -21 -4 -24 -1 -21 19 4 29
34 38 41 12 4 -14 5 -13 6 5 1 17 -4 22 -24 22 -13 0 -28 -8 -33 -17z"/>
<path d="M1 1297 c0 -21 2 -36 6 -34 5 3 18 -11 31 -30 l22 -35 -30 -11 c-16
-6 -30 -15 -30 -19 0 -9 27 0 57 19 19 13 22 12 28 -8 6 -17 9 -19 16 -8 6 10
9 10 9 2 0 -14 -70 -53 -95 -53 -15 0 -20 -12 -9 -23 8 -8 63 12 96 35 33 23
28 50 -16 76 -18 11 -43 34 -56 53 -13 18 -19 29 -12 25 7 -4 12 -2 12 3 0 6
-4 11 -9 11 -5 0 -12 8 -14 18 -3 9 -5 0 -6 -21z"/>
<path d="M425 1300 c-64 -26 -90 -50 -67 -64 12 -7 161 50 192 74 l25 20 -40
-1 c-22 -1 -71 -14 -110 -29z"/>
<path d="M1137 1306 c-61 -36 -64 -42 -37 -71 13 -13 32 -27 42 -31 15 -4 18
-12 14 -29 -7 -26 11 -85 25 -85 17 0 109 50 109 59 0 16 -51 71 -66 71 -9 0
-14 11 -14 33 0 45 -10 77 -24 76 -6 0 -28 -11 -49 -23z m63 -14 c0 -5 -12
-15 -27 -22 -16 -8 -35 -20 -45 -28 -11 -10 -18 -10 -23 -2 -4 6 -5 12 -4 14
55 38 99 55 99 38z m-10 -47 c0 -20 -5 -25 -24 -25 -47 0 -36 25 22 49 1 1 2
-10 2 -24z m48 -45 c33 -20 40 -34 22 -45 -5 -3 -10 -1 -10 4 0 14 -47 14 -55
1 -4 -6 -1 -17 5 -25 7 -8 10 -15 7 -15 -3 0 -12 -3 -21 -6 -13 -5 -16 2 -16
44 0 45 6 58 30 61 3 1 20 -8 38 -19z"/>
<path d="M1925 1300 c-64 -26 -90 -50 -67 -64 12 -7 161 50 192 74 l25 20 -40
-1 c-22 -1 -71 -14 -110 -29z"/>
<path d="M2637 1306 c-61 -36 -64 -42 -37 -71 13 -13 32 -27 42 -31 15 -4 18
-12 14 -29 -7 -26 11 -85 25 -85 17 0 109 50 109 59 0 16 -51 71 -66 71 -9 0
-14 11 -14 33 0 45 -10 77 -24 76 -6 0 -28 -11 -49 -23z m63 -14 c0 -5 -12
-15 -27 -22 -16 -8 -35 -20 -45 -28 -11 -10 -18 -10 -23 -2 -4 6 -5 12 -4 14
55 38 99 55 99 38z m-10 -47 c0 -20 -5 -25 -24 -25 -47 0 -36 25 22 49 1 1 2
-10 2 -24z m48 -45 c33 -20 40 -34 22 -45 -5 -3 -10 -1 -10 4 0 14 -47 14 -55
1 -4 -6 -1 -17 5 -25 7 -8 10 -15 7 -15 -3 0 -12 -3 -21 -6 -13 -5 -16 2 -16
44 0 45 6 58 30 61 3 1 20 -8 38 -19z"/>
<path d="M693 1307 c-40 -21 -60 -90 -38 -133 17 -33 44 -56 59 -51 7 3 18 1
23 -4 13 -13 85 12 91 33 2 10 8 18 12 18 9 0 23 40 20 55 -1 6 -3 15 -4 22
-4 24 -38 51 -69 56 -18 3 -41 7 -52 10 -11 3 -30 0 -42 -6z m60 -55 c-2 -26
-9 -51 -14 -56 -5 -6 -9 -20 -9 -32 0 -12 -6 -24 -14 -27 -32 -13 -78 91 -50
114 8 6 14 17 14 23 0 15 40 33 62 28 13 -3 15 -13 11 -50z m73 23 c23 -22 25
-66 4 -100 -16 -27 -62 -55 -88 -55 -5 0 2 46 19 118 11 44 16 52 34 50 11 -2
25 -8 31 -13z"/>
<path d="M700 1263 c-13 -15 -12 -16 2 -11 18 7 32 -16 22 -35 -5 -9 -4 -9 5
-1 10 9 10 17 2 32 -8 15 -8 22 2 25 8 4 7 6 -3 6 -8 0 -22 -7 -30 -16z"/>
<path d="M788 1203 c-10 -2 -18 -8 -19 -11 0 -4 -2 -18 -5 -31 -4 -20 -2 -22
11 -11 8 7 12 17 9 22 -4 6 0 14 7 19 8 5 17 3 21 -4 5 -8 8 -6 8 6 0 17 -2
18 -32 10z"/>
<path d="M2193 1307 c-41 -21 -60 -90 -37 -135 14 -27 52 -57 61 -48 3 3 12 1
19 -4 16 -14 94 17 94 36 0 8 4 14 9 14 9 0 24 39 21 55 -1 6 -3 15 -4 22 -4
24 -38 51 -69 56 -18 3 -41 7 -52 10 -11 3 -30 0 -42 -6z m60 -55 c-2 -26 -9
-51 -14 -56 -5 -6 -9 -20 -9 -32 0 -12 -6 -24 -14 -27 -32 -13 -78 91 -50 114
8 6 14 17 14 23 0 15 40 33 62 28 13 -3 15 -13 11 -50z m73 23 c23 -22 25 -66
4 -100 -16 -27 -62 -55 -88 -55 -5 0 2 46 19 118 11 44 16 52 34 50 11 -2 25
-8 31 -13z"/>
<path d="M2200 1263 c-13 -15 -12 -16 2 -11 18 7 32 -16 22 -35 -5 -9 -4 -9 5
-1 10 9 10 17 2 32 -8 15 -8 22 2 25 8 4 7 6 -3 6 -8 0 -22 -7 -30 -16z"/>
<path d="M2288 1203 c-10 -2 -18 -8 -19 -11 -6 -49 -5 -51 8 -41 7 6 10 16 7
21 -4 6 0 14 7 19 8 5 17 3 21 -4 5 -8 8 -6 8 6 0 17 -2 18 -32 10z"/>
<path d="M1308 1273 c-16 -4 -17 -7 -3 -34 16 -31 51 -45 84 -34 27 8 26 20
-4 50 -23 24 -40 28 -77 18z m74 -34 c11 -11 14 -20 8 -24 -6 -3 -10 -1 -10 6
0 9 -4 9 -15 -1 -18 -15 -35 -5 -35 23 0 18 -2 19 -10 7 -5 -8 -10 -10 -10 -4
0 28 43 24 72 -7z"/>
<path d="M2808 1273 c-19 -5 -24 -18 -9 -27 5 -3 11 0 14 8 4 9 14 12 29 9 29
-7 61 -40 48 -48 -6 -3 -10 -1 -10 6 0 9 -4 9 -15 -1 -18 -15 -35 -5 -35 23
-1 21 -1 21 -12 3 -9 -15 -7 -22 8 -33 20 -15 53 -17 73 -4 10 7 11 13 2 29
-19 35 -49 47 -93 35z"/>
<path d="M229 1203 c-13 -15 -12 -15 8 -4 19 10 25 8 40 -9 20 -23 33 -26 33
-7 0 13 -39 37 -59 37 -5 0 -15 -7 -22 -17z"/>
<path d="M1729 1203 c-13 -15 -12 -15 10 -3 22 11 27 11 39 -9 16 -24 32 -28
32 -8 0 13 -39 37 -59 37 -5 0 -15 -7 -22 -17z"/>
<path d="M902 1154 c-18 -13 -21 -19 -11 -30 9 -11 15 -12 26 -3 7 7 17 9 21
5 4 -4 -3 -16 -15 -26 -26 -21 -31 -50 -8 -50 23 0 65 49 65 75 0 14 -8 29
-19 35 -26 13 -33 13 -59 -6z"/>
<path d="M2402 1154 c-18 -13 -21 -19 -11 -30 9 -11 15 -12 26 -3 7 7 17 9 21
5 4 -4 -3 -16 -15 -26 -26 -21 -31 -50 -8 -50 23 0 65 49 65 75 0 14 -8 29
-19 35 -26 13 -33 13 -59 -6z"/>
<path d="M199 1143 c-1 -5 -1 -11 0 -15 0 -4 -10 -15 -24 -24 -28 -18 -33 -49
-10 -58 8 -3 15 -17 15 -31 0 -27 31 -48 38 -27 5 16 20 15 38 -2 9 -10 11
-17 4 -21 -8 -5 -8 -11 0 -20 6 -8 10 -22 8 -32 -2 -11 3 -18 12 -18 8 0 20
-6 26 -14 11 -14 39 -6 29 8 -2 5 7 13 20 19 25 12 34 32 14 32 -6 0 -9 9 -6
20 5 20 -15 45 -27 33 -4 -4 -10 -3 -14 3 -4 7 -15 8 -27 3 -11 -4 -14 -8 -7
-8 7 -1 10 -6 7 -12 -5 -7 -16 -3 -31 12 -20 19 -30 20 -61 7 -3 -2 -7 4 -9
12 -1 8 -5 23 -9 33 -5 12 -2 17 10 17 12 0 15 -5 10 -20 -7 -22 10 -28 19 -7
5 10 7 10 12 0 8 -18 27 -16 20 2 -4 10 1 15 15 15 17 0 18 -3 8 -21 -11 -21
-11 -21 15 -3 29 21 35 64 10 64 -11 0 -14 5 -10 16 4 9 1 23 -5 30 -9 12 -15
12 -27 2 -12 -10 -16 -10 -19 0 -5 13 -42 17 -44 5z m36 -13 c4 -6 15 -8 25
-5 15 5 19 0 22 -22 2 -16 8 -27 16 -25 6 1 12 -5 12 -13 0 -8 -4 -15 -10 -15
-5 0 -10 5 -10 10 0 6 -7 10 -16 10 -11 0 -14 6 -9 20 7 22 -10 28 -19 8 -5
-10 -7 -10 -12 0 -9 18 -25 15 -22 -5 2 -12 -3 -17 -14 -15 -10 2 -18 -2 -18
-8 0 -5 -4 -10 -10 -10 -5 0 -10 7 -10 15 0 8 6 15 13 15 8 0 20 11 27 25 14
27 25 31 35 15z m103 -187 c5 -17 -26 -29 -40 -15 -6 6 -7 15 -3 22 9 14 37 9
43 -7z"/>
<path d="M470 1130 c-39 -39 -20 -102 36 -116 13 -4 29 -15 35 -25 13 -26 55
-25 62 1 3 11 -1 27 -9 34 -8 8 -14 32 -14 54 0 66 -65 97 -110 52z m84 -6
c21 -20 22 -102 1 -110 -8 -3 -31 2 -52 13 -30 14 -39 24 -41 50 -5 51 57 83
92 47z"/>
<path d="M502 1094 c-30 -21 -28 -29 16 -53 l37 -21 -30 25 c-16 14 -24 25
-17 25 7 0 10 4 7 10 -3 6 1 7 9 4 8 -3 18 -15 22 -26 9 -30 15 -15 8 20 -7
36 -19 39 -52 16z"/>
<path d="M1699 1143 c-1 -5 -1 -11 0 -15 0 -4 -10 -15 -24 -24 -28 -18 -33
-49 -10 -58 8 -3 15 -17 15 -31 0 -27 31 -48 38 -27 5 16 20 15 38 -2 9 -10
11 -17 4 -21 -8 -5 -8 -11 0 -20 6 -8 10 -22 8 -32 -2 -11 3 -18 12 -18 8 0
20 -6 26 -14 11 -14 39 -6 29 8 -2 5 7 13 20 19 25 12 34 32 14 32 -6 0 -9 9
-6 20 5 20 -15 45 -27 33 -4 -4 -10 -3 -14 3 -4 7 -15 8 -27 3 -11 -4 -14 -8
-7 -8 7 -1 10 -6 7 -12 -5 -7 -16 -3 -31 12 -20 19 -30 20 -61 7 -3 -2 -7 4
-9 12 -1 8 -5 23 -9 33 -5 12 -2 17 10 17 12 0 15 -5 10 -20 -7 -22 10 -28 19
-7 5 10 7 10 12 0 8 -18 27 -16 20 2 -4 10 1 15 15 15 17 0 18 -3 8 -21 -11
-21 -11 -21 15 -3 29 21 35 64 10 64 -11 0 -14 5 -10 16 4 9 1 23 -5 30 -9 12
-15 12 -27 2 -12 -10 -16 -10 -19 0 -5 13 -42 17 -44 5z m36 -13 c4 -6 15 -8
25 -5 15 5 19 0 22 -22 2 -16 8 -27 16 -25 6 1 12 -5 12 -13 0 -8 -4 -15 -10
-15 -5 0 -10 5 -10 10 0 6 -7 10 -16 10 -11 0 -14 6 -9 20 7 22 -10 28 -19 8
-5 -10 -7 -10 -12 0 -9 18 -25 15 -22 -5 2 -12 -3 -17 -14 -15 -10 2 -18 -2
-18 -8 0 -5 -4 -10 -10 -10 -5 0 -10 7 -10 15 0 8 7 15 15 15 9 0 21 11 27 25
12 27 23 31 33 15z m103 -187 c5 -17 -26 -29 -40 -15 -6 6 -7 15 -3 22 9 14
37 9 43 -7z"/>
<path d="M1970 1130 c-39 -39 -20 -102 36 -116 13 -4 29 -15 35 -25 13 -26 55
-25 62 1 3 11 -1 27 -9 34 -8 8 -14 32 -14 54 0 66 -65 97 -110 52z m84 -6
c17 -17 21 -80 7 -103 -9 -15 -41 -9 -78 15 -31 19 -31 67 -1 88 29 20 52 20
72 0z"/>
<path d="M2002 1094 c-30 -21 -28 -29 16 -53 l37 -21 -30 25 c-16 14 -24 25
-17 25 7 0 10 4 7 10 -3 6 1 7 9 4 8 -3 18 -15 22 -26 9 -30 15 -15 8 20 -7
36 -19 39 -52 16z"/>
<path d="M1362 1088 c-31 -31 2 -73 39 -49 11 6 19 7 19 1 0 -5 11 -12 24 -16
15 -3 23 -11 20 -19 -7 -16 23 -46 40 -39 20 8 38 -42 24 -66 -17 -27 13 -60
40 -44 25 16 28 54 4 61 -22 5 -45 46 -46 83 -1 19 -7 25 -26 26 -40 2 -70 18
-83 44 -14 29 -37 36 -55 18z m38 -13 c13 -16 6 -35 -15 -35 -18 0 -28 17 -21
35 7 19 20 19 36 0z m120 -75 c0 -11 -4 -20 -10 -20 -5 0 -7 7 -4 15 5 11 2
13 -10 9 -9 -3 -13 -11 -9 -18 4 -8 2 -8 -7 1 -16 14 -5 33 21 33 12 0 19 -7
19 -20z m58 -111 c2 -9 -5 -20 -15 -23 -14 -6 -16 -5 -5 5 19 20 14 31 -8 19
-11 -6 -20 -7 -20 -2 0 27 43 27 48 1z"/>
<path d="M2861 1086 c-21 -25 -9 -51 24 -52 41 -1 86 -14 80 -24 -8 -12 5 -38
21 -44 9 -3 14 1 14 14 0 11 -5 20 -11 20 -5 0 -7 -6 -3 -12 5 -9 3 -9 -7 0
-12 11 -11 16 6 29 11 8 13 13 5 11 -21 -6 -61 17 -74 44 -14 28 -38 34 -55
14z m39 -11 c13 -16 6 -35 -15 -35 -18 0 -28 17 -21 35 7 19 20 19 36 0z"/>
<path d="M1072 1083 c-7 -3 -29 -30 -48 -60 -28 -44 -33 -58 -22 -64 7 -5 19
-7 25 -4 7 2 12 1 11 -3 -2 -4 9 -20 24 -35 20 -21 38 -29 71 -32 25 -2 55 -9
67 -15 12 -6 23 -10 23 -8 30 54 54 119 47 123 -5 3 -7 12 -4 19 7 17 -36 29
-79 21 -28 -5 -35 -2 -55 30 -21 34 -33 39 -60 28z m68 -75 c0 -21 -2 -20 -32
8 l-33 29 28 -31 c36 -40 35 -55 -3 -19 -25 24 -32 26 -45 15 -14 -12 -13 -16
11 -41 25 -26 28 -27 40 -11 19 25 17 5 -3 -28 l-16 -28 -17 21 c-9 12 -20 30
-23 41 -6 14 -10 16 -21 7 -10 -8 -16 -9 -21 -1 -3 5 1 10 10 10 11 0 15 5 11
15 -3 9 1 18 9 21 8 4 13 9 11 13 -2 3 2 15 10 26 8 10 14 14 14 9 0 -6 -3
-14 -7 -20 -5 -5 1 1 12 14 l20 23 22 -26 c13 -14 23 -36 23 -47z m96 6 c16
-4 20 -13 19 -35 -1 -16 -5 -32 -10 -37 -4 -4 -5 4 -1 18 3 14 -2 9 -12 -12
-9 -21 -24 -38 -32 -38 -9 0 -22 -6 -30 -12 -12 -11 -12 -10 -1 5 12 15 10 17
-20 16 -28 0 -31 -2 -14 -9 16 -7 17 -9 3 -9 -28 -1 -30 15 -6 63 16 33 28 46
47 49 14 2 28 5 31 5 3 1 14 -1 26 -4z"/>
<path d="M1185 971 l30 -8 -35 -5 -35 -6 35 2 c41 1 43 20 3 23 -28 2 -28 2 2
-6z"/>
<path d="M2572 1083 c-7 -3 -29 -30 -48 -60 -28 -44 -33 -58 -22 -64 7 -5 19
-7 25 -4 7 2 12 1 11 -3 -2 -4 9 -20 24 -35 20 -21 38 -29 71 -32 25 -2 55 -9
67 -15 12 -6 23 -10 23 -8 30 54 54 119 47 123 -5 3 -7 12 -4 19 7 17 -36 29
-79 21 -28 -5 -35 -2 -55 30 -21 34 -33 39 -60 28z m68 -75 c0 -21 -2 -20 -32
8 l-33 29 28 -31 c36 -40 35 -55 -3 -19 -25 24 -32 26 -45 15 -14 -12 -13 -16
11 -41 25 -26 28 -27 40 -11 19 25 17 5 -3 -28 l-16 -28 -19 24 c-11 13 -17
28 -14 33 8 13 -20 21 -32 9 -6 -6 -12 -6 -16 1 -4 6 0 11 9 11 11 0 15 5 11
15 -3 8 2 18 10 23 9 5 17 13 17 18 1 5 5 8 9 7 4 -2 13 7 19 19 l12 22 23
-28 c13 -15 24 -37 24 -48z m96 6 c16 -4 20 -13 19 -35 -1 -16 -5 -32 -10 -37
-4 -4 -5 4 -1 18 3 14 -2 9 -12 -12 -9 -21 -24 -38 -32 -38 -9 0 -22 -6 -30
-12 -12 -11 -12 -10 -1 5 12 15 10 17 -20 16 -28 0 -31 -2 -14 -9 16 -7 17 -9
3 -9 -28 -1 -30 15 -6 63 16 33 28 46 47 49 14 2 28 5 31 5 3 1 14 -1 26 -4z"/>
<path d="M2685 971 l30 -8 -35 -5 -35 -6 35 2 c41 1 43 20 3 23 -28 2 -28 2 2
-6z"/>
<path d="M705 1052 c-17 -12 -14 -43 4 -40 28 5 40 21 25 35 -15 15 -16 15
-29 5z"/>
<path d="M2205 1052 c-17 -12 -14 -43 4 -40 28 5 40 21 25 35 -15 15 -16 15
-29 5z"/>
<path d="M886 1031 c-9 -15 23 -36 36 -23 5 5 7 15 4 21 -9 13 -33 14 -40 2z"/>
<path d="M2386 1032 c-9 -14 12 -35 28 -29 23 9 20 37 -3 37 -11 0 -22 -4 -25
-8z"/>
<path d="M10 1023 c14 -7 12 -43 -2 -43 -9 0 -10 -3 -2 -8 24 -16 35 -51 22
-72 -11 -16 -10 -23 5 -37 13 -14 21 -15 35 -7 25 16 28 54 4 61 -22 5 -44 46
-46 82 -1 13 -7 25 -14 27 -7 1 -8 0 -2 -3z m68 -134 c2 -9 -5 -20 -15 -23
-14 -6 -16 -5 -5 5 19 20 14 31 -8 19 -11 -6 -20 -7 -20 -2 0 27 43 27 48 1z"/>
<path d="M1354 955 c8 -22 -11 -65 -29 -65 -26 0 -65 -46 -64 -77 0 -27 1 -27
12 7 8 24 23 40 49 53 22 11 38 27 42 42 6 25 20 32 30 16 4 -5 2 -20 -3 -33
-6 -17 -5 -29 5 -43 21 -28 17 -71 -8 -95 -12 -11 -17 -20 -10 -20 31 0 58 99
31 116 -14 8 -4 65 14 76 9 6 7 12 -7 23 -27 20 -70 20 -62 0z"/>
<path d="M2854 955 c8 -22 -11 -65 -29 -65 -26 0 -65 -46 -64 -77 0 -27 1 -27
12 7 8 24 23 40 49 53 22 11 38 27 42 42 6 25 20 32 30 16 4 -5 2 -20 -3 -33
-6 -17 -5 -29 5 -43 21 -28 17 -71 -8 -95 -12 -11 -17 -20 -10 -20 31 0 58 99
31 116 -14 8 -4 65 14 76 9 6 7 12 -7 23 -27 20 -70 20 -62 0z"/>
<path d="M787 954 c-4 -4 -7 -16 -7 -26 0 -13 -7 -18 -25 -18 -20 0 -25 -5
-25 -24 0 -15 7 -26 20 -29 16 -4 20 -14 20 -50 0 -36 4 -46 19 -50 23 -6 41
10 41 35 0 15 6 17 44 12 l43 -6 6 38 c4 22 7 56 7 77 l0 37 -47 0 c-27 0 -57
3 -68 6 -11 3 -24 2 -28 -2z m41 -27 c2 -12 -3 -17 -17 -17 -12 0 -21 6 -21
13 0 31 32 34 38 4z m92 -7 c0 -13 -7 -20 -20 -20 -13 0 -20 7 -20 20 0 13 7
20 20 20 13 0 20 -7 20 -20z m-140 -35 c0 -8 -9 -15 -20 -15 -11 0 -20 7 -20
15 0 8 9 15 20 15 11 0 20 -7 20 -15z m40 -5 c0 -11 -7 -20 -15 -20 -8 0 -15
9 -15 20 0 11 7 20 15 20 8 0 15 -9 15 -20z m50 0 c0 -13 -7 -20 -20 -20 -13
0 -20 7 -20 20 0 13 7 20 20 20 13 0 20 -7 20 -20z m48 -2 c-7 -19 -38 -22
-38 -4 0 10 9 16 21 16 12 0 19 -5 17 -12z m-98 -49 c0 -15 -4 -19 -16 -15 -9
3 -18 6 -20 6 -2 0 -4 7 -4 15 0 8 9 15 20 15 14 0 20 -7 20 -21z m90 1 c0
-11 -6 -20 -13 -20 -19 0 -27 10 -20 26 8 21 33 17 33 -6z m-106 -26 c18 -7
10 -34 -10 -34 -8 0 -14 9 -14 20 0 22 1 23 24 14z"/>
<path d="M2287 954 c-4 -4 -7 -16 -7 -26 0 -13 -7 -18 -25 -18 -20 0 -25 -5
-25 -24 0 -15 7 -26 20 -29 16 -4 20 -14 20 -50 0 -36 4 -46 19 -50 23 -6 41
10 41 35 0 15 6 17 44 12 42 -6 43 -6 50 26 3 18 6 52 6 76 l0 44 -47 0 c-27
0 -57 3 -68 6 -11 3 -24 2 -28 -2z m41 -27 c2 -12 -3 -17 -17 -17 -12 0 -21 6
-21 13 0 31 32 34 38 4z m92 -7 c0 -13 -7 -20 -20 -20 -13 0 -20 7 -20 20 0
13 7 20 20 20 13 0 20 -7 20 -20z m-140 -35 c0 -8 -9 -15 -20 -15 -11 0 -20 7
-20 15 0 8 9 15 20 15 11 0 20 -7 20 -15z m40 -5 c0 -11 -7 -20 -15 -20 -8 0
-15 9 -15 20 0 11 7 20 15 20 8 0 15 -9 15 -20z m50 0 c0 -13 -7 -20 -20 -20
-13 0 -20 7 -20 20 0 13 7 20 20 20 13 0 20 -7 20 -20z m48 -2 c-7 -19 -38
-22 -38 -4 0 10 9 16 21 16 12 0 19 -5 17 -12z m-102 -65 c-3 -21 -5 -39 -6
-40 0 -2 -7 -3 -15 -3 -18 0 -20 40 -2 41 10 0 10 2 0 6 -21 8 -15 33 8 33 18
0 20 -4 15 -37z m94 17 c0 -11 -6 -20 -13 -20 -19 0 -27 10 -20 26 8 21 33 17
33 -6z"/>
<path d="M570 904 l-35 -14 40 6 c22 3 44 10 50 15 13 13 -14 10 -55 -7z"/>
<path d="M2070 904 l-35 -14 40 6 c22 3 44 10 50 15 13 13 -14 10 -55 -7z"/>
<path d="M171 868 c-1 -10 -5 -18 -11 -18 -5 0 -7 -6 -4 -14 3 -8 14 -14 24
-13 21 1 35 37 15 37 -7 0 -16 6 -18 13 -3 7 -6 5 -6 -5z"/>
<path d="M1671 868 c-1 -10 -5 -18 -11 -18 -5 0 -7 -6 -4 -14 3 -8 14 -14 24
-13 21 1 35 37 15 37 -7 0 -16 6 -18 13 -3 7 -6 5 -6 -5z"/>
<path d="M421 847 c-20 -20 -13 -44 12 -44 26 0 32 23 12 44 -9 9 -15 9 -24 0z"/>
<path d="M1922 844 c-20 -21 -14 -41 11 -41 25 0 32 23 13 43 -9 8 -15 8 -24
-2z"/>
<path d="M553 820 c-89 -54 -43 -195 64 -195 60 0 103 44 103 106 0 51 -13 75
-50 94 -39 20 -79 19 -117 -5z m128 -19 c76 -77 -5 -199 -104 -157 -41 17 -57
41 -57 88 0 87 100 130 161 69z"/>
<path d="M570 804 c-17 -10 -18 -13 -5 -9 45 16 55 17 55 7 0 -6 -10 -12 -22
-14 -12 -2 -29 -15 -37 -30 -38 -67 61 -122 102 -56 13 20 -32 72 -59 66 -20
-3 -32 -44 -17 -59 5 -5 9 3 8 18 0 33 31 45 42 16 4 -10 11 -21 17 -25 16
-10 -13 -38 -40 -38 -29 0 -58 41 -49 69 7 23 45 37 71 27 14 -5 15 -4 4 9
-22 27 -2 28 24 2 30 -30 34 -71 10 -107 l-16 -25 21 24 c32 36 28 84 -10 115
-35 29 -63 32 -99 10z"/>
<path d="M531 739 c-1 -23 7 -46 19 -61 20 -26 66 -42 76 -27 3 5 -5 9 -18 9
-38 0 -61 24 -68 71 -7 43 -8 44 -9 8z"/>
<path d="M2053 820 c-89 -54 -43 -195 64 -195 60 0 103 44 103 106 0 51 -13
75 -50 94 -39 20 -79 19 -117 -5z m128 -19 c76 -77 -5 -199 -104 -157 -41 17
-57 41 -57 88 0 87 100 130 161 69z"/>
<path d="M2070 804 c-17 -10 -18 -13 -5 -9 45 16 55 17 55 7 0 -6 -10 -12 -22
-14 -12 -2 -29 -15 -37 -30 -38 -67 61 -122 102 -56 13 20 -32 72 -59 66 -20
-3 -32 -44 -17 -59 5 -5 9 3 8 18 0 33 31 45 42 16 4 -10 11 -21 17 -25 16
-10 -13 -38 -40 -38 -29 0 -58 41 -49 69 7 23 45 37 71 27 14 -5 15 -4 4 9
-22 27 -2 28 24 2 30 -30 34 -71 10 -107 l-16 -25 21 24 c37 41 24 103 -26
129 -29 16 -53 15 -83 -4z"/>
<path d="M2031 739 c-1 -22 7 -46 19 -61 21 -27 66 -42 77 -25 3 5 2 8 -3 4
-5 -3 -24 1 -41 8 -26 11 -33 21 -38 52 -10 56 -13 62 -14 22z"/>
<path d="M1090 812 c-21 -17 -22 -24 -16 -75 8 -64 41 -120 73 -125 32 -5 82
25 89 53 9 36 -12 80 -60 126 -47 44 -55 46 -86 21z m57 -35 c10 -12 26 -21
35 -19 9 2 22 -6 28 -19 8 -14 8 -19 1 -15 -7 5 -9 1 -5 -8 3 -9 9 -14 13 -12
4 3 6 -7 6 -20 -2 -30 -21 -51 -56 -59 -21 -5 -31 0 -54 26 -18 22 -23 35 -15
37 10 4 9 6 0 12 -9 6 -3 13 19 24 17 9 31 19 31 22 0 2 -8 0 -19 -5 -22 -12
-31 -5 -31 24 0 41 20 46 47 12z"/>
<path d="M1140 711 c0 -22 27 -59 38 -52 9 5 9 13 -1 34 -11 25 -37 38 -37 18z"/>
<path d="M1277 798 c-5 -33 6 -58 26 -58 5 0 2 10 -9 23 -19 22 -19 22 2 5 27
-24 67 -23 89 2 21 24 22 23 -34 39 -23 7 -49 15 -56 17 -8 3 -14 -7 -18 -28z"/>
<path d="M2585 810 c-37 -41 9 -190 62 -198 32 -5 82 25 89 53 9 36 -12 80
-60 126 -46 44 -65 48 -91 19z m62 -33 c10 -13 24 -22 32 -19 9 3 11 0 6 -8
-6 -10 -4 -12 8 -7 9 3 18 0 21 -9 3 -8 1 -12 -4 -9 -6 3 -7 -1 -4 -9 3 -9 9
-14 13 -12 4 3 6 -7 6 -20 -2 -30 -21 -51 -56 -59 -21 -5 -31 0 -54 26 -18 22
-23 35 -15 37 10 4 9 6 0 12 -9 6 -3 13 19 24 17 9 31 19 31 22 0 2 -8 0 -19
-5 -22 -12 -31 -5 -31 24 0 41 20 46 47 12z"/>
<path d="M2640 712 c0 -5 6 -21 13 -35 9 -18 17 -23 27 -17 10 6 11 12 3 22
-6 7 -11 18 -12 23 0 13 -31 20 -31 7z"/>
<path d="M2777 798 c-5 -33 6 -58 26 -58 5 0 2 10 -9 23 -19 22 -19 22 2 5 27
-24 67 -23 89 2 21 24 22 23 -34 39 -23 7 -49 15 -56 17 -8 3 -14 -7 -18 -28z"/>
<path d="M3 740 c0 -27 5 -44 16 -50 44 -25 45 -28 31 -45 -15 -18 -6 -31 24
-37 10 -2 24 6 33 19 14 21 12 23 -35 55 -42 27 -49 37 -48 62 0 16 -4 31 -10
33 -7 2 -11 -11 -11 -37z"/>
<path d="M181 754 c-43 -36 -44 -94 -2 -133 28 -26 29 -30 20 -77 -10 -55 -7
-74 15 -74 20 0 23 6 31 63 6 39 5 47 -9 47 -9 0 -16 5 -16 10 0 6 6 10 13 9
31 -4 50 3 72 26 36 35 34 88 -4 126 -37 37 -79 38 -120 3z m92 4 c12 -6 27
-18 34 -27 15 -20 17 -71 2 -71 -6 0 -9 7 -5 15 9 23 -15 65 -40 71 -35 9 -55
1 -77 -28 -17 -23 -19 -31 -9 -53 7 -14 27 -32 45 -40 32 -14 32 -14 5 -15
-51 0 -88 81 -55 122 28 35 65 45 100 26z m10 -40 c16 -25 16 -73 1 -88 -16
-16 -84 8 -93 33 -23 62 58 110 92 55z"/>
<path d="M243 723 c-7 -3 -13 -12 -13 -22 0 -9 -5 -22 -11 -28 -6 -6 -8 -16
-4 -22 4 -8 15 -4 31 11 33 32 31 73 -3 61z"/>
<path d="M1462 757 c-40 -42 -17 -98 28 -69 16 10 33 4 69 -24 2 -2 -2 -11 -9
-19 -15 -18 -6 -31 24 -37 10 -2 24 6 33 19 14 21 12 23 -35 55 -42 27 -49 37
-48 63 1 39 -31 46 -62 12z m38 -27 c-6 -10 -14 -21 -19 -25 -17 -10 -20 11
-5 34 18 26 39 19 24 -9z"/>
<path d="M1681 754 c-43 -36 -44 -94 -2 -133 28 -26 29 -30 20 -77 -10 -55 -7
-74 15 -74 20 0 23 6 31 63 6 39 5 47 -9 47 -9 0 -16 5 -16 10 0 6 6 10 13 9
31 -4 50 3 72 26 36 35 34 88 -4 126 -37 37 -79 38 -120 3z m92 4 c12 -6 27
-18 34 -27 15 -20 17 -71 2 -71 -6 0 -9 7 -5 15 9 23 -15 65 -40 71 -35 9 -55
1 -77 -28 -17 -23 -19 -31 -9 -53 7 -14 27 -32 45 -40 32 -14 32 -14 5 -15
-51 0 -88 81 -55 122 28 35 65 45 100 26z m10 -40 c16 -25 16 -73 1 -88 -16
-16 -84 8 -93 33 -23 62 58 110 92 55z"/>
<path d="M1743 723 c-7 -3 -13 -12 -13 -22 0 -9 -5 -22 -11 -28 -6 -6 -8 -16
-4 -22 4 -8 15 -4 31 11 33 32 31 73 -3 61z"/>
<path d="M2961 756 c-30 -32 -25 -71 9 -71 17 0 26 6 29 20 3 16 1 17 -12 7
-24 -20 -29 3 -7 31 34 43 19 53 -19 13z"/>
<path d="M931 726 c-7 -8 -10 -20 -6 -26 4 -7 -2 -7 -19 0 -21 8 -27 6 -37
-11 -13 -25 -4 -53 16 -45 18 6 31 -12 17 -26 -6 -6 -12 -6 -16 1 -14 23 -36
11 -36 -19 0 -21 5 -30 16 -30 10 0 13 -6 9 -19 -7 -22 17 -44 42 -39 10 2 17
12 17 21 -2 13 4 17 20 15 15 -2 22 3 24 20 4 24 12 28 29 11 7 -7 15 -5 27 6
9 9 16 20 16 24 0 15 -29 33 -41 25 -9 -5 -10 -1 -6 15 4 15 0 24 -11 29 -10
4 -17 18 -17 32 0 29 -26 38 -44 16z m34 -6 c4 -6 1 -18 -6 -26 -10 -12 -9
-16 9 -21 15 -3 22 -13 22 -29 0 -17 6 -24 20 -24 11 0 20 -7 20 -15 0 -17
-26 -21 -32 -4 -6 17 -40 -2 -35 -21 3 -11 -2 -16 -17 -16 -14 1 -21 -5 -21
-19 0 -11 -8 -21 -19 -23 -16 -3 -18 0 -12 23 6 22 3 28 -14 32 -12 3 -20 14
-20 25 0 17 2 18 16 8 12 -11 18 -10 31 3 21 21 9 51 -17 44 -21 -6 -25 0 -11
21 5 9 17 11 34 6 24 -5 27 -3 27 20 0 26 13 35 25 16z"/>
<path d="M2431 726 c-7 -8 -10 -20 -6 -26 4 -7 -2 -7 -19 0 -21 8 -27 6 -37
-11 -13 -25 -4 -53 16 -45 18 6 31 -12 17 -26 -6 -6 -12 -6 -16 1 -14 23 -36
11 -36 -19 0 -21 5 -30 16 -30 10 0 13 -6 9 -19 -7 -22 17 -44 42 -39 10 2 17
12 17 21 -2 13 4 17 20 15 15 -2 22 3 24 20 4 24 12 28 29 11 7 -7 15 -5 27 6
9 9 16 20 16 24 0 15 -29 33 -41 25 -9 -5 -10 -1 -6 15 4 15 0 24 -11 29 -10
4 -17 18 -17 32 0 29 -26 38 -44 16z m34 -6 c4 -6 1 -18 -6 -26 -10 -12 -9
-16 9 -21 15 -3 22 -13 22 -29 0 -17 6 -24 20 -24 11 0 20 -7 20 -15 0 -17
-26 -21 -32 -4 -6 17 -40 -2 -35 -21 3 -11 -2 -16 -17 -16 -14 1 -21 -5 -21
-19 0 -11 -8 -21 -19 -23 -16 -3 -18 0 -12 23 6 22 3 28 -14 32 -12 3 -20 14
-20 25 0 17 2 18 16 8 12 -11 18 -10 31 3 21 21 9 51 -17 44 -21 -6 -25 0 -11
21 5 9 17 11 34 6 24 -5 27 -3 27 20 0 26 13 35 25 16z"/>
<path d="M384 693 c-7 -28 4 -54 27 -62 9 -3 8 1 -4 13 -22 22 -22 45 1 62 16
13 16 13 0 14 -11 0 -20 -10 -24 -27z"/>
<path d="M443 709 c9 -5 17 -19 17 -31 0 -11 -8 -27 -17 -34 -17 -12 -17 -13
-1 -14 10 0 22 10 29 21 14 27 -3 69 -28 69 -17 -1 -17 -1 0 -11z"/>
<path d="M1884 693 c-7 -28 4 -54 27 -62 9 -3 8 1 -4 13 -22 22 -22 45 1 62
16 13 16 13 0 14 -11 0 -20 -10 -24 -27z"/>
<path d="M1943 709 c9 -5 17 -19 17 -31 0 -11 -8 -27 -17 -34 -17 -12 -17 -13
-1 -14 10 0 22 10 29 21 14 27 -3 69 -28 69 -17 -1 -17 -1 0 -11z"/>
<path d="M766 678 c-16 -31 -14 -51 3 -32 10 10 24 64 17 64 -3 0 -12 -14 -20
-32z"/>
<path d="M2266 678 c-16 -31 -14 -51 3 -32 10 10 24 64 17 64 -3 0 -12 -14
-20 -32z"/>
<path d="M1350 661 c0 -14 28 -71 35 -71 2 0 0 11 -5 24 -5 13 -7 26 -4 29 2
2 -2 10 -11 17 -11 9 -15 9 -15 1z"/>
<path d="M2850 661 c0 -14 28 -71 35 -71 2 0 0 11 -5 24 -5 13 -7 26 -4 29 2
2 -2 10 -11 17 -11 9 -15 9 -15 1z"/>
<path d="M692 573 c-11 -19 3 -57 31 -86 13 -13 18 -32 17 -60 -3 -81 4 -92
51 -76 89 31 106 71 45 107 -18 11 -43 34 -56 53 -13 18 -19 29 -12 25 7 -4
12 -2 12 3 0 6 -4 11 -9 11 -5 0 -11 9 -14 20 -6 25 -52 27 -65 3z m49 -5 c0
-7 2 -20 4 -29 2 -12 -3 -15 -21 -11 -34 6 -32 52 3 52 7 0 13 -6 14 -12z m51
-125 c-25 -21 -36 -15 -48 22 -9 30 -9 37 4 44 11 6 21 0 37 -23 20 -28 21
-32 7 -43z m61 -22 c4 9 6 10 6 2 1 -14 -69 -53 -94 -53 -30 0 -16 38 23 58
37 19 37 19 48 -1 9 -15 13 -17 17 -6z"/>
<path d="M2192 573 c-11 -19 3 -57 31 -86 13 -13 18 -31 16 -60 -3 -46 7 -87
21 -87 14 0 62 22 92 42 33 23 28 50 -16 76 -18 11 -43 34 -56 53 -13 18 -19
29 -12 25 7 -4 12 -2 12 3 0 6 -4 11 -9 11 -5 0 -11 9 -14 20 -6 25 -52 27
-65 3z m49 -5 c0 -7 2 -20 4 -29 2 -12 -3 -15 -21 -11 -34 6 -32 52 3 52 7 0
13 -6 14 -12z m51 -125 c-25 -21 -36 -15 -48 22 -9 30 -9 37 4 44 11 6 21 0
37 -23 20 -28 21 -32 7 -43z m61 -22 c4 9 6 10 6 2 1 -14 -69 -53 -94 -53 -30
0 -16 38 23 58 37 19 37 19 48 -1 9 -15 13 -17 17 -6z"/>
<path d="M387 556 c-61 -36 -64 -42 -37 -71 13 -13 32 -27 42 -31 15 -4 18
-12 14 -29 -7 -26 11 -85 25 -85 12 0 109 49 109 55 0 20 -28 57 -52 67 -22
10 -28 20 -28 43 0 43 -11 75 -24 74 -6 0 -28 -11 -49 -23z m63 -14 c0 -5 -11
-15 -25 -22 -14 -7 -23 -15 -20 -18 2 -3 11 1 20 8 13 11 15 9 15 -14 0 -24
-4 -27 -27 -24 -18 2 -27 8 -25 17 3 12 0 12 -12 2 -10 -9 -16 -9 -21 -1 -4 6
-5 12 -4 14 55 38 99 55 99 38z m38 -92 c33 -20 40 -34 22 -45 -5 -3 -10 -1
-10 5 0 6 -12 10 -27 8 -19 -2 -28 -9 -30 -23 -1 -16 -1 -16 3 -2 3 9 15 17
27 17 21 0 20 -2 -7 -25 -16 -14 -33 -25 -38 -25 -13 0 -10 98 5 103 19 8 20
8 55 -13z"/>
<path d="M1175 550 c-64 -26 -90 -50 -67 -64 11 -6 162 50 177 66 7 8 5 9 -7
5 -10 -4 -18 -2 -18 4 0 7 10 9 24 5 14 -3 28 -2 31 4 12 20 -70 8 -140 -20z"/>
<path d="M1887 556 c-61 -36 -64 -42 -37 -71 13 -13 32 -27 42 -31 15 -4 18
-12 14 -29 -7 -26 11 -85 25 -85 12 0 109 49 109 55 0 20 -28 57 -52 67 -22
10 -28 20 -28 43 0 43 -11 75 -24 74 -6 0 -28 -11 -49 -23z m63 -14 c0 -5 -11
-15 -25 -22 -14 -7 -23 -15 -20 -18 2 -3 11 1 20 8 13 11 15 9 15 -14 0 -24
-4 -27 -27 -24 -18 2 -27 8 -25 17 3 12 0 12 -12 2 -10 -9 -16 -9 -21 -1 -4 6
-5 12 -4 14 55 38 99 55 99 38z m38 -92 c33 -20 40 -34 22 -45 -5 -3 -10 -1
-10 5 0 6 -12 10 -27 8 -19 -2 -28 -9 -30 -23 -1 -16 -1 -16 3 -2 3 9 15 17
27 17 21 0 20 -2 -7 -25 -16 -14 -33 -25 -38 -25 -13 0 -10 98 5 103 19 8 20
8 55 -13z"/>
<path d="M2675 550 c-64 -26 -90 -50 -67 -64 12 -7 161 50 192 74 l25 20 -40
-1 c-22 -1 -71 -14 -110 -29z"/>
<path d="M1443 557 c-40 -21 -60 -90 -38 -133 17 -33 44 -56 59 -51 7 3 18 1
23 -4 13 -13 85 12 91 33 2 10 8 18 12 18 9 0 23 40 20 55 -1 6 -3 15 -4 20
-4 27 -34 53 -66 58 -19 3 -44 7 -55 10 -11 3 -30 0 -42 -6z m60 -55 c-2 -26
-9 -51 -14 -56 -5 -6 -9 -20 -9 -32 0 -12 -6 -24 -14 -27 -32 -13 -78 91 -50
114 8 6 14 17 14 23 0 15 40 33 62 28 13 -3 15 -13 11 -50z m73 23 c23 -22 25
-66 4 -100 -16 -27 -62 -55 -88 -55 -5 0 2 46 19 118 11 44 16 52 34 50 11 -2
25 -8 31 -13z"/>
<path d="M1449 513 c-12 -15 -12 -16 3 -11 18 7 32 -16 22 -35 -5 -9 -4 -9 5
-1 10 9 10 17 2 32 -8 15 -8 22 2 25 7 4 6 6 -4 6 -9 1 -23 -7 -30 -16z"/>
<path d="M1540 453 c-22 -9 -31 -26 -17 -35 9 -6 9 -8 0 -8 -7 0 -13 -5 -13
-11 0 -8 5 -8 15 1 8 7 12 17 9 22 -4 6 0 14 7 19 8 5 17 3 21 -4 5 -8 8 -6 8
6 0 18 -5 19 -30 10z"/>
<path d="M2944 557 c-26 -13 -54 -64 -50 -92 6 -49 46 -101 70 -92 8 3 17 2
22 -3 5 -5 9 10 9 35 0 24 -3 41 -7 39 -5 -3 -8 -16 -8 -29 0 -12 -6 -25 -14
-28 -32 -13 -78 91 -50 114 8 6 14 17 14 24 0 13 35 28 59 25 7 -1 10 3 6 9
-7 13 -22 12 -51 -2z"/>
<path d="M4 500 l-1 -55 10 48 c9 40 14 47 31 45 28 -4 41 -18 50 -51 9 -37
-24 -92 -64 -106 -43 -14 -37 -21 6 -8 21 6 39 19 42 29 2 10 8 18 12 18 9 0
23 40 20 55 -1 6 -3 15 -4 22 -4 24 -38 51 -69 55 l-32 3 -1 -55z"/>
<path d="M558 523 c-19 -5 -24 -18 -9 -27 5 -3 11 0 14 8 4 9 14 12 29 9 29
-7 61 -40 48 -48 -6 -3 -10 -1 -10 6 0 9 -4 9 -15 -1 -18 -15 -35 -5 -35 23
-1 21 -1 21 -12 3 -9 -15 -7 -22 8 -33 20 -15 53 -17 73 -4 10 7 11 13 2 29
-19 35 -49 47 -93 35z"/>
<path d="M2058 523 c-19 -5 -24 -18 -9 -27 5 -3 11 0 14 8 4 9 14 12 29 9 29
-7 61 -40 48 -48 -6 -3 -10 -1 -10 6 0 9 -4 9 -15 -1 -18 -15 -35 -5 -35 23
-1 21 -1 21 -12 3 -9 -15 -7 -22 8 -33 20 -15 53 -17 73 -4 10 7 11 13 2 29
-19 35 -49 47 -93 35z"/>
<path d="M2949 513 c-12 -15 -12 -16 3 -11 18 7 32 -16 22 -35 -5 -9 -4 -9 5
-1 10 9 10 17 2 32 -8 15 -8 22 2 25 7 4 6 6 -4 6 -9 1 -23 -7 -30 -16z"/>
<path d="M982 457 c-9 -10 -4 -12 24 -9 24 3 34 0 32 -8 -2 -7 3 -15 10 -17
18 -7 15 18 -5 33 -23 17 -48 18 -61 1z"/>
<path d="M2481 456 c-9 -11 -6 -12 15 -8 18 3 30 0 36 -12 11 -19 28 -21 28
-3 0 8 -11 19 -25 25 -33 15 -40 15 -54 -2z"/>
<path d="M40 453 c-8 -4 -21 -12 -28 -20 -11 -11 -10 -13 5 -14 10 0 13 -3 6
-6 -7 -2 -13 -9 -13 -15 0 -6 6 -6 15 2 8 7 12 17 9 22 -4 6 0 14 7 19 8 5 17
3 21 -4 5 -8 8 -6 8 6 0 18 -5 19 -30 10z"/>
<path d="M152 404 c-18 -13 -21 -19 -11 -30 9 -11 15 -12 26 -3 7 7 17 9 21 5
4 -4 -3 -16 -15 -26 -28 -22 -30 -50 -4 -50 16 0 32 19 35 42 1 3 5 10 10 15
5 5 6 3 2 -4 -4 -7 -2 -13 3 -13 20 0 12 59 -8 70 -26 13 -33 13 -59 -6z"/>
<path d="M1652 404 c-18 -13 -21 -19 -11 -30 9 -11 15 -12 26 -3 7 7 17 9 21
5 4 -4 -3 -16 -15 -26 -28 -22 -30 -50 -4 -50 16 0 32 19 35 42 1 3 5 10 10
15 5 5 6 3 2 -4 -4 -7 -2 -13 3 -13 20 0 12 59 -8 70 -26 13 -33 13 -59 -6z"/>
<path d="M957 399 c-9 -6 -15 -14 -12 -19 3 -5 -6 -17 -20 -26 -28 -18 -33
-49 -10 -58 8 -3 15 -17 15 -31 0 -27 31 -48 38 -27 5 16 20 15 38 -2 9 -10
11 -17 4 -21 -8 -5 -8 -11 0 -20 6 -8 10 -22 8 -32 -2 -11 3 -18 12 -18 8 0
20 -6 26 -14 11 -14 39 -6 29 8 -2 5 7 13 20 19 25 12 34 32 14 32 -6 0 -9 9
-6 20 5 20 -15 45 -27 33 -4 -4 -10 -3 -14 3 -4 7 -15 8 -27 3 -11 -4 -14 -8
-7 -8 7 -1 10 -6 7 -12 -5 -7 -16 -3 -31 12 -20 19 -30 20 -61 7 -3 -2 -7 4
-9 12 -1 8 -5 23 -9 33 -5 12 -2 17 8 17 20 0 31 -17 15 -23 -7 -2 -9 -8 -5
-13 4 -5 13 -2 18 6 8 11 12 12 16 3 7 -18 26 -16 19 2 -4 10 1 15 15 15 17 0
18 -3 8 -21 -11 -21 -11 -21 15 -3 28 21 35 64 10 64 -10 0 -13 6 -9 19 8 25
-22 51 -35 30 -8 -12 -11 -11 -22 3 -10 13 -17 15 -31 7z m28 -19 c4 -6 15 -8
25 -5 15 5 19 0 22 -22 2 -16 8 -27 16 -25 6 1 12 -5 12 -13 0 -8 -4 -15 -10
-15 -5 0 -10 5 -10 10 0 6 -7 10 -16 10 -11 0 -14 6 -9 20 4 11 2 20 -4 20 -6
0 -11 -4 -11 -10 0 -5 -4 -10 -10 -10 -5 0 -10 7 -10 16 0 8 -5 12 -10 9 -6
-4 -9 -14 -8 -23 2 -11 -3 -16 -14 -14 -10 2 -18 -2 -18 -8 0 -5 -4 -10 -10
-10 -5 0 -10 7 -10 15 0 8 6 15 13 15 8 0 20 11 27 25 14 27 25 31 35 15z
m103 -187 c5 -17 -26 -29 -40 -15 -6 6 -7 15 -3 22 9 14 37 9 43 -7z"/>
<path d="M2457 399 c-9 -6 -15 -14 -12 -19 3 -5 -6 -17 -20 -26 -28 -18 -33
-49 -10 -58 8 -3 15 -17 15 -31 0 -27 31 -48 38 -27 5 16 20 15 38 -2 9 -10
11 -17 4 -21 -8 -5 -8 -11 0 -20 6 -8 10 -22 8 -32 -2 -11 3 -18 12 -18 8 0
20 -6 26 -14 11 -14 39 -6 29 8 -2 5 7 13 20 19 25 12 34 32 14 32 -6 0 -9 9
-6 20 5 20 -15 45 -27 33 -4 -4 -10 -3 -14 3 -4 7 -15 8 -27 3 -11 -4 -14 -8
-7 -8 7 -1 10 -6 7 -12 -5 -7 -16 -3 -31 12 -20 19 -30 20 -61 7 -3 -2 -7 4
-9 12 -1 8 -5 23 -9 33 -5 12 -2 17 8 17 20 0 31 -17 15 -23 -7 -2 -9 -8 -5
-13 4 -5 13 -2 18 6 8 11 12 12 16 3 7 -18 26 -16 19 2 -4 10 1 15 15 15 17 0
18 -3 8 -21 -11 -21 -11 -21 15 -3 28 21 35 64 10 64 -10 0 -13 6 -9 19 8 25
-22 51 -35 30 -8 -12 -11 -11 -22 3 -10 13 -17 15 -31 7z m28 -19 c4 -6 15 -8
25 -5 15 5 19 0 22 -22 2 -16 8 -27 16 -25 6 1 12 -5 12 -13 0 -8 -4 -15 -10
-15 -5 0 -10 5 -10 10 0 6 -7 10 -16 10 -11 0 -14 6 -9 20 4 11 2 20 -4 20 -6
0 -11 -4 -11 -10 0 -5 -4 -10 -10 -10 -5 0 -10 7 -10 16 0 8 -5 12 -10 9 -6
-4 -9 -14 -8 -23 2 -11 -3 -16 -14 -14 -10 2 -18 -2 -18 -8 0 -5 -4 -10 -10
-10 -5 0 -10 7 -10 15 0 8 6 15 13 15 8 0 20 11 27 25 14 27 25 31 35 15z
m103 -187 c5 -17 -26 -29 -40 -15 -6 6 -7 15 -3 22 9 14 37 9 43 -7z"/>
<path d="M1220 380 c-39 -39 -20 -102 36 -116 13 -4 29 -15 35 -25 13 -26 55
-25 62 1 3 11 -1 27 -9 34 -8 8 -14 32 -14 54 0 66 -65 97 -110 52z m84 -6
c17 -17 21 -80 7 -103 -8 -12 -14 -12 -43 -1 -49 20 -58 29 -58 61 0 48 61 76
94 43z"/>
<path d="M1252 344 c-30 -21 -28 -29 16 -53 l37 -21 -30 25 c-16 14 -24 25
-17 25 7 0 10 4 7 10 -3 6 1 7 9 4 8 -3 18 -15 22 -26 9 -30 15 -15 8 20 -7
36 -19 39 -52 16z"/>
<path d="M2720 380 c-39 -39 -20 -102 36 -116 13 -4 29 -15 35 -25 13 -26 55
-25 62 1 3 11 -1 27 -9 34 -8 8 -14 32 -14 54 0 66 -65 97 -110 52z m84 -6
c18 -18 22 -94 5 -111 -7 -7 -22 -4 -52 11 -34 18 -43 29 -45 53 -5 51 57 82
92 47z"/>
<path d="M2752 344 c-30 -21 -28 -29 16 -53 l37 -21 -30 25 c-16 14 -24 25
-17 25 7 0 10 4 7 10 -3 6 1 7 9 4 8 -3 18 -15 22 -26 9 -30 15 -15 8 20 -7
36 -19 39 -52 16z"/>
<path d="M611 336 c-21 -25 -9 -51 24 -52 47 -1 84 -14 79 -29 -7 -17 23 -46
40 -39 19 7 37 -46 22 -68 -15 -25 17 -57 42 -42 25 16 28 54 4 61 -22 5 -45
46 -46 83 -1 19 -7 25 -26 26 -40 2 -70 18 -83 44 -15 30 -39 36 -56 16z m45
-35 c-10 -16 -36 -13 -43 5 -8 22 18 37 36 20 7 -8 10 -19 7 -25z m114 -51 c0
-11 -4 -20 -10 -20 -5 0 -7 7 -4 15 5 11 2 13 -10 9 -9 -3 -13 -11 -9 -17 3
-6 1 -7 -5 -3 -16 10 -3 36 19 36 12 0 19 -7 19 -20z m58 -111 c2 -9 -5 -20
-15 -23 -14 -6 -16 -5 -5 5 19 20 14 31 -8 19 -11 -6 -20 -7 -20 -2 0 27 43
27 48 1z"/>
<path d="M2111 336 c-21 -25 -9 -51 24 -52 47 -1 84 -14 79 -29 -7 -17 23 -46
40 -39 19 7 37 -46 22 -68 -15 -25 17 -57 42 -42 25 16 28 54 4 61 -22 5 -45
46 -46 83 -1 19 -7 25 -26 26 -40 2 -70 18 -83 44 -15 30 -39 36 -56 16z m45
-35 c-10 -16 -36 -13 -43 5 -8 22 18 37 36 20 7 -8 10 -19 7 -25z m114 -51 c0
-11 -4 -20 -10 -20 -5 0 -7 7 -4 15 5 11 2 13 -10 9 -9 -3 -13 -11 -9 -17 3
-6 1 -7 -5 -3 -16 10 -3 36 19 36 12 0 19 -7 19 -20z m58 -111 c2 -9 -5 -20
-15 -23 -14 -6 -16 -5 -5 5 19 20 14 31 -8 19 -11 -6 -20 -7 -20 -2 0 27 43
27 48 1z"/>
<path d="M322 333 c-7 -3 -29 -30 -48 -60 -28 -44 -33 -58 -22 -64 7 -5 19 -7
25 -4 7 2 12 1 10 -3 -5 -16 62 -70 80 -66 10 3 38 -2 62 -11 24 -8 45 -14 45
-13 1 2 13 29 28 60 15 32 23 60 18 63 -5 3 -7 12 -4 20 7 18 -34 29 -79 21
-28 -5 -34 -2 -55 29 -21 34 -33 39 -60 28z m68 -75 c0 -21 -2 -20 -32 8 l-33
29 28 -31 c36 -40 35 -55 -3 -19 -25 24 -32 26 -45 15 -14 -12 -13 -16 11 -41
25 -26 28 -27 40 -11 20 26 16 1 -4 -30 l-18 -27 -14 22 c-43 66 -51 87 -35
93 8 3 13 9 11 13 -2 3 2 15 10 26 8 10 14 14 14 9 0 -6 -3 -14 -7 -20 -5 -5
1 1 12 14 l20 23 22 -26 c13 -14 23 -36 23 -47z m96 6 c16 -4 20 -13 19 -35
-1 -16 -5 -32 -10 -37 -4 -4 -5 4 -1 18 4 17 0 13 -11 -10 -10 -19 -17 -35
-18 -36 0 -1 -13 -4 -30 -8 -22 -5 -26 -4 -15 4 11 7 7 10 -20 9 -29 0 -31 -2
-15 -9 16 -7 17 -9 3 -9 -28 -1 -30 15 -6 63 16 33 28 46 47 49 14 2 28 5 31
5 3 1 14 -1 26 -4z"/>
<path d="M435 221 l30 -8 -35 -5 -35 -6 35 2 c41 1 43 20 3 23 -28 2 -28 2 2
-6z"/>
<path d="M1822 333 c-7 -3 -29 -30 -48 -60 -28 -44 -33 -58 -22 -64 7 -5 19
-7 25 -4 7 2 12 1 10 -3 -5 -16 65 -73 82 -67 10 3 37 -2 61 -10 24 -8 44 -14
44 -13 1 2 13 29 28 60 15 32 23 60 18 63 -5 3 -7 12 -4 20 7 18 -34 29 -79
21 -28 -5 -34 -2 -55 29 -21 34 -33 39 -60 28z m68 -75 c0 -21 -2 -20 -32 8
l-33 29 28 -31 c36 -40 35 -55 -3 -19 -25 24 -32 26 -45 15 -14 -12 -13 -16
11 -41 25 -26 28 -27 40 -11 20 26 16 1 -4 -30 l-18 -27 -14 22 c-43 66 -51
87 -35 93 8 3 13 9 11 13 -2 3 2 15 10 26 8 10 14 14 14 9 0 -6 -3 -14 -7 -20
-5 -5 1 1 12 14 l20 23 22 -26 c13 -14 23 -36 23 -47z m96 6 c16 -4 20 -13 19
-35 -1 -16 -5 -32 -10 -37 -4 -4 -5 4 -1 18 4 17 0 13 -11 -10 -10 -19 -17
-35 -18 -36 0 -1 -13 -4 -30 -8 -22 -5 -26 -4 -15 4 11 7 7 10 -20 9 -29 0
-31 -2 -15 -9 16 -7 17 -9 3 -9 -28 -1 -30 15 -6 63 16 33 28 46 47 49 14 2
28 5 31 5 3 1 14 -1 26 -4z"/>
<path d="M1935 221 l30 -8 -35 -5 -35 -6 35 2 c41 1 43 20 3 23 -28 2 -28 2 2
-6z"/>
<path d="M1455 302 c-17 -12 -14 -43 4 -40 28 5 40 21 25 35 -15 15 -16 15
-29 5z"/>
<path d="M2955 302 c-17 -12 -14 -43 4 -40 28 5 40 21 25 35 -15 15 -16 15
-29 5z"/>
<path d="M136 282 c-9 -14 12 -35 28 -29 23 9 20 37 -3 37 -11 0 -22 -4 -25
-8z"/>
<path d="M1636 282 c-9 -14 12 -35 28 -29 23 9 20 37 -3 37 -11 0 -22 -4 -25
-8z"/>
<path d="M604 205 c8 -22 -11 -65 -29 -65 -26 0 -65 -46 -64 -77 0 -27 1 -27
12 7 8 24 23 40 49 53 22 11 38 27 42 43 8 32 32 25 28 -7 -2 -13 3 -41 9 -62
10 -30 10 -46 1 -70 -10 -29 -10 -30 3 -13 18 23 20 82 4 92 -14 8 -4 65 14
76 9 6 7 12 -7 23 -27 20 -70 20 -62 0z"/>
<path d="M2104 205 c8 -22 -11 -65 -29 -65 -26 0 -65 -46 -64 -77 0 -27 1 -27
12 7 8 24 23 40 49 53 22 11 38 27 42 43 8 32 32 25 28 -7 -2 -13 3 -41 9 -62
10 -30 10 -46 1 -70 -11 -30 -10 -31 4 -12 11 14 13 31 9 55 -11 61 -9 101 6
111 12 8 11 12 -5 24 -27 20 -70 20 -62 0z"/>
<path d="M37 204 c-4 -4 -7 -15 -7 -25 0 -10 -8 -20 -17 -22 -17 -4 -17 -5 0
-6 22 -1 23 -31 0 -31 -13 0 -14 -3 -5 -12 7 -7 12 -32 12 -56 0 -41 1 -43 28
-40 19 2 28 9 30 25 3 20 7 22 46 17 l43 -6 6 38 c4 22 7 56 7 77 l0 37 -47 0
c-27 0 -57 3 -68 6 -11 3 -24 2 -28 -2z m41 -27 c2 -12 -3 -17 -17 -17 -15 0
-21 6 -21 21 0 25 33 22 38 -4z m92 -7 c0 -13 -7 -20 -20 -20 -13 0 -20 7 -20
20 0 13 7 20 20 20 13 0 20 -7 20 -20z m-100 -40 c0 -11 -7 -20 -15 -20 -8 0
-15 9 -15 20 0 11 7 20 15 20 8 0 15 -9 15 -20z m50 0 c0 -13 -7 -20 -20 -20
-13 0 -20 7 -20 20 0 13 7 20 20 20 13 0 20 -7 20 -20z m48 -2 c-7 -19 -38
-22 -38 -4 0 10 9 16 21 16 12 0 19 -5 17 -12z m-98 -48 c0 -11 -6 -20 -12
-20 -10 0 -9 -3 1 -9 16 -10 6 -31 -14 -31 -9 0 -14 12 -13 40 0 32 4 40 19
40 12 0 19 -7 19 -20z m90 0 c0 -11 -7 -20 -15 -20 -8 0 -15 9 -15 20 0 11 7
20 15 20 8 0 15 -9 15 -20z"/>
<path d="M1537 204 c-4 -4 -7 -16 -7 -26 0 -13 -7 -18 -25 -18 -20 0 -25 -5
-25 -24 0 -15 7 -26 20 -29 16 -4 20 -14 20 -52 0 -45 1 -46 28 -43 19 2 28 9
30 25 3 20 7 22 46 17 l43 -6 6 38 c4 22 7 56 7 77 l0 37 -47 0 c-27 0 -57 3
-68 6 -11 3 -24 2 -28 -2z m41 -27 c2 -12 -3 -17 -17 -17 -15 0 -21 6 -21 21
0 25 33 22 38 -4z m92 -7 c0 -13 -7 -20 -20 -20 -13 0 -20 7 -20 20 0 13 7 20
20 20 13 0 20 -7 20 -20z m-140 -35 c0 -8 -9 -15 -20 -15 -11 0 -20 7 -20 15
0 8 9 15 20 15 11 0 20 -7 20 -15z m40 -5 c0 -11 -7 -20 -15 -20 -8 0 -15 9
-15 20 0 11 7 20 15 20 8 0 15 -9 15 -20z m50 0 c0 -13 -7 -20 -20 -20 -13 0
-20 7 -20 20 0 13 7 20 20 20 13 0 20 -7 20 -20z m48 -2 c-7 -19 -38 -22 -38
-4 0 10 9 16 21 16 12 0 19 -5 17 -12z m-98 -49 c0 -15 -4 -19 -16 -15 -9 3
-18 6 -20 6 -2 0 -4 7 -4 15 0 8 9 15 20 15 14 0 20 -7 20 -21z m90 1 c0 -11
-7 -20 -15 -20 -8 0 -15 9 -15 20 0 11 7 20 15 20 8 0 15 -9 15 -20z m-101
-29 c16 -10 6 -31 -15 -31 -8 0 -14 9 -14 20 0 22 7 25 29 11z"/>
<path d="M1323 158 c-18 -6 -33 -14 -33 -18 0 -9 75 11 86 23 10 10 -14 7 -53
-5z"/>
<path d="M2823 158 c-18 -6 -33 -14 -33 -18 0 -9 75 11 86 23 10 10 -14 7 -53
-5z"/>
<path d="M921 118 c-1 -10 -5 -18 -11 -18 -5 0 -7 -6 -4 -14 3 -8 14 -14 24
-13 21 1 35 37 15 37 -7 0 -16 6 -18 13 -3 7 -6 5 -6 -5z"/>
<path d="M2421 118 c-1 -10 -5 -18 -11 -18 -5 0 -7 -6 -4 -14 3 -8 14 -14 24
-13 21 1 35 37 15 37 -7 0 -16 6 -18 13 -3 7 -6 5 -6 -5z"/>
<path d="M1172 97 c-17 -21 -10 -44 13 -44 24 0 29 24 9 44 -9 10 -14 10 -22
0z"/>
<path d="M2674 96 c-18 -20 -12 -43 11 -43 23 0 29 24 11 43 -9 8 -14 8 -22 0z"/>
<path d="M1303 71 c-30 -19 -51 -56 -39 -68 3 -4 6 0 6 8 0 12 2 11 10 -1 8
-12 10 -10 8 9 -2 17 2 25 17 27 11 1 30 6 43 9 14 5 22 3 22 -4 0 -6 -8 -11
-18 -11 -19 0 -42 -18 -42 -33 0 -5 7 -1 17 8 10 11 27 15 44 13 23 -4 26 -2
17 9 -24 30 3 24 32 -7 16 -18 30 -28 30 -22 0 6 -14 22 -32 37 -32 27 -56 29
-102 10 -13 -6 -17 -5 -12 3 10 17 75 26 102 13 13 -6 33 -25 44 -43 11 -18
20 -27 20 -20 0 40 -54 82 -107 82 -15 0 -42 -9 -60 -19z"/>
<path d="M2815 78 c-26 -14 -55 -49 -55 -68 0 -12 2 -13 9 -1 7 11 9 11 14 0
3 -8 5 -3 4 10 -1 17 4 25 18 27 11 1 30 6 43 9 14 5 22 3 22 -4 0 -6 -8 -11
-18 -11 -19 0 -42 -18 -42 -33 0 -5 7 -1 17 8 10 11 27 15 44 13 23 -4 26 -2
17 9 -24 30 3 24 32 -7 16 -18 30 -28 30 -22 0 6 -14 22 -32 37 -32 27 -56 29
-102 10 -13 -6 -17 -5 -12 3 10 17 75 26 102 13 13 -6 33 -25 44 -43 11 -18
20 -26 20 -18 -1 20 -29 55 -57 69 -27 14 -72 14 -98 -1z"/>
<path d="M337 62 c-21 -23 -22 -62 -2 -62 8 0 15 9 15 19 0 32 21 36 44 10 12
-13 31 -24 44 -25 12 0 22 1 22 3 0 1 -17 18 -37 38 -43 39 -63 43 -86 17z"/>
<path d="M528 51 c-2 -16 -2 -29 1 -29 3 1 19 -5 34 -12 25 -12 33 -12 55 0
39 23 36 35 -10 47 -24 7 -50 14 -59 18 -13 5 -18 -1 -21 -24z"/>
<path d="M1837 62 c-21 -23 -22 -62 -2 -62 8 0 15 9 15 19 0 32 21 36 44 10
12 -13 31 -24 44 -25 12 0 22 1 22 3 0 1 -17 18 -37 38 -43 39 -63 43 -86 17z"/>
<path d="M2028 51 c-2 -16 -2 -29 1 -29 3 1 19 -5 34 -12 25 -12 33 -12 55 0
39 23 36 35 -10 47 -24 7 -50 14 -59 18 -13 5 -18 -1 -21 -24z"/>
<path d="M721 16 c-10 -12 -6 -14 24 -14 23 0 35 4 32 12 -6 17 -42 19 -56 2z"/>
<path d="M944 14 c-19 -15 -19 -16 1 -8 11 4 31 8 45 8 14 0 34 -4 45 -8 20
-8 20 -7 1 8 -11 9 -32 16 -46 16 -14 0 -35 -7 -46 -16z"/>
<path d="M2221 16 c-10 -12 -6 -14 24 -14 23 0 35 4 32 12 -6 17 -42 19 -56 2z"/>
<path d="M2444 14 c-19 -15 -19 -16 1 -8 11 4 31 8 45 8 14 0 34 -4 45 -8 20
-8 20 -7 1 8 -11 9 -32 16 -46 16 -14 0 -35 -7 -46 -16z"/>
</g>
</svg>
